STARTFONT 2.1
COMMENT
COMMENT Converted from OpenType font "HMFMOLD.TTF" by "otf2bdf.exe 3.0".
COMMENT
FONT -FreeType-Yet R-Medium-R-Normal--25-180-100-100-P-108-ISO10646-1
SIZE 18 100 100
FONTBOUNDINGBOX 26 27 -1 -5
STARTPROPERTIES 19
FOUNDRY "FreeType"
FAMILY_NAME "Yet R"
WEIGHT_NAME "Medium"
SLANT "R"
SETWIDTH_NAME "Normal"
ADD_STYLE_NAME ""
PIXEL_SIZE 25
POINT_SIZE 180
RESOLUTION_X 100
RESOLUTION_Y 100
SPACING "P"
AVERAGE_WIDTH 108
CHARSET_REGISTRY "ISO10646"
CHARSET_ENCODING "1"
FONT_ASCENT 21
FONT_DESCENT 4
COPYRIGHT "Copyright(c) 1996 HUMAN COMPUTERS, INC."
_OTF_FONTFILE "HMFMOLD.TTF"
_OTF_PSNAME "YetR-HM"
ENDPROPERTIES
CHARS 17143
STARTCHAR 0020
ENCODING 32
SWIDTH 400 0
DWIDTH 10 0
BBX 0 0 0 0
BITMAP
ENDCHAR
STARTCHAR 0021
ENCODING 33
SWIDTH 280 0
DWIDTH 7 0
BBX 3 18 2 0
BITMAP
E0
E0
E0
60
60
60
60
60
60
60
60
60
60
60
60
E0
E0
60
ENDCHAR
STARTCHAR 0022
ENCODING 34
SWIDTH 480 0
DWIDTH 12 0
BBX 8 6 2 15
BITMAP
73
C6
84
E7
E7
E7
ENDCHAR
STARTCHAR 0023
ENCODING 35
SWIDTH 680 0
DWIDTH 17 0
BBX 15 22 1 -2
BITMAP
0030
1830
1830
1830
1830
183E
1FFE
FFF0
FC30
1830
1830
1830
1832
18FE
3FFE
FFF0
F830
1830
1830
1830
1830
1800
ENDCHAR
STARTCHAR 0024
ENCODING 36
SWIDTH 600 0
DWIDTH 15 0
BBX 11 22 2 -2
BITMAP
0C00
0C00
3F00
7F80
7FC0
EDC0
ECC0
ECC0
FC00
7C00
3F00
1FC0
0DC0
ECE0
ECE0
ECE0
EDE0
7FC0
7FC0
1F00
0C00
0C00
ENDCHAR
STARTCHAR 0025
ENCODING 37
SWIDTH 760 0
DWIDTH 19 0
BBX 17 21 1 -1
BITMAP
000E00
381C00
7C1C00
CE3800
C63800
C63000
C67000
C66000
EEE000
7CC000
39CE00
019F00
03BB80
033180
073180
063180
0E3180
0C1F00
1C0E00
380000
180000
ENDCHAR
STARTCHAR 0026
ENCODING 38
SWIDTH 680 0
DWIDTH 17 0
BBX 15 18 1 -1
BITMAP
0F00
1F80
3FC0
39C0
39C0
3BC0
1F80
1F00
3E38
7F38
F3B8
E1F8
E0F0
E0F0
F1F8
7FFC
7F9E
1F0E
ENDCHAR
STARTCHAR 0027
ENCODING 39
SWIDTH 200 0
DWIDTH 5 0
BBX 3 7 1 14
BITMAP
60
E0
E0
60
20
60
C0
ENDCHAR
STARTCHAR 0028
ENCODING 40
SWIDTH 320 0
DWIDTH 8 0
BBX 6 22 1 -2
BITMAP
0C
18
38
30
60
60
60
C0
C0
C0
C0
C0
C0
C0
E0
60
60
30
30
18
1C
0C
ENDCHAR
STARTCHAR 0029
ENCODING 41
SWIDTH 320 0
DWIDTH 8 0
BBX 6 22 1 -2
BITMAP
C0
60
70
30
18
18
18
0C
0C
0C
0C
0C
0C
0C
0C
18
18
18
30
70
E0
C0
ENDCHAR
STARTCHAR 002A
ENCODING 42
SWIDTH 440 0
DWIDTH 11 0
BBX 8 8 2 10
BITMAP
18
18
DB
FF
3C
3C
66
66
ENDCHAR
STARTCHAR 002B
ENCODING 43
SWIDTH 560 0
DWIDTH 14 0
BBX 13 13 1 3
BITMAP
0600
0600
0600
0600
0600
FFF8
FFF8
FFF8
0600
0600
0600
0600
0600
ENDCHAR
STARTCHAR 002C
ENCODING 44
SWIDTH 200 0
DWIDTH 5 0
BBX 3 7 1 -3
BITMAP
60
E0
E0
60
20
60
C0
ENDCHAR
STARTCHAR 002D
ENCODING 45
SWIDTH 520 0
DWIDTH 13 0
BBX 9 3 2 8
BITMAP
FF80
FF80
FF80
ENDCHAR
STARTCHAR 002E
ENCODING 46
SWIDTH 240 0
DWIDTH 6 0
BBX 3 4 1 0
BITMAP
60
E0
E0
60
ENDCHAR
STARTCHAR 002F
ENCODING 47
SWIDTH 320 0
DWIDTH 8 0
BBX 7 22 0 -1
BITMAP
06
0E
0E
0E
0C
0C
0C
1C
18
18
18
18
38
30
30
30
70
70
60
60
E0
60
ENDCHAR
STARTCHAR 0030
ENCODING 48
SWIDTH 520 0
DWIDTH 13 0
BBX 11 18 1 0
BITMAP
1F00
3F80
7FC0
71C0
71E0
E0E0
E0E0
E0E0
E0E0
E0E0
E0E0
E0E0
E0E0
70E0
71C0
7FC0
3F80
1F00
ENDCHAR
STARTCHAR 0031
ENCODING 49
SWIDTH 520 0
DWIDTH 13 0
BBX 7 18 2 0
BITMAP
04
0E
1E
3E
7E
EE
CE
0E
0E
0E
0E
0E
0E
0E
0E
0E
0E
0E
ENDCHAR
STARTCHAR 0032
ENCODING 50
SWIDTH 520 0
DWIDTH 13 0
BBX 11 18 1 -1
BITMAP
1F00
7FC0
7FC0
F1E0
E0E0
E0E0
E0E0
01E0
03C0
0780
0F00
3E00
7800
7800
F000
FFE0
FFE0
FFE0
ENDCHAR
STARTCHAR 0033
ENCODING 51
SWIDTH 520 0
DWIDTH 13 0
BBX 12 18 0 0
BITMAP
1F80
3FC0
7FE0
70E0
70E0
00E0
01E0
0FC0
0FC0
0FE0
00F0
0070
7070
F070
78F0
7FE0
3FC0
1F80
ENDCHAR
STARTCHAR 0034
ENCODING 52
SWIDTH 520 0
DWIDTH 13 0
BBX 13 17 0 1
BITMAP
01C0
03C0
07C0
07C0
0FC0
0FC0
1DC0
39C0
39C0
71C0
F1C0
FFF8
FFF8
FFF8
01C0
01C0
01C0
ENDCHAR
STARTCHAR 0035
ENCODING 53
SWIDTH 520 0
DWIDTH 13 0
BBX 11 18 1 1
BITMAP
3FE0
7FE0
7FE0
7000
7000
7000
7F00
FFC0
FFC0
F1E0
E0E0
00E0
E0E0
E0E0
F1C0
7FC0
7F80
1F00
ENDCHAR
STARTCHAR 0036
ENCODING 54
SWIDTH 520 0
DWIDTH 13 0
BBX 11 18 1 0
BITMAP
0F80
1FC0
3FE0
70E0
70E0
E000
EF00
FFC0
FFC0
F1E0
E0E0
E0E0
E0E0
E0E0
71E0
7FC0
3F80
1F00
ENDCHAR
STARTCHAR 0037
ENCODING 55
SWIDTH 520 0
DWIDTH 13 0
BBX 12 18 1 1
BITMAP
FFE0
FFF0
FFF0
01E0
03C0
0380
0700
0F00
0E00
1E00
1C00
1C00
3C00
3800
3800
3800
3800
3800
ENDCHAR
STARTCHAR 0038
ENCODING 56
SWIDTH 520 0
DWIDTH 13 0
BBX 11 18 1 0
BITMAP
1F00
7FC0
7FC0
F1E0
E0E0
E0E0
F1E0
7FC0
3F80
7FC0
F1E0
E0E0
E0E0
E0E0
F1E0
7FE0
7FC0
1F00
ENDCHAR
STARTCHAR 0039
ENCODING 57
SWIDTH 520 0
DWIDTH 13 0
BBX 11 18 1 0
BITMAP
1F00
3F80
7FC0
F1C0
E0E0
E0E0
E0E0
E0E0
F1E0
7FE0
3FE0
1EE0
00E0
E0E0
E1C0
FFC0
7F80
3E00
ENDCHAR
STARTCHAR 003A
ENCODING 58
SWIDTH 240 0
DWIDTH 6 0
BBX 3 14 1 0
BITMAP
60
E0
E0
60
00
00
00
00
00
00
60
E0
E0
60
ENDCHAR
STARTCHAR 003B
ENCODING 59
SWIDTH 240 0
DWIDTH 6 0
BBX 4 17 1 -3
BITMAP
60
F0
F0
60
00
00
00
00
00
00
70
70
70
70
30
20
E0
ENDCHAR
STARTCHAR 003C
ENCODING 60
SWIDTH 520 0
DWIDTH 13 0
BBX 12 18 1 0
BITMAP
0060
00E0
01F0
03C0
0780
1E00
3C00
7800
F000
F000
F800
3C00
1F00
0780
03C0
01F0
00F0
0060
ENDCHAR
STARTCHAR 003D
ENCODING 61
SWIDTH 520 0
DWIDTH 13 0
BBX 11 7 1 6
BITMAP
FFE0
FFE0
FFE0
0000
FFE0
FFE0
FFE0
ENDCHAR
STARTCHAR 003E
ENCODING 62
SWIDTH 520 0
DWIDTH 13 0
BBX 12 18 1 0
BITMAP
6000
F000
F800
7C00
1E00
0F80
03C0
01E0
00F0
00F0
01E0
03C0
0780
1F00
3C00
F800
F000
6000
ENDCHAR
STARTCHAR 003F
ENCODING 63
SWIDTH 480 0
DWIDTH 12 0
BBX 10 18 1 0
BITMAP
3F00
7F80
7FC0
F1C0
E1C0
E1C0
0380
0780
0F00
0E00
1C00
1C00
1C00
1C00
0C00
1C00
1C00
0C00
ENDCHAR
STARTCHAR 0040
ENCODING 64
SWIDTH 720 0
DWIDTH 18 0
BBX 16 18 1 0
BITMAP
07E0
1FF8
3C1C
700E
6397
67D3
CC73
DC73
D863
D863
D8E2
D8E6
D9EC
6F7B
7003
3806
1E1C
07F0
ENDCHAR
STARTCHAR 0041
ENCODING 65
SWIDTH 600 0
DWIDTH 15 0
BBX 14 18 1 0
BITMAP
0780
0780
07C0
0FC0
0FC0
0CC0
1CE0
1CE0
1860
3870
3FF0
3FF8
7878
7038
E01C
E01C
E01C
4008
ENDCHAR
STARTCHAR 0042
ENCODING 66
SWIDTH 560 0
DWIDTH 14 0
BBX 12 18 1 0
BITMAP
FF80
FFC0
FFE0
E1E0
E0E0
E0E0
E1E0
FFC0
FFC0
FFC0
E1E0
E070
E070
E070
E0F0
FFF0
FFE0
FFC0
ENDCHAR
STARTCHAR 0043
ENCODING 67
SWIDTH 640 0
DWIDTH 16 0
BBX 14 18 1 0
BITMAP
0FC0
1FF0
3FF8
7838
7038
F018
E000
E000
E000
E000
E000
E01C
F01C
703C
7838
3FF8
1FF0
0FC0
ENDCHAR
STARTCHAR 0044
ENCODING 68
SWIDTH 600 0
DWIDTH 15 0
BBX 13 18 1 0
BITMAP
7FC0
FFE0
FFE0
E0F0
E070
E078
E038
E038
E038
E038
E038
E038
E078
E070
E0F0
FFE0
FFE0
FF80
ENDCHAR
STARTCHAR 0045
ENCODING 69
SWIDTH 520 0
DWIDTH 13 0
BBX 11 18 1 1
BITMAP
FFE0
FFE0
FFE0
E000
E000
E000
E000
FFC0
FFC0
FFC0
E000
E000
E000
E000
E000
FFE0
FFE0
FFE0
ENDCHAR
STARTCHAR 0046
ENCODING 70
SWIDTH 520 0
DWIDTH 13 0
BBX 11 18 1 1
BITMAP
FFE0
FFE0
FFE0
E060
E000
E000
E000
FFC0
FFC0
FFC0
E000
E000
E000
E000
E000
E000
E000
E000
ENDCHAR
STARTCHAR 0047
ENCODING 71
SWIDTH 640 0
DWIDTH 16 0
BBX 14 18 1 0
BITMAP
07C0
1FF0
3FF8
7838
7038
F018
E000
E000
E1FC
E1FC
E1FC
E01C
F01C
703C
783C
3FFC
1FFC
0F9C
ENDCHAR
STARTCHAR 0048
ENCODING 72
SWIDTH 560 0
DWIDTH 14 0
BBX 12 18 1 0
BITMAP
E070
E070
E070
E070
E070
E070
FFF0
FFF0
FFF0
E070
E070
E070
E070
E070
E070
E070
E070
E070
ENDCHAR
STARTCHAR 0049
ENCODING 73
SWIDTH 240 0
DWIDTH 6 0
BBX 3 18 1 0
BITMAP
E0
E0
E0
E0
E0
E0
E0
E0
E0
E0
E0
E0
E0
E0
E0
E0
E0
E0
ENDCHAR
STARTCHAR 004A
ENCODING 74
SWIDTH 480 0
DWIDTH 12 0
BBX 9 18 1 0
BITMAP
0380
0380
0380
0380
0380
0380
0380
0380
0380
0380
0380
E380
E380
E380
E380
7F80
7F00
3E00
ENDCHAR
STARTCHAR 004B
ENCODING 75
SWIDTH 560 0
DWIDTH 14 0
BBX 12 18 1 0
BITMAP
E070
E0F0
E1E0
E1C0
E380
E700
EE00
FC00
FC00
FE00
FF00
E700
E380
E3C0
E1E0
E0F0
E0F0
E070
ENDCHAR
STARTCHAR 004C
ENCODING 76
SWIDTH 480 0
DWIDTH 12 0
BBX 11 18 1 0
BITMAP
E000
E000
E000
E000
E000
E000
E000
E000
E000
E000
E000
E000
E000
E000
E000
FFE0
FFE0
FFE0
ENDCHAR
STARTCHAR 004D
ENCODING 77
SWIDTH 760 0
DWIDTH 19 0
BBX 16 18 1 0
BITMAP
E007
F00F
F00F
F00F
F81F
F81F
F81F
FC3F
EC3F
EE37
EE77
E667
E7E7
E7E7
E3C7
E3C7
E3C7
E187
ENDCHAR
STARTCHAR 004E
ENCODING 78
SWIDTH 600 0
DWIDTH 15 0
BBX 13 18 1 -1
BITMAP
E038
F038
F038
F838
FC38
FC38
FE38
EF38
E738
E7B8
E3F8
E3F8
E1F8
E0F8
E0F8
E078
E078
E038
ENDCHAR
STARTCHAR 004F
ENCODING 79
SWIDTH 680 0
DWIDTH 17 0
BBX 15 18 1 0
BITMAP
07C0
1FF0
3FF8
783C
701C
701C
E00E
E00E
E00E
E00E
E00E
E00E
F01C
701C
783C
3FF8
1FF0
07C0
ENDCHAR
STARTCHAR 0050
ENCODING 80
SWIDTH 560 0
DWIDTH 14 0
BBX 12 18 1 1
BITMAP
FFC0
FFE0
FFF0
E0F0
E070
E070
E070
E070
E0E0
FFE0
FFC0
E000
E000
E000
E000
E000
E000
E000
ENDCHAR
STARTCHAR 0051
ENCODING 81
SWIDTH 720 0
DWIDTH 18 0
BBX 16 18 1 -1
BITMAP
07C0
1FF0
3FF8
783C
701C
F01E
E00E
E00E
E00E
E00E
E0CE
E0FE
F1FE
707C
787E
3FFF
1FF7
07C2
ENDCHAR
STARTCHAR 0052
ENCODING 82
SWIDTH 560 0
DWIDTH 14 0
BBX 12 18 1 1
BITMAP
FFC0
FFE0
FFF0
E0F0
E070
E070
E070
E0F0
FFE0
FFC0
FFE0
E0F0
E070
E070
E070
E070
E070
E070
ENDCHAR
STARTCHAR 0053
ENCODING 83
SWIDTH 560 0
DWIDTH 14 0
BBX 12 18 1 0
BITMAP
1F80
7FC0
7FE0
F0E0
E0F0
E060
F000
7E00
3FC0
0FE0
01F0
E0F0
E070
E070
F0F0
FFE0
7FC0
1F80
ENDCHAR
STARTCHAR 0054
ENCODING 84
SWIDTH 680 0
DWIDTH 17 0
BBX 15 18 1 1
BITMAP
FFFE
FFFE
FFFE
0380
0380
0380
0380
0380
0380
0380
0380
0380
0380
0380
0380
0380
0380
0380
ENDCHAR
STARTCHAR 0055
ENCODING 85
SWIDTH 560 0
DWIDTH 14 0
BBX 12 18 1 0
BITMAP
E070
E070
E070
E070
E070
E070
E070
E070
E070
E070
E070
E070
E070
F0F0
F0F0
FFE0
7FE0
1F80
ENDCHAR
STARTCHAR 0056
ENCODING 86
SWIDTH 640 0
DWIDTH 16 0
BBX 15 18 0 1
BITMAP
700E
F00E
700E
781E
381C
381C
3C38
1C38
1C38
0E70
0E70
0E70
07E0
07E0
07E0
03C0
03C0
03C0
ENDCHAR
STARTCHAR 0057
ENCODING 87
SWIDTH 840 0
DWIDTH 21 0
BBX 21 18 0 1
BITMAP
707070
F07078
70F070
70F070
38F8E0
39F8E0
39D8E0
39DCC0
1F9DC0
1F8FC0
1F8FC0
1F0FC0
1F0780
0F0780
0F0780
0F0780
0F0780
0E0380
ENDCHAR
STARTCHAR 0058
ENCODING 88
SWIDTH 600 0
DWIDTH 15 0
BBX 14 17 1 0
BITMAP
E038
F038
7078
3870
3CE0
1DC0
0F80
0780
0700
0F80
0FC0
1DC0
38E0
78F0
7078
F07C
E038
ENDCHAR
STARTCHAR 0059
ENCODING 89
SWIDTH 600 0
DWIDTH 15 0
BBX 15 18 0 0
BITMAP
0008
701E
F01E
783C
3C38
1C70
1EF0
0FE0
07C0
07C0
0380
0380
0380
0380
0380
0380
0380
0380
ENDCHAR
STARTCHAR 005A
ENCODING 90
SWIDTH 560 0
DWIDTH 14 0
BBX 13 18 0 0
BITMAP
7FF0
7FF8
7FF8
00F0
00E0
01C0
01C0
0380
0700
0F00
0E00
1C00
3C00
3800
7800
FFF8
FFF8
7FF8
ENDCHAR
STARTCHAR 005B
ENCODING 91
SWIDTH 320 0
DWIDTH 8 0
BBX 6 22 1 -2
BITMAP
FC
FC
E0
E0
E0
E0
E0
E0
E0
E0
E0
E0
E0
E0
E0
E0
E0
E0
E0
FC
FC
FC
ENDCHAR
STARTCHAR 005C
ENCODING 92
SWIDTH 520 0
DWIDTH 13 0
BBX 11 20 1 -1
BITMAP
C000
E000
E000
7000
7000
3800
3800
1800
1C00
0C00
0E00
0600
0700
0300
0380
0380
01C0
01C0
00E0
00C0
ENDCHAR
STARTCHAR 005D
ENCODING 93
SWIDTH 360 0
DWIDTH 9 0
BBX 6 22 1 -2
BITMAP
FC
FC
FC
1C
1C
1C
1C
1C
1C
1C
1C
1C
1C
1C
1C
1C
1C
1C
1C
FC
FC
FC
ENDCHAR
STARTCHAR 005E
ENCODING 94
SWIDTH 400 0
DWIDTH 10 0
BBX 6 4 2 18
BITMAP
30
78
CC
84
ENDCHAR
STARTCHAR 005F
ENCODING 95
SWIDTH 480 0
DWIDTH 12 0
BBX 13 2 0 -3
BITMAP
FFF8
FFF8
ENDCHAR
STARTCHAR 0060
ENCODING 96
SWIDTH 240 0
DWIDTH 6 0
BBX 4 6 1 15
BITMAP
70
C0
80
E0
E0
E0
ENDCHAR
STARTCHAR 0061
ENCODING 97
SWIDTH 560 0
DWIDTH 14 0
BBX 13 14 1 0
BITMAP
1F00
7FC0
FFE0
E0E0
E0E0
07E0
3FE0
7FE0
F0E0
E0E0
E1E0
FFF8
7FF8
3E78
ENDCHAR
STARTCHAR 0062
ENCODING 98
SWIDTH 520 0
DWIDTH 13 0
BBX 11 18 1 0
BITMAP
E000
E000
E000
E000
EF00
FFC0
FFC0
F1E0
F0E0
E0E0
E0E0
E0E0
E0E0
F0E0
F1E0
FFC0
FF80
EF00
ENDCHAR
STARTCHAR 0063
ENCODING 99
SWIDTH 520 0
DWIDTH 13 0
BBX 11 14 1 0
BITMAP
1F80
3FC0
7FE0
F0E0
F0E0
E000
E000
E000
E0E0
F0E0
F0E0
7FE0
3FC0
1F00
ENDCHAR
STARTCHAR 0064
ENCODING 100
SWIDTH 560 0
DWIDTH 14 0
BBX 12 18 1 0
BITMAP
0070
0070
0070
0070
1F70
3FF0
7FF0
70F0
F0F0
E070
E070
E070
E070
F0F0
71F0
7FF0
3FF0
1F70
ENDCHAR
STARTCHAR 0065
ENCODING 101
SWIDTH 560 0
DWIDTH 14 0
BBX 12 14 1 0
BITMAP
1F00
3FC0
7FE0
70E0
E070
FFF0
FFF0
FFF0
E000
E070
70F0
7FE0
3FC0
0F80
ENDCHAR
STARTCHAR 0066
ENCODING 102
SWIDTH 360 0
DWIDTH 9 0
BBX 9 18 0 1
BITMAP
1F80
1F80
1F80
1C00
1C00
FF80
FF80
FF80
1C00
1C00
1C00
1C00
1C00
1C00
1C00
1C00
1C00
1C00
ENDCHAR
STARTCHAR 0067
ENCODING 103
SWIDTH 560 0
DWIDTH 14 0
BBX 12 19 1 -5
BITMAP
1F70
3FF0
7FF0
70F0
F0F0
E070
E070
E070
E070
F0F0
70F0
7FF0
3FF0
0F70
E070
F0E0
FFE0
7FC0
1F00
ENDCHAR
STARTCHAR 0068
ENCODING 104
SWIDTH 520 0
DWIDTH 13 0
BBX 11 18 1 0
BITMAP
E000
E000
E000
E000
EF80
FFC0
FFE0
F1E0
F0E0
E0E0
E0E0
E0E0
E0E0
E0E0
E0E0
E0E0
E0E0
E0E0
ENDCHAR
STARTCHAR 0069
ENCODING 105
SWIDTH 200 0
DWIDTH 5 0
BBX 3 19 1 0
BITMAP
60
E0
E0
E0
00
E0
E0
E0
E0
E0
E0
E0
E0
E0
E0
E0
E0
E0
E0
ENDCHAR
STARTCHAR 006A
ENCODING 106
SWIDTH 320 0
DWIDTH 8 0
BBX 7 24 0 -5
BITMAP
0C
1E
1E
0C
00
1E
1E
0E
0E
0E
0E
0E
0E
0E
0E
0E
0E
0E
0E
0E
1E
FE
FC
F0
ENDCHAR
STARTCHAR 006B
ENCODING 107
SWIDTH 480 0
DWIDTH 12 0
BBX 11 18 1 -1
BITMAP
E000
E000
E000
E000
E1C0
E3C0
E380
E700
EE00
FE00
FE00
FE00
F700
E380
E380
E1C0
E1E0
E0C0
ENDCHAR
STARTCHAR 006C
ENCODING 108
SWIDTH 240 0
DWIDTH 6 0
BBX 3 18 1 0
BITMAP
E0
E0
E0
E0
E0
E0
E0
E0
E0
E0
E0
E0
E0
E0
E0
E0
E0
E0
ENDCHAR
STARTCHAR 006D
ENCODING 109
SWIDTH 760 0
DWIDTH 19 0
BBX 17 14 1 0
BITMAP
EF1E00
FFFF00
FFFF80
F3E780
E1C380
E1C380
E1C380
E1C380
E1C380
E1C380
E1C380
E1C380
E1C380
E1C380
ENDCHAR
STARTCHAR 006E
ENCODING 110
SWIDTH 520 0
DWIDTH 13 0
BBX 10 14 1 0
BITMAP
EF80
FFC0
FFC0
F1C0
E1C0
E1C0
E1C0
E1C0
E1C0
E1C0
E1C0
E1C0
E1C0
E1C0
ENDCHAR
STARTCHAR 006F
ENCODING 111
SWIDTH 520 0
DWIDTH 13 0
BBX 11 14 1 0
BITMAP
1F00
3F80
7FC0
71E0
F0E0
E0E0
E0E0
E0E0
E0E0
E0E0
F1E0
7FC0
3F80
1F00
ENDCHAR
STARTCHAR 0070
ENCODING 112
SWIDTH 560 0
DWIDTH 14 0
BBX 12 19 1 -5
BITMAP
EF80
FFC0
FFE0
F0E0
F0F0
E070
E070
E070
E070
F0F0
F0E0
FFE0
FFC0
EF80
E000
E000
E000
E000
E000
ENDCHAR
STARTCHAR 0071
ENCODING 113
SWIDTH 520 0
DWIDTH 13 0
BBX 11 19 1 -5
BITMAP
1EE0
3FE0
7FE0
F1E0
F1E0
E0E0
E0E0
E0E0
E0E0
F1E0
F1E0
7FE0
3FE0
1EE0
00E0
00E0
00E0
00E0
00E0
ENDCHAR
STARTCHAR 0072
ENCODING 114
SWIDTH 400 0
DWIDTH 10 0
BBX 8 14 1 0
BITMAP
E7
FF
FF
F8
F0
E0
E0
E0
E0
E0
E0
E0
E0
E0
ENDCHAR
STARTCHAR 0073
ENCODING 115
SWIDTH 480 0
DWIDTH 12 0
BBX 10 14 1 0
BITMAP
3E00
7F80
FFC0
E1C0
E1C0
F800
7F00
1F80
03C0
E1C0
E1C0
FFC0
7F80
3F00
ENDCHAR
STARTCHAR 0074
ENCODING 116
SWIDTH 400 0
DWIDTH 10 0
BBX 10 18 0 0
BITMAP
1C00
1C00
1C00
1C00
FF80
FF80
FF80
1C00
1C00
1C00
1C00
1C00
1C00
1C00
1C00
1F80
0FC0
07C0
ENDCHAR
STARTCHAR 0075
ENCODING 117
SWIDTH 560 0
DWIDTH 14 0
BBX 10 14 2 0
BITMAP
E1C0
E1C0
E1C0
E1C0
E1C0
E1C0
E1C0
E1C0
E1C0
E1C0
F3C0
FFC0
FFC0
3DC0
ENDCHAR
STARTCHAR 0076
ENCODING 118
SWIDTH 520 0
DWIDTH 13 0
BBX 13 14 0 1
BITMAP
7030
F038
7078
7070
3870
38E0
18E0
1CE0
1DC0
0FC0
0F80
0F80
0780
0700
ENDCHAR
STARTCHAR 0077
ENCODING 119
SWIDTH 760 0
DWIDTH 19 0
BBX 18 14 0 1
BITMAP
70E1C0
F0E1C0
71E1C0
71E3C0
39F380
39F380
3BF380
1BBF00
1FBF00
1F3F00
0F1E00
0F1E00
0F1E00
060C00
ENDCHAR
STARTCHAR 0078
ENCODING 120
SWIDTH 480 0
DWIDTH 12 0
BBX 12 14 0 0
BITMAP
3060
F0F0
78E0
39C0
1FC0
0F80
0F00
0F00
0F80
1DC0
39E0
78E0
F0F0
7060
ENDCHAR
STARTCHAR 0079
ENCODING 121
SWIDTH 520 0
DWIDTH 13 0
BBX 12 19 1 -5
BITMAP
4040
E0F0
E0E0
F0E0
71C0
71C0
3980
3B80
1F80
1F00
0F00
0E00
0E00
0C00
1C00
3C00
F800
F800
E000
ENDCHAR
STARTCHAR 007A
ENCODING 122
SWIDTH 480 0
DWIDTH 12 0
BBX 12 14 0 0
BITMAP
FFE0
FFE0
FFE0
03C0
0380
0700
0E00
1E00
1C00
3800
7000
FFF0
FFF0
7FF0
ENDCHAR
STARTCHAR 007B
ENCODING 123
SWIDTH 360 0
DWIDTH 9 0
BBX 7 21 1 0
BITMAP
0E
1E
38
30
30
38
18
18
38
F0
E0
F0
18
18
18
38
30
30
38
1E
0E
ENDCHAR
STARTCHAR 007C
ENCODING 124
SWIDTH 280 0
DWIDTH 7 0
BBX 2 22 2 -1
BITMAP
C0
C0
C0
C0
C0
C0
C0
C0
C0
C0
00
00
C0
C0
C0
C0
C0
C0
C0
C0
C0
C0
ENDCHAR
STARTCHAR 007D
ENCODING 125
SWIDTH 360 0
DWIDTH 9 0
BBX 7 21 1 -1
BITMAP
E0
F0
38
18
18
38
30
30
38
1E
1E
38
30
30
30
18
18
18
38
F0
E0
ENDCHAR
STARTCHAR 007E
ENCODING 126
SWIDTH 520 0
DWIDTH 13 0
BBX 11 5 1 8
BITMAP
3020
7C60
FFE0
C7C0
8380
ENDCHAR
STARTCHAR 007F
ENCODING 127
SWIDTH 1000 0
DWIDTH 25 0
BBX 0 0 0 0
BITMAP
ENDCHAR
STARTCHAR 00A1
ENCODING 161
SWIDTH 1000 0
DWIDTH 25 0
BBX 3 20 11 -1
BITMAP
E0
E0
60
00
00
00
40
40
40
40
40
40
40
40
E0
E0
E0
E0
E0
E0
ENDCHAR
STARTCHAR 00A4
ENCODING 164
SWIDTH 960 0
DWIDTH 24 0
BBX 10 10 7 3
BITMAP
DE80
6180
4080
8040
8040
8040
8040
4080
6180
7E80
ENDCHAR
STARTCHAR 00A7
ENCODING 167
SWIDTH 960 0
DWIDTH 24 0
BBX 9 21 8 -1
BITMAP
3C00
4600
CE00
CE00
E000
7000
3C00
7E00
C700
C300
C100
6100
3B00
1C00
0E00
0F00
0380
3180
3180
3300
1E00
ENDCHAR
STARTCHAR 00A8
ENCODING 168
SWIDTH 1000 0
DWIDTH 25 0
BBX 8 3 9 16
BITMAP
42
E7
E7
ENDCHAR
STARTCHAR 00AA
ENCODING 170
SWIDTH 960 0
DWIDTH 24 0
BBX 13 15 6 2
BITMAP
1F80
70C0
6060
6060
00E0
3FE0
7060
6060
6060
6060
70F8
1F70
0000
0000
FFF8
ENDCHAR
STARTCHAR 00AD
ENCODING 173
SWIDTH 960 0
DWIDTH 24 0
BBX 9 1 3 8
BITMAP
FF80
ENDCHAR
STARTCHAR 00B0
ENCODING 176
SWIDTH 960 0
DWIDTH 24 0
BBX 6 6 4 13
BITMAP
78
CC
84
84
CC
78
ENDCHAR
STARTCHAR 00B1
ENCODING 177
SWIDTH 960 0
DWIDTH 24 0
BBX 16 17 4 0
BITMAP
0080
0080
0080
0080
0080
0080
FFFF
0080
0080
0080
0080
0080
0080
0080
0000
0000
FFFF
ENDCHAR
STARTCHAR 00B2
ENCODING 178
SWIDTH 1000 0
DWIDTH 25 0
BBX 5 8 4 10
BITMAP
70
98
D8
18
30
40
88
F8
ENDCHAR
STARTCHAR 00B3
ENCODING 179
SWIDTH 1000 0
DWIDTH 25 0
BBX 5 8 4 13
BITMAP
F0
98
18
70
18
18
98
F0
ENDCHAR
STARTCHAR 00B4
ENCODING 180
SWIDTH 1000 0
DWIDTH 25 0
BBX 5 2 10 17
BITMAP
78
C0
ENDCHAR
STARTCHAR 00B6
ENCODING 182
SWIDTH 1000 0
DWIDTH 25 0
BBX 19 18 2 0
BITMAP
1FF7E0
30C180
60C180
C0C180
C0C180
C0C180
C0C180
C0C180
60C180
30C180
1FC180
00C180
00C180
00C180
00C180
00C180
00C180
03F7E0
ENDCHAR
STARTCHAR 00B7
ENCODING 183
SWIDTH 960 0
DWIDTH 24 0
BBX 4 4 10 7
BITMAP
60
F0
F0
60
ENDCHAR
STARTCHAR 00B8
ENCODING 184
SWIDTH 1000 0
DWIDTH 25 0
BBX 4 5 11 -1
BITMAP
40
70
70
10
E0
ENDCHAR
STARTCHAR 00B9
ENCODING 185
SWIDTH 960 0
DWIDTH 24 0
BBX 5 8 4 12
BITMAP
E0
60
60
60
60
60
60
F8
ENDCHAR
STARTCHAR 00BA
ENCODING 186
SWIDTH 960 0
DWIDTH 24 0
BBX 14 15 5 1
BITMAP
0FC0
1860
3030
6038
6018
6018
6018
6038
3030
1860
0FC0
0000
0000
0000
FFFC
ENDCHAR
STARTCHAR 00BC
ENCODING 188
SWIDTH 1000 0
DWIDTH 25 0
BBX 19 20 3 -1
BITMAP
100300
F00200
300600
300C00
300C00
301800
301000
303000
306080
306180
30C380
FC8380
018580
010980
031980
063180
063FE0
0C0180
080180
1807E0
ENDCHAR
STARTCHAR 00BD
ENCODING 189
SWIDTH 1000 0
DWIDTH 25 0
BBX 19 20 3 -1
BITMAP
100200
F00600
300C00
300800
301800
301000
303000
306000
3047C0
30CCE0
308C60
FD8C60
030060
0300C0
060180
040300
0C0400
180C20
181FE0
301FE0
ENDCHAR
STARTCHAR 00BE
ENCODING 190
SWIDTH 1000 0
DWIDTH 25 0
BBX 20 20 2 -2
BITMAP
3E0180
670100
630300
030600
060600
3C0C00
070800
031800
C31040
C330C0
C661C0
7C41C0
00C2C0
0084C0
018CC0
0318C0
031FF0
0600C0
0400C0
0C03F0
ENDCHAR
STARTCHAR 00BF
ENCODING 191
SWIDTH 1000 0
DWIDTH 25 0
BBX 8 20 7 -1
BITMAP
0E
0E
04
00
00
04
04
04
04
1C
3C
70
E0
C0
C0
C0
C0
67
3F
1E
ENDCHAR
STARTCHAR 00C6
ENCODING 198
SWIDTH 1000 0
DWIDTH 25 0
BBX 19 18 3 0
BITMAP
01FFE0
01C020
01C020
02C020
02C000
02C000
06C000
044200
046200
0C7E00
0FE200
086200
186200
102000
103020
303020
203020
F87FE0
ENDCHAR
STARTCHAR 00D0
ENCODING 208
SWIDTH 960 0
DWIDTH 24 0
BBX 15 18 5 0
BITMAP
7FE0
1830
1818
180C
180C
1806
1806
1806
1806
FF06
1806
1806
1806
180C
180C
1818
1830
7FE0
ENDCHAR
STARTCHAR 00D7
ENCODING 215
SWIDTH 1000 0
DWIDTH 25 0
BBX 13 14 6 2
BITMAP
8008
C010
6020
3040
1880
0D00
0600
0700
0980
10C0
2060
4030
8018
0008
ENDCHAR
STARTCHAR 00D8
ENCODING 216
SWIDTH 960 0
DWIDTH 24 0
BBX 16 18 4 0
BITMAP
07E2
0C3C
381C
301E
6016
6026
C063
C0C3
C083
C183
C303
C603
6406
6C06
780C
3818
3C30
67C0
ENDCHAR
STARTCHAR 00DE
ENCODING 222
SWIDTH 1000 0
DWIDTH 25 0
BBX 13 18 7 0
BITMAP
FC00
3000
3FC0
3070
3038
3018
3018
3018
3038
3070
3FC0
3000
3000
3000
3000
3000
3000
FC00
ENDCHAR
STARTCHAR 00DF
ENCODING 223
SWIDTH 1000 0
DWIDTH 25 0
BBX 14 18 5 0
BITMAP
07C0
0C70
1838
3018
3018
3018
3038
30F0
30F0
3038
301C
300C
300C
300C
320C
3218
3318
E1F0
ENDCHAR
STARTCHAR 00E6
ENCODING 230
SWIDTH 1000 0
DWIDTH 25 0
BBX 19 12 3 0
BITMAP
1F0F00
31B180
60E0C0
606060
004060
3FFFE0
604000
C06000
C06060
C0E060
61B8C0
3F1F80
ENDCHAR
STARTCHAR 00F0
ENCODING 240
SWIDTH 1000 0
DWIDTH 25 0
BBX 11 18 7 0
BITMAP
0040
10C0
0F80
0380
0CC0
1840
1060
0060
1F60
71E0
60E0
C060
C060
C060
C060
60C0
7180
1F00
ENDCHAR
STARTCHAR 00F7
ENCODING 247
SWIDTH 960 0
DWIDTH 24 0
BBX 16 14 4 2
BITMAP
01C0
01C0
0080
0000
0000
0000
FFFF
0000
0000
0000
0000
0080
01C0
01C0
ENDCHAR
STARTCHAR 00F8
ENCODING 248
SWIDTH 1000 0
DWIDTH 25 0
BBX 13 14 6 -1
BITMAP
0008
0FD0
3860
6070
60B8
C118
C218
C618
CC18
F830
7030
78E0
DF80
8000
ENDCHAR
STARTCHAR 00FE
ENCODING 254
SWIDTH 960 0
DWIDTH 24 0
BBX 12 11 6 0
BITMAP
FC00
3000
3F00
30E0
3030
3030
3030
30E0
3F00
3000
FC00
ENDCHAR
STARTCHAR 0111
ENCODING 273
SWIDTH 1000 0
DWIDTH 25 0
BBX 13 18 6 0
BITMAP
01E0
0060
0060
FFF0
0060
0060
0060
1F60
31E0
60E0
C0E0
C060
C060
C060
C060
60E0
31E0
1F38
ENDCHAR
STARTCHAR 0126
ENCODING 294
SWIDTH 960 0
DWIDTH 24 0
BBX 17 18 4 0
BITMAP
7E3F00
180C00
180C00
180C00
FFFF80
180C00
180C00
180C00
180C00
1FFC00
180C00
180C00
180C00
180C00
180C00
180C00
180C00
7E3F00
ENDCHAR
STARTCHAR 0127
ENCODING 295
SWIDTH 960 0
DWIDTH 24 0
BBX 15 18 5 0
BITMAP
7800
1800
1800
1800
FFF0
1800
1800
1BE0
1C30
1818
1818
1818
1818
1818
1818
1818
1818
7E7E
ENDCHAR
STARTCHAR 0131
ENCODING 305
SWIDTH 1000 0
DWIDTH 25 0
BBX 6 11 10 0
BITMAP
F0
30
30
30
30
30
30
30
30
30
FC
ENDCHAR
STARTCHAR 0132
ENCODING 306
SWIDTH 960 0
DWIDTH 24 0
BBX 15 18 5 0
BITMAP
FC7E
3018
3018
3018
3018
3018
3018
3018
3018
3018
3018
3018
3018
3318
3318
3318
3130
FCE0
ENDCHAR
STARTCHAR 0133
ENCODING 307
SWIDTH 1000 0
DWIDTH 25 0
BBX 14 22 6 -4
BITMAP
701C
701C
2008
0000
0000
0000
0000
F078
3018
3018
3018
3018
3018
3018
3018
3018
3018
FC18
0318
0318
0310
01E0
ENDCHAR
STARTCHAR 0138
ENCODING 312
SWIDTH 960 0
DWIDTH 24 0
BBX 13 11 6 0
BITMAP
F0F8
3060
30C0
3180
3200
3F00
3980
31C0
30E0
3070
F8F8
ENDCHAR
STARTCHAR 013F
ENCODING 319
SWIDTH 960 0
DWIDTH 24 0
BBX 15 18 5 0
BITMAP
FC00
3000
3000
3000
3000
3000
3000
3000
3000
3006
3006
3006
3000
3004
3004
3004
300C
FFFC
ENDCHAR
STARTCHAR 0140
ENCODING 320
SWIDTH 1000 0
DWIDTH 25 0
BBX 8 18 9 0
BITMAP
F0
30
30
30
30
30
30
30
37
37
33
30
30
30
30
30
30
FC
ENDCHAR
STARTCHAR 0141
ENCODING 321
SWIDTH 1000 0
DWIDTH 25 0
BBX 17 18 4 0
BITMAP
3F0000
0C0000
0C0000
0C8000
0F8000
3C0000
FC0000
8C0000
0C0000
0C0000
0C0000
0C0000
0C0000
0C0080
0C0100
0C0100
0C0300
3FFF00
ENDCHAR
STARTCHAR 0142
ENCODING 322
SWIDTH 1000 0
DWIDTH 25 0
BBX 8 18 9 0
BITMAP
78
18
18
18
18
18
1B
1E
3C
78
D8
18
18
18
18
18
18
7E
ENDCHAR
STARTCHAR 0149
ENCODING 329
SWIDTH 960 0
DWIDTH 24 0
BBX 18 17 2 1
BITMAP
300000
300000
600000
400000
800000
000000
1EF800
078E00
070700
060300
060300
060300
060300
060300
060300
060300
1F8FC0
ENDCHAR
STARTCHAR 014A
ENCODING 330
SWIDTH 1000 0
DWIDTH 25 0
BBX 16 18 6 0
BITMAP
FC00
3000
3000
33F0
3C18
380C
3006
3003
3003
3003
3003
3007
3007
300E
307E
30FC
30F0
FC00
ENDCHAR
STARTCHAR 014B
ENCODING 331
SWIDTH 1000 0
DWIDTH 25 0
BBX 13 14 6 -4
BITMAP
FFE0
3870
3018
3018
3018
3018
3018
3018
3018
3018
FC18
0018
0118
00F0
ENDCHAR
STARTCHAR 0152
ENCODING 338
SWIDTH 960 0
DWIDTH 24 0
BBX 19 18 2 0
BITMAP
0FBFE0
39F020
30F020
607020
607000
C03000
C03100
C03100
C03F00
C03100
C03100
C03100
C03000
607000
607020
30F020
38F020
0F3FE0
ENDCHAR
STARTCHAR 0153
ENCODING 339
SWIDTH 960 0
DWIDTH 24 0
BBX 19 12 3 0
BITMAP
1F0F00
3199C0
60F0C0
E06060
C06060
C07FE0
C06000
C06000
E06020
60F060
319840
1F0F80
ENDCHAR
STARTCHAR 0166
ENCODING 358
SWIDTH 1000 0
DWIDTH 25 0
BBX 13 18 6 0
BITMAP
FFF8
8608
8608
8608
0600
0600
0600
FFF8
0600
0600
0600
0600
0600
0600
0600
0600
0600
1FC0
ENDCHAR
STARTCHAR 0167
ENCODING 359
SWIDTH 1000 0
DWIDTH 25 0
BBX 10 18 7 0
BITMAP
3000
3C00
7800
F000
3000
FC00
3000
3000
3000
3000
3000
3000
3000
3000
3040
30C0
18C0
0F00
ENDCHAR
STARTCHAR 02C7
ENCODING 711
SWIDTH 1000 0
DWIDTH 25 0
BBX 7 3 9 16
BITMAP
82
6C
38
ENDCHAR
STARTCHAR 02D0
ENCODING 720
SWIDTH 1000 0
DWIDTH 25 0
BBX 4 14 10 1
BITMAP
F0
70
60
20
00
00
00
00
00
00
20
60
70
F0
ENDCHAR
STARTCHAR 02D8
ENCODING 728
SWIDTH 1000 0
DWIDTH 25 0
BBX 7 3 9 17
BITMAP
80
46
38
ENDCHAR
STARTCHAR 02D9
ENCODING 729
SWIDTH 1000 0
DWIDTH 25 0
BBX 3 3 11 17
BITMAP
40
E0
E0
ENDCHAR
STARTCHAR 02DA
ENCODING 730
SWIDTH 960 0
DWIDTH 24 0
BBX 4 4 10 15
BITMAP
60
90
90
60
ENDCHAR
STARTCHAR 02DB
ENCODING 731
SWIDTH 960 0
DWIDTH 24 0
BBX 4 4 10 0
BITMAP
60
C0
C0
70
ENDCHAR
STARTCHAR 02DD
ENCODING 733
SWIDTH 1000 0
DWIDTH 25 0
BBX 6 3 9 16
BITMAP
04
6C
D8
ENDCHAR
STARTCHAR 0391
ENCODING 913
SWIDTH 1000 0
DWIDTH 25 0
BBX 15 17 3 1
BITMAP
0020
0020
0060
0060
00B0
0130
0130
0230
0230
0418
07F8
0818
1818
1018
201C
601C
F87E
ENDCHAR
STARTCHAR 0392
ENCODING 914
SWIDTH 1000 0
DWIDTH 25 0
BBX 17 18 3 0
BITMAP
07FE00
038700
030300
030380
030300
070300
060300
060600
060C00
0FF000
0C0C00
0C0600
0C0600
1C0600
180600
180C00
183800
FFE000
ENDCHAR
STARTCHAR 0393
ENCODING 915
SWIDTH 1000 0
DWIDTH 25 0
BBX 17 18 4 0
BITMAP
0FFF80
030180
030180
060080
060080
060000
060000
0C0000
0C0000
0C0000
0C0000
1C0000
180000
180000
180000
380000
300000
FC0000
ENDCHAR
STARTCHAR 0394
ENCODING 916
SWIDTH 1000 0
DWIDTH 25 0
BBX 15 17 3 1
BITMAP
0010
0010
0030
0058
0058
0098
0118
0318
0218
040C
0C0C
080C
100C
300C
200C
4006
FFFE
ENDCHAR
STARTCHAR 0395
ENCODING 917
SWIDTH 1000 0
DWIDTH 25 0
BBX 16 18 4 0
BITMAP
0FFF
0707
0603
0601
0601
0600
0C10
0C10
0C30
0FE0
1820
1820
1800
1804
300C
3018
3038
FFF0
ENDCHAR
STARTCHAR 0396
ENCODING 918
SWIDTH 1000 0
DWIDTH 25 0
BBX 16 18 4 0
BITMAP
03FF
0706
060C
081C
0038
0030
0060
00C0
01C0
0380
0700
0600
0C00
1800
3808
7030
60F0
FFE0
ENDCHAR
STARTCHAR 0397
ENCODING 919
SWIDTH 1000 0
DWIDTH 25 0
BBX 19 18 3 0
BITMAP
0FE7E0
030180
030300
030300
070300
060300
060600
060600
0E0600
0FFE00
0C0400
0C0C00
1C0C00
180C00
181800
181800
301800
FC7E00
ENDCHAR
STARTCHAR 0398
ENCODING 920
SWIDTH 1000 0
DWIDTH 25 0
BBX 15 18 5 0
BITMAP
00F0
0318
040C
0804
1806
3006
3006
6426
67E6
67EC
480C
C00C
C018
6010
6030
6060
30C0
1F00
ENDCHAR
STARTCHAR 0399
ENCODING 921
SWIDTH 1000 0
DWIDTH 25 0
BBX 11 18 7 0
BITMAP
0FE0
0380
0300
0300
0300
0700
0600
0600
0600
0E00
0C00
0C00
0C00
1C00
1800
1800
3800
FE00
ENDCHAR
STARTCHAR 039A
ENCODING 922
SWIDTH 1000 0
DWIDTH 25 0
BBX 20 18 3 0
BITMAP
0FC3F0
0301C0
030300
030600
060C00
061800
062000
06E000
0DE000
0F7000
0C3000
0C3800
183800
181800
181C00
381C00
301E00
FC7F00
ENDCHAR
STARTCHAR 039B
ENCODING 923
SWIDTH 1000 0
DWIDTH 25 0
BBX 15 17 3 1
BITMAP
0010
0030
0070
0070
00B0
00B0
0130
0318
0218
0418
0418
0818
1818
1018
201C
601C
F87E
ENDCHAR
STARTCHAR 039C
ENCODING 924
SWIDTH 1000 0
DWIDTH 25 0
BBX 24 18 0 0
BITMAP
07C01F
03C03C
02C02C
02C078
02C058
02C098
04C1B8
04C130
04C330
0CE230
08E470
086C60
086860
187860
1070E0
1060C0
1060C0
FC43F0
ENDCHAR
STARTCHAR 039D
ENCODING 925
SWIDTH 1000 0
DWIDTH 25 0
BBX 20 18 3 0
BITMAP
0F01F0
0300C0
030080
078080
058080
05C180
04C100
0CE100
086100
087200
087200
183200
103A00
101C00
101C00
300C00
200C00
F80000
ENDCHAR
STARTCHAR 039E
ENCODING 926
SWIDTH 1000 0
DWIDTH 25 0
BBX 18 18 4 0
BITMAP
0FFFC0
0FFFC0
080080
100080
000000
000000
000000
000000
040000
0FF800
000000
000000
000000
000000
400600
C00400
FFFC00
FFFC00
ENDCHAR
STARTCHAR 039F
ENCODING 927
SWIDTH 1000 0
DWIDTH 25 0
BBX 14 18 6 0
BITMAP
01E0
0630
0C18
1818
3008
200C
600C
6008
C018
C018
C018
C030
C030
C060
C040
40C0
6300
3E00
ENDCHAR
STARTCHAR 03A0
ENCODING 928
SWIDTH 1000 0
DWIDTH 25 0
BBX 19 18 3 0
BITMAP
0FFFE0
038180
030180
030180
060300
060300
060300
060300
0C0600
0C0600
0C0600
0C0600
180C00
180C00
180C00
180C00
381C00
FC7E00
ENDCHAR
STARTCHAR 03A1
ENCODING 929
SWIDTH 1000 0
DWIDTH 25 0
BBX 16 18 3 0
BITMAP
07FC
0387
0303
0303
0303
0703
0603
0606
060C
0FF0
0C00
0C00
0C00
1C00
1800
1800
1800
FE00
ENDCHAR
STARTCHAR 03A3
ENCODING 931
SWIDTH 1000 0
DWIDTH 25 0
BBX 18 18 2 0
BITMAP
07FFC0
0380C0
038040
01C000
01C000
00E000
00E000
007000
007000
006000
00C000
018000
020000
0C0000
180200
300600
7FFC00
FFFC00
ENDCHAR
STARTCHAR 03A4
ENCODING 932
SWIDTH 1000 0
DWIDTH 25 0
BBX 15 18 6 0
BITMAP
3FFE
6186
C182
8302
0300
0300
0300
0600
0600
0600
0600
0C00
0C00
0C00
0C00
1800
1800
7E00
ENDCHAR
STARTCHAR 03A5
ENCODING 933
SWIDTH 1000 0
DWIDTH 25 0
BBX 15 18 7 0
BITMAP
7E3E
3818
3010
3830
1860
1840
1880
1D00
0F00
0E00
0C00
0C00
0C00
1800
1800
1800
1800
FC00
ENDCHAR
STARTCHAR 03A6
ENCODING 934
SWIDTH 1000 0
DWIDTH 25 0
BBX 15 18 5 0
BITMAP
03F8
00E0
00C0
07F8
1CCC
30C6
6186
6186
C186
C186
C306
C30C
E318
7370
3FC0
0600
0E00
3F80
ENDCHAR
STARTCHAR 03A7
ENCODING 935
SWIDTH 1000 0
DWIDTH 25 0
BBX 19 18 3 0
BITMAP
0FE7E0
078380
038200
038600
018C00
01C800
01D000
00E000
00E000
00E000
016000
027000
067000
0C3000
083800
103800
303800
F8FE00
ENDCHAR
STARTCHAR 03A8
ENCODING 936
SWIDTH 1000 0
DWIDTH 25 0
BBX 16 18 5 0
BITMAP
03F0
00C0
00C0
0180
F187
718E
718C
630C
630C
6318
C318
C718
E638
7FE0
0600
0C00
0C00
3F00
ENDCHAR
STARTCHAR 03A9
ENCODING 937
SWIDTH 1000 0
DWIDTH 25 0
BBX 16 18 4 0
BITMAP
007C
00C6
0387
0703
0603
0C03
0C03
0C03
1807
1806
1C0C
0C0C
0410
0260
4242
4246
7EFC
FCFC
ENDCHAR
STARTCHAR 03B1
ENCODING 945
SWIDTH 1000 0
DWIDTH 25 0
BBX 10 12 7 0
BITMAP
0E00
3340
2140
61C0
4180
C180
C180
C300
C200
C600
4F00
3B80
ENDCHAR
STARTCHAR 03B2
ENCODING 946
SWIDTH 960 0
DWIDTH 24 0
BBX 13 22 6 -5
BITMAP
01E0
0330
0218
0418
0418
0818
0818
0830
1760
10C0
1040
3060
2060
2060
6060
70C0
5980
CF00
C000
C000
C000
8000
ENDCHAR
STARTCHAR 03B3
ENCODING 947
SWIDTH 960 0
DWIDTH 24 0
BBX 11 16 7 -4
BITMAP
3000
7860
CC60
04C0
0580
0500
0700
0600
0400
0400
0800
1800
1800
3000
3000
2000
ENDCHAR
STARTCHAR 03B4
ENCODING 948
SWIDTH 1000 0
DWIDTH 25 0
BBX 12 18 7 0
BITMAP
1C00
1300
11C0
08E0
0470
0200
1F00
3300
7180
6180
E180
C180
C180
C300
C300
C600
4400
3800
ENDCHAR
STARTCHAR 03B5
ENCODING 949
SWIDTH 1000 0
DWIDTH 25 0
BBX 8 12 8 0
BITMAP
1C
3F
61
40
40
7C
C0
80
80
C1
7E
3C
ENDCHAR
STARTCHAR 03B6
ENCODING 950
SWIDTH 1000 0
DWIDTH 25 0
BBX 11 20 7 -2
BITMAP
1800
3000
30E0
33C0
1F00
0800
1000
3000
2000
4000
4000
C000
C000
E000
FC00
1E00
0200
0200
6200
7C00
ENDCHAR
STARTCHAR 03B7
ENCODING 951
SWIDTH 1000 0
DWIDTH 25 0
BBX 10 15 7 -4
BITMAP
7380
9C40
1840
1840
10C0
3080
2080
6180
6100
4100
4300
0200
0600
0600
0400
ENDCHAR
STARTCHAR 03B8
ENCODING 952
SWIDTH 960 0
DWIDTH 24 0
BBX 10 18 7 0
BITMAP
0700
0C80
1840
1840
3040
3040
60C0
60C0
6080
FF80
C180
C180
8100
8300
8200
8400
CC00
7800
ENDCHAR
STARTCHAR 03B9
ENCODING 953
SWIDTH 1000 0
DWIDTH 25 0
BBX 5 12 9 1
BITMAP
10
18
30
30
60
60
40
C0
80
88
F0
E0
ENDCHAR
STARTCHAR 03BA
ENCODING 954
SWIDTH 1000 0
DWIDTH 25 0
BBX 10 11 8 -1
BITMAP
3800
38C0
0980
0B00
1E00
1E00
1C00
3400
2400
6480
C700
ENDCHAR
STARTCHAR 03BB
ENCODING 955
SWIDTH 960 0
DWIDTH 24 0
BBX 10 18 7 -1
BITMAP
1C00
1E00
0600
0600
0200
0200
0200
0600
0600
0A00
1A00
1200
3200
3300
6100
6180
C1C0
C0C0
ENDCHAR
STARTCHAR 03BC
ENCODING 956
SWIDTH 1000 0
DWIDTH 25 0
BBX 14 15 5 -4
BITMAP
0204
060C
060C
0C1C
0C18
1C18
1838
1830
1020
3060
28E0
6F38
4000
C000
C000
ENDCHAR
STARTCHAR 03BD
ENCODING 957
SWIDTH 960 0
DWIDTH 24 0
BBX 9 11 7 0
BITMAP
4080
6080
6080
6080
6100
6100
4200
4600
5C00
F800
E000
ENDCHAR
STARTCHAR 03BE
ENCODING 958
SWIDTH 960 0
DWIDTH 24 0
BBX 10 21 7 -4
BITMAP
0700
0800
0F80
1FC0
3000
2000
2000
2000
1F80
3F80
4000
8000
8000
8000
C000
7C00
0600
0200
6200
6200
3C00
ENDCHAR
STARTCHAR 03BF
ENCODING 959
SWIDTH 960 0
DWIDTH 24 0
BBX 8 12 8 0
BITMAP
0E
32
21
61
C1
C3
83
82
86
84
8C
70
ENDCHAR
STARTCHAR 03C0
ENCODING 960
SWIDTH 1000 0
DWIDTH 25 0
BBX 12 11 7 0
BITMAP
3FF0
7FE0
0980
1100
1100
1100
2300
2200
6200
C200
8380
ENDCHAR
STARTCHAR 03C1
ENCODING 961
SWIDTH 1000 0
DWIDTH 25 0
BBX 11 15 8 -4
BITMAP
03C0
0660
0C60
1860
1860
3060
30E0
30C0
71C0
5380
4E00
C000
C000
C000
C000
ENDCHAR
STARTCHAR 03C3
ENCODING 963
SWIDTH 1000 0
DWIDTH 25 0
BBX 11 11 7 1
BITMAP
1FE0
3340
6180
6180
C180
C180
8300
8300
8600
CC00
7800
ENDCHAR
STARTCHAR 03C4
ENCODING 964
SWIDTH 1000 0
DWIDTH 25 0
BBX 10 12 8 1
BITMAP
7FC0
FF80
0800
1800
1000
3000
3000
2000
6000
6000
3C00
3800
ENDCHAR
STARTCHAR 03C5
ENCODING 965
SWIDTH 960 0
DWIDTH 24 0
BBX 9 12 7 0
BITMAP
0100
6180
6180
6180
4180
4180
C180
8300
8600
8600
8C00
7000
ENDCHAR
STARTCHAR 03C6
ENCODING 966
SWIDTH 1000 0
DWIDTH 25 0
BBX 12 21 7 -3
BITMAP
00C0
00C0
00C0
0180
0180
0F80
3BE0
6360
6230
C630
C630
C430
CC60
CCE0
6980
1F00
1800
1000
3000
3000
3000
ENDCHAR
STARTCHAR 03C7
ENCODING 967
SWIDTH 1000 0
DWIDTH 25 0
BBX 11 15 7 -3
BITMAP
3820
7860
0C60
04C0
0580
0700
0600
0600
0C00
1C00
1400
3400
6400
C600
8380
ENDCHAR
STARTCHAR 03C8
ENCODING 968
SWIDTH 1000 0
DWIDTH 25 0
BBX 13 21 6 -3
BITMAP
0060
00E0
00C0
00C0
0080
0980
3198
6118
4318
C218
C210
C630
C420
6460
7CC0
1F00
1800
1800
3000
3000
3000
ENDCHAR
STARTCHAR 03C9
ENCODING 969
SWIDTH 960 0
DWIDTH 24 0
BBX 14 12 5 1
BITMAP
0810
1008
300C
610C
630C
C30C
C30C
C20C
C218
C618
4630
79E0
ENDCHAR
STARTCHAR 0401
ENCODING 1025
SWIDTH 960 0
DWIDTH 24 0
BBX 14 20 5 0
BITMAP
18C0
18C0
FFF0
3070
3018
3008
3008
3000
3040
3040
30C0
3FC0
30C0
3040
3000
3004
3008
3018
3038
FFF0
ENDCHAR
STARTCHAR 0410
ENCODING 1040
SWIDTH 920 0
DWIDTH 23 0
BBX 15 17 4 1
BITMAP
0300
0300
0380
0580
0480
04C0
08C0
08C0
0860
1060
1FE0
1030
3030
2030
2018
6018
F87E
ENDCHAR
STARTCHAR 0411
ENCODING 1041
SWIDTH 1000 0
DWIDTH 25 0
BBX 15 18 5 0
BITMAP
FFF8
3018
300C
3006
3002
3000
3000
3FF0
3038
300C
300E
3006
3006
3006
300E
300C
3018
FFF0
ENDCHAR
STARTCHAR 0412
ENCODING 1042
SWIDTH 1000 0
DWIDTH 25 0
BBX 14 18 5 0
BITMAP
FFC0
3870
3030
3018
3018
3018
3018
3030
3060
3FC0
3030
3018
300C
300C
300C
301C
3838
FFE0
ENDCHAR
STARTCHAR 0413
ENCODING 1043
SWIDTH 1000 0
DWIDTH 25 0
BBX 17 18 5 0
BITMAP
FFFE00
300600
300300
300100
300080
300000
300000
300000
300000
300000
300000
300000
300000
300000
300000
300000
300000
FE0000
ENDCHAR
STARTCHAR 0414
ENCODING 1044
SWIDTH 960 0
DWIDTH 24 0
BBX 19 20 2 -2
BITMAP
07FF80
008600
008600
008600
008600
008600
018600
018600
010600
010600
030600
030600
020600
060600
040600
0C0600
1C0F00
3FFFC0
E000E0
C00060
ENDCHAR
STARTCHAR 0415
ENCODING 1045
SWIDTH 1000 0
DWIDTH 25 0
BBX 14 18 5 0
BITMAP
FFF0
3038
3018
3008
3004
3000
3040
3040
30C0
3FC0
30C0
3040
3000
3004
300C
3008
3038
FFF8
ENDCHAR
STARTCHAR 0416
ENCODING 1046
SWIDTH 1040 0
DWIDTH 26 0
BBX 22 18 2 0
BITMAP
71FC70
F86070
7860F0
046080
046180
046100
026300
026200
03FE00
026200
046100
046100
0C6080
086080
186040
106040
306060
FDFCFC
ENDCHAR
STARTCHAR 0417
ENCODING 1047
SWIDTH 960 0
DWIDTH 24 0
BBX 14 18 5 0
BITMAP
1F80
30C0
6060
C030
C030
0030
0030
0070
0FE0
0078
0018
000C
000C
800C
801C
C018
F070
1FC0
ENDCHAR
STARTCHAR 0418
ENCODING 1048
SWIDTH 1000 0
DWIDTH 25 0
BBX 18 18 3 0
BITMAP
FE1FC0
300600
300600
300E00
301E00
303600
302600
304600
30C600
318600
310600
320600
360600
3C0600
380600
300600
300700
FE1FC0
ENDCHAR
STARTCHAR 0419
ENCODING 1049
SWIDTH 1000 0
DWIDTH 25 0
BBX 18 19 3 1
BITMAP
061800
061800
023000
01E000
FE1FC0
300600
300E00
301E00
301600
302600
304600
308600
310600
320600
340600
380600
300600
300600
FE1FC0
ENDCHAR
STARTCHAR 041A
ENCODING 1050
SWIDTH 1000 0
DWIDTH 25 0
BBX 18 18 4 0
BITMAP
FE0700
380F80
301980
301000
302000
302000
306000
30C000
3FC000
306000
307000
303000
301800
300C00
300C00
300600
380700
FE0FC0
ENDCHAR
STARTCHAR 041B
ENCODING 1051
SWIDTH 1000 0
DWIDTH 25 0
BBX 18 18 3 0
BITMAP
0FFFC0
038E00
030600
030600
030600
030600
030600
030600
030600
030600
030600
030600
030600
C30600
C30600
C30600
660600
3C1FC0
ENDCHAR
STARTCHAR 041C
ENCODING 1052
SWIDTH 960 0
DWIDTH 24 0
BBX 22 18 1 0
BITMAP
1F07C0
070700
070700
078B00
098B80
098980
098980
098980
09D1C0
10D0C0
10D0C0
10D0C0
10F0C0
1060E0
206060
206060
206060
F801FC
ENDCHAR
STARTCHAR 041D
ENCODING 1053
SWIDTH 1000 0
DWIDTH 25 0
BBX 15 18 5 0
BITMAP
FC7E
3018
3018
3018
3018
3018
3018
3018
3018
3FF8
3018
3018
3018
3018
3018
3018
3018
FC7E
ENDCHAR
STARTCHAR 041E
ENCODING 1054
SWIDTH 1000 0
DWIDTH 25 0
BBX 18 18 3 0
BITMAP
03F000
0E1C00
180600
300300
600180
600180
C000C0
C000C0
C000C0
C000C0
C000C0
C000C0
600180
600180
300300
180600
0E1C00
03F000
ENDCHAR
STARTCHAR 041F
ENCODING 1055
SWIDTH 1000 0
DWIDTH 25 0
BBX 18 18 3 0
BITMAP
FFFFC0
300600
300600
300600
300600
300600
300600
300600
300600
300600
300600
300600
300600
300600
300600
300600
300600
FE1FC0
ENDCHAR
STARTCHAR 0420
ENCODING 1056
SWIDTH 1000 0
DWIDTH 25 0
BBX 13 18 5 0
BITMAP
FFC0
30E0
3030
3018
3018
3018
3018
3030
3070
3FC0
3000
3000
3000
3000
3000
3000
3000
FC00
ENDCHAR
STARTCHAR 0421
ENCODING 1057
SWIDTH 960 0
DWIDTH 24 0
BBX 16 18 4 0
BITMAP
03E0
0C18
180C
300E
6006
6006
C000
C000
C000
C000
C000
C000
6001
6003
3003
1807
0C1D
03F0
ENDCHAR
STARTCHAR 0422
ENCODING 1058
SWIDTH 960 0
DWIDTH 24 0
BBX 16 18 4 0
BITMAP
3FFE
6186
4182
4182
8181
0180
0180
0180
0180
0180
0180
0180
0180
0180
0180
0180
0180
07E0
ENDCHAR
STARTCHAR 0423
ENCODING 1059
SWIDTH 1000 0
DWIDTH 25 0
BBX 14 18 6 0
BITMAP
FC7C
3010
3810
1820
1820
1C60
0C40
0E40
0680
0780
0700
0300
0300
0200
0600
6400
7C00
7800
ENDCHAR
STARTCHAR 0424
ENCODING 1060
SWIDTH 960 0
DWIDTH 24 0
BBX 16 18 4 0
BITMAP
07F0
01C0
0180
0180
1FF8
399E
6186
E187
C183
C183
C183
6187
7186
399C
0FF8
0180
0180
07F0
ENDCHAR
STARTCHAR 0425
ENCODING 1061
SWIDTH 1000 0
DWIDTH 25 0
BBX 15 18 5 0
BITMAP
FE7E
3818
3810
1C30
0C20
0E40
0680
0380
0300
0180
03C0
04C0
04E0
0870
1830
3038
301C
FCFE
ENDCHAR
STARTCHAR 0426
ENCODING 1062
SWIDTH 1000 0
DWIDTH 25 0
BBX 18 20 4 -3
BITMAP
FE1FC0
300600
300600
300600
300600
300600
300600
300600
300600
300600
300600
300600
300600
300600
300600
300600
300600
FFFF00
000380
0001C0
ENDCHAR
STARTCHAR 0427
ENCODING 1063
SWIDTH 1000 0
DWIDTH 25 0
BBX 17 18 4 0
BITMAP
FC3F80
300C00
300C00
300C00
300C00
300C00
300C00
300C00
300C00
300C00
381C00
0FEC00
000C00
000C00
000C00
000C00
000E00
003F80
ENDCHAR
STARTCHAR 0428
ENCODING 1064
SWIDTH 960 0
DWIDTH 24 0
BBX 20 18 2 0
BITMAP
FDFFF0
3060C0
3060C0
3060C0
3060C0
3060C0
3060C0
3060C0
3060C0
3060C0
3060C0
3060C0
3060C0
3060C0
3060C0
3060C0
3060C0
FFFFF0
ENDCHAR
STARTCHAR 0429
ENCODING 1065
SWIDTH 960 0
DWIDTH 24 0
BBX 20 20 2 -3
BITMAP
FDFBF0
3060C0
3060C0
3060C0
3060C0
3060C0
3060C0
3060C0
3060C0
3060C0
3060C0
3060C0
3060C0
3060C0
3060C0
3060C0
3060C0
FFFFE0
000070
000010
ENDCHAR
STARTCHAR 042A
ENCODING 1066
SWIDTH 960 0
DWIDTH 24 0
BBX 19 18 2 0
BITMAP
3FF000
318000
418000
418000
818000
018000
018000
018000
01FF00
0181C0
0180E0
018060
018060
018060
018060
0180E0
0181C0
07FF00
ENDCHAR
STARTCHAR 042B
ENCODING 1067
SWIDTH 960 0
DWIDTH 24 0
BBX 18 18 3 0
BITMAP
FE0FC0
300300
300300
300300
300300
300300
300300
300300
3FC300
307300
303300
301B00
301B00
301B00
301B00
303300
307300
FFCFC0
ENDCHAR
STARTCHAR 042C
ENCODING 1068
SWIDTH 1000 0
DWIDTH 25 0
BBX 15 18 5 0
BITMAP
FE00
3000
3000
3000
3000
3000
3000
3000
3FF0
301C
300C
3006
3006
3006
3006
300C
3018
FFF0
ENDCHAR
STARTCHAR 042D
ENCODING 1069
SWIDTH 1000 0
DWIDTH 25 0
BBX 14 18 5 0
BITMAP
1F80
3060
7030
E038
E018
001C
000C
001C
0FFC
3FFC
000C
000C
000C
0018
C018
E030
7060
1F80
ENDCHAR
STARTCHAR 042E
ENCODING 1070
SWIDTH 1000 0
DWIDTH 25 0
BBX 20 18 3 0
BITMAP
FC1F00
303180
3060C0
30C060
30C060
318020
318030
318030
3F8030
318030
318030
318030
318030
30C060
30C060
3060C0
303180
FC1F00
ENDCHAR
STARTCHAR 042F
ENCODING 1071
SWIDTH 1040 0
DWIDTH 26 0
BBX 16 19 4 -1
BITMAP
1FFF
3818
6018
C018
C018
C018
C018
6018
7018
1FF8
0618
0618
0E18
0C18
1C18
3818
701C
F07F
C000
ENDCHAR
STARTCHAR 0430
ENCODING 1072
SWIDTH 1000 0
DWIDTH 25 0
BBX 13 12 5 0
BITMAP
1F00
70C0
6060
4060
1FE0
70E0
6060
C060
C060
C0E0
61F8
3E38
ENDCHAR
STARTCHAR 0431
ENCODING 1073
SWIDTH 1000 0
DWIDTH 25 0
BBX 12 18 6 1
BITMAP
0010
0070
0FE0
1F80
3000
6000
4000
CF80
F0C0
E060
E030
C030
C030
C030
4030
6060
30C0
1F80
ENDCHAR
STARTCHAR 0432
ENCODING 1074
SWIDTH 960 0
DWIDTH 24 0
BBX 12 11 6 0
BITMAP
FFC0
3060
3030
3030
3060
3FC0
3070
3030
3030
3070
FFC0
ENDCHAR
STARTCHAR 0433
ENCODING 1075
SWIDTH 1000 0
DWIDTH 25 0
BBX 13 11 6 0
BITMAP
FFE0
3010
3008
3000
3000
3000
3000
3000
3000
3000
F800
ENDCHAR
STARTCHAR 0434
ENCODING 1076
SWIDTH 1000 0
DWIDTH 25 0
BBX 15 12 5 -1
BITMAP
0FFC
0230
0230
0230
0230
0630
0430
0C30
0830
1830
7FFE
C006
ENDCHAR
STARTCHAR 0435
ENCODING 1077
SWIDTH 1000 0
DWIDTH 25 0
BBX 12 11 6 0
BITMAP
1F00
30C0
6060
C060
FFF0
C000
C000
E030
6060
30E0
1F80
ENDCHAR
STARTCHAR 0436
ENCODING 1078
SWIDTH 960 0
DWIDTH 24 0
BBX 17 11 4 0
BITMAP
E3E380
D18580
118C00
198800
0D9800
0FF000
099800
198800
318400
218200
F3E780
ENDCHAR
STARTCHAR 0437
ENCODING 1079
SWIDTH 960 0
DWIDTH 24 0
BBX 11 12 6 0
BITMAP
3F00
6180
C0C0
C0C0
01C0
1F80
00C0
0060
8060
8060
E0C0
3F00
ENDCHAR
STARTCHAR 0438
ENCODING 1080
SWIDTH 960 0
DWIDTH 24 0
BBX 15 11 4 0
BITMAP
FC7E
3018
3018
3038
30D8
3118
3218
3C18
3018
3018
FC7E
ENDCHAR
STARTCHAR 0439
ENCODING 1081
SWIDTH 1000 0
DWIDTH 25 0
BBX 16 16 4 1
BITMAP
0C30
0C30
03C0
0000
0000
FC3F
3018
3018
3038
30D8
3198
3618
3C18
3018
3018
FC3F
ENDCHAR
STARTCHAR 043A
ENCODING 1082
SWIDTH 960 0
DWIDTH 24 0
BBX 14 12 5 0
BITMAP
0018
707C
30CC
3080
3100
3F00
3380
31C0
30C0
3060
3030
F87C
ENDCHAR
STARTCHAR 043B
ENCODING 1083
SWIDTH 1000 0
DWIDTH 25 0
BBX 14 12 5 0
BITMAP
1FFC
0630
0630
0630
0630
0630
0630
0630
C630
C630
C430
387C
ENDCHAR
STARTCHAR 043C
ENCODING 1084
SWIDTH 960 0
DWIDTH 24 0
BBX 16 11 4 0
BITMAP
F81F
381C
3C3C
2C2C
2E2C
264C
274C
238C
238C
230C
F93F
ENDCHAR
STARTCHAR 043D
ENCODING 1085
SWIDTH 960 0
DWIDTH 24 0
BBX 15 11 4 0
BITMAP
FC7E
3018
3018
3018
3018
3FF8
3018
3018
3018
3018
FC7E
ENDCHAR
STARTCHAR 043E
ENCODING 1086
SWIDTH 960 0
DWIDTH 24 0
BBX 13 12 5 0
BITMAP
0F80
30E0
6030
4030
C018
C018
C018
C018
6030
6030
30E0
0F80
ENDCHAR
STARTCHAR 043F
ENCODING 1087
SWIDTH 960 0
DWIDTH 24 0
BBX 14 11 5 0
BITMAP
FFFC
3030
3030
3030
3030
3030
3030
3030
3030
3030
FC7C
ENDCHAR
STARTCHAR 0440
ENCODING 1088
SWIDTH 960 0
DWIDTH 24 0
BBX 13 16 5 -3
BITMAP
37C0
FC60
3830
3038
3018
3018
3018
3018
3018
3030
3C60
37C0
3000
3000
3000
FC00
ENDCHAR
STARTCHAR 0441
ENCODING 1089
SWIDTH 1000 0
DWIDTH 25 0
BBX 12 12 5 0
BITMAP
0F80
3860
6020
E010
C000
C000
C000
C000
C010
6030
3070
0F80
ENDCHAR
STARTCHAR 0442
ENCODING 1090
SWIDTH 1000 0
DWIDTH 25 0
BBX 13 11 6 0
BITMAP
7FE0
4630
8608
0600
0600
0600
0600
0600
0600
0600
1FC0
ENDCHAR
STARTCHAR 0443
ENCODING 1091
SWIDTH 960 0
DWIDTH 24 0
BBX 14 15 5 -3
BITMAP
F83C
7018
3010
1820
1820
0C40
0C40
0680
0380
0380
0100
3100
3200
3200
1C00
ENDCHAR
STARTCHAR 0444
ENCODING 1092
SWIDTH 1000 0
DWIDTH 25 0
BBX 13 17 6 -3
BITMAP
0FC0
0300
0300
3FE0
6330
C318
C318
C318
C318
C318
C318
C318
6330
3FE0
0300
0300
0FC0
ENDCHAR
STARTCHAR 0445
ENCODING 1093
SWIDTH 1000 0
DWIDTH 25 0
BBX 14 11 5 0
BITMAP
FC7C
3030
1860
0CC0
0780
0300
0780
09C0
10E0
2070
F0FC
ENDCHAR
STARTCHAR 0446
ENCODING 1094
SWIDTH 1000 0
DWIDTH 25 0
BBX 14 12 5 -2
BITMAP
F8FC
3030
3030
3030
3030
3030
3030
3030
3030
3030
FFF8
001C
ENDCHAR
STARTCHAR 0447
ENCODING 1095
SWIDTH 1000 0
DWIDTH 25 0
BBX 14 11 5 0
BITMAP
FCFC
3030
3030
3030
3030
3870
1FF0
0030
0030
0030
00FC
ENDCHAR
STARTCHAR 0448
ENCODING 1096
SWIDTH 960 0
DWIDTH 24 0
BBX 17 11 3 0
BITMAP
FBEF80
30C300
30C300
30C300
30C300
30C300
30C300
30C300
30C300
30C300
FFFF80
ENDCHAR
STARTCHAR 0449
ENCODING 1097
SWIDTH 960 0
DWIDTH 24 0
BBX 18 13 3 -2
BITMAP
FBEF80
30C300
30C300
30C300
30C300
30C300
30C300
30C300
30C300
30C300
FFFF80
0001C0
000080
ENDCHAR
STARTCHAR 044A
ENCODING 1098
SWIDTH 1000 0
DWIDTH 25 0
BBX 16 11 5 0
BITMAP
7FC0
C600
8600
0600
0600
07FC
0607
0603
0603
0607
1FFC
ENDCHAR
STARTCHAR 044B
ENCODING 1099
SWIDTH 1000 0
DWIDTH 25 0
BBX 18 11 4 0
BITMAP
FC0FC0
300300
300300
300300
3F8300
30C300
306300
306300
306300
30C300
FF8FC0
ENDCHAR
STARTCHAR 044C
ENCODING 1100
SWIDTH 1000 0
DWIDTH 25 0
BBX 13 11 8 0
BITMAP
FE00
3000
3000
3000
3000
3FE0
3038
3018
3018
3038
FFE0
ENDCHAR
STARTCHAR 044D
ENCODING 1101
SWIDTH 960 0
DWIDTH 24 0
BBX 11 12 6 0
BITMAP
1F00
6180
C0C0
C0E0
0060
10E0
3FE0
0060
0060
C0C0
E180
3F00
ENDCHAR
STARTCHAR 044E
ENCODING 1102
SWIDTH 1000 0
DWIDTH 25 0
BBX 16 12 3 0
BITMAP
F878
31CC
3186
3303
3303
3303
3F03
3303
3303
3386
31CC
F8F8
ENDCHAR
STARTCHAR 044F
ENCODING 1103
SWIDTH 1000 0
DWIDTH 25 0
BBX 12 12 6 0
BITMAP
1FF0
70C0
C0C0
C0C0
C0C0
60C0
3FC0
18C0
10C0
30C0
60C0
41F0
ENDCHAR
STARTCHAR 0451
ENCODING 1105
SWIDTH 1000 0
DWIDTH 25 0
BBX 12 16 6 0
BITMAP
30C0
30C0
3040
0000
0000
1F00
30C0
6060
C060
FFF0
C000
C000
E030
6060
30E0
1F80
ENDCHAR
STARTCHAR 2015
ENCODING 8213
SWIDTH 960 0
DWIDTH 24 0
BBX 22 1 1 8
BITMAP
FFFFFC
ENDCHAR
STARTCHAR 2018
ENCODING 8216
SWIDTH 960 0
DWIDTH 24 0
BBX 4 6 15 14
BITMAP
20
40
E0
F0
F0
60
ENDCHAR
STARTCHAR 2019
ENCODING 8217
SWIDTH 1000 0
DWIDTH 25 0
BBX 4 7 6 10
BITMAP
60
F0
F0
70
20
40
80
ENDCHAR
STARTCHAR 201C
ENCODING 8220
SWIDTH 1000 0
DWIDTH 25 0
BBX 9 7 13 13
BITMAP
1080
2100
4200
E700
F780
F780
6300
ENDCHAR
STARTCHAR 201D
ENCODING 8221
SWIDTH 960 0
DWIDTH 24 0
BBX 8 7 3 10
BITMAP
63
F7
F7
73
21
42
84
ENDCHAR
STARTCHAR 2020
ENCODING 8224
SWIDTH 960 0
DWIDTH 24 0
BBX 16 22 4 -2
BITMAP
0100
0100
0100
0100
0100
0100
FFFF
0100
0100
0100
0100
0100
0100
0100
0100
0100
0100
0100
0100
0100
0100
0100
ENDCHAR
STARTCHAR 2021
ENCODING 8225
SWIDTH 1000 0
DWIDTH 25 0
BBX 16 22 5 -2
BITMAP
0100
0100
0100
0100
0100
FFFF
0100
0100
0100
0100
FFFF
0100
0100
0100
0100
0100
0100
0100
0100
0100
0100
0100
ENDCHAR
STARTCHAR 2025
ENCODING 8229
SWIDTH 960 0
DWIDTH 24 0
BBX 16 3 4 7
BITMAP
4002
E007
E007
ENDCHAR
STARTCHAR 2026
ENCODING 8230
SWIDTH 960 0
DWIDTH 24 0
BBX 19 3 2 8
BITMAP
604060
E0E0E0
E0E0E0
ENDCHAR
STARTCHAR 2030
ENCODING 8240
SWIDTH 960 0
DWIDTH 24 0
BBX 22 19 1 1
BITMAP
380080
440100
820300
820600
820400
820800
861000
442000
384000
008000
010000
023870
0624C8
0C4284
184284
104284
204284
4064C8
803870
ENDCHAR
STARTCHAR 2032
ENCODING 8242
SWIDTH 1000 0
DWIDTH 25 0
BBX 5 8 5 9
BITMAP
18
18
30
20
60
40
80
80
ENDCHAR
STARTCHAR 2033
ENCODING 8243
SWIDTH 1000 0
DWIDTH 25 0
BBX 8 10 3 8
BITMAP
10
33
33
22
66
44
48
88
90
10
ENDCHAR
STARTCHAR 203B
ENCODING 8251
SWIDTH 960 0
DWIDTH 24 0
BBX 16 16 4 0
BITMAP
8181
43C2
23C4
1188
0810
0420
6246
F18F
F18F
6246
0420
0810
1188
23C4
43C2
8181
ENDCHAR
STARTCHAR 2074
ENCODING 8308
SWIDTH 960 0
DWIDTH 24 0
BBX 5 8 3 12
BITMAP
10
30
30
70
F0
F8
30
38
ENDCHAR
STARTCHAR 207F
ENCODING 8319
SWIDTH 1000 0
DWIDTH 25 0
BBX 7 7 3 11
BITMAP
78
6C
6C
6C
6C
6C
EE
ENDCHAR
STARTCHAR 2081
ENCODING 8321
SWIDTH 960 0
DWIDTH 24 0
BBX 5 8 4 -2
BITMAP
E0
60
60
60
60
60
60
F8
ENDCHAR
STARTCHAR 2082
ENCODING 8322
SWIDTH 1000 0
DWIDTH 25 0
BBX 5 8 4 -3
BITMAP
70
98
D8
18
30
40
88
F8
ENDCHAR
STARTCHAR 2083
ENCODING 8323
SWIDTH 1000 0
DWIDTH 25 0
BBX 5 8 4 -1
BITMAP
F0
98
18
70
18
18
98
F0
ENDCHAR
STARTCHAR 2084
ENCODING 8324
SWIDTH 960 0
DWIDTH 24 0
BBX 5 8 3 -2
BITMAP
10
30
30
70
F0
F8
30
38
ENDCHAR
STARTCHAR 20A9
ENCODING 8361
SWIDTH 1000 0
DWIDTH 25 0
BBX 0 0 0 0
BITMAP
ENDCHAR
STARTCHAR 2103
ENCODING 8451
SWIDTH 1000 0
DWIDTH 25 0
BBX 19 18 1 0
BITMAP
783E00
8461C0
8480C0
CD0040
7B0040
020000
060000
060000
060000
060000
060000
060000
030000
030000
010020
018040
00E180
003E00
ENDCHAR
STARTCHAR 2109
ENCODING 8457
SWIDTH 1000 0
DWIDTH 25 0
BBX 20 19 1 0
BITMAP
780000
CCFFF0
846030
846010
CC6010
786000
006000
006040
006040
006040
007FC0
006040
006000
006000
006000
006000
006000
006000
00F800
ENDCHAR
STARTCHAR 2113
ENCODING 8467
SWIDTH 1000 0
DWIDTH 25 0
BBX 5 18 10 0
BITMAP
20
E0
60
60
60
60
60
60
60
60
60
60
60
60
60
60
60
F8
ENDCHAR
STARTCHAR 2116
ENCODING 8470
SWIDTH 1000 0
DWIDTH 25 0
BBX 21 18 2 0
BITMAP
E0F000
304000
304000
384000
284000
2C4000
2C4700
244880
2658C0
225060
237060
217060
21F060
21F060
20F040
20D8D0
6048B8
F04738
ENDCHAR
STARTCHAR 2121
ENCODING 8481
SWIDTH 960 0
DWIDTH 24 0
BBX 20 18 1 1
BITMAP
7FC020
664060
466020
862020
862020
060020
060020
061C20
066620
064320
06C320
06FF20
06C020
06C020
06C020
066120
066220
1F3C70
ENDCHAR
STARTCHAR 2122
ENCODING 8482
SWIDTH 1000 0
DWIDTH 25 0
BBX 23 18 1 0
BITMAP
7FDC1E
4C6C38
8C2C38
8C0E38
0C0A38
0C0A58
0C0A58
0C0A58
0C0B58
0C0B58
0C0958
0C0998
0C0998
0C0998
0C0998
0C0998
0C0898
1F1C3E
ENDCHAR
STARTCHAR 2126
ENCODING 8486
SWIDTH 960 0
DWIDTH 24 0
BBX 16 18 4 0
BITMAP
07E0
0C30
1818
300C
700E
6006
6006
6006
6006
6006
6006
3006
300C
8809
8C11
C411
FC1F
7C1F
ENDCHAR
STARTCHAR 212B
ENCODING 8491
SWIDTH 1000 0
DWIDTH 25 0
BBX 15 21 5 -1
BITMAP
03C0
0660
0420
0420
0660
03C0
0100
0180
0280
02C0
04C0
0440
0860
0820
0830
1FF0
1010
2018
2018
400C
F01E
ENDCHAR
STARTCHAR 2153
ENCODING 8531
SWIDTH 1000 0
DWIDTH 25 0
BBX 19 20 3 -2
BITMAP
100200
F00600
300C00
300C00
301800
301000
303000
306000
3067C0
30CCE0
308C60
FD8060
0300C0
030780
0600E0
040060
0C1860
181860
1818E0
300FC0
ENDCHAR
STARTCHAR 2154
ENCODING 8532
SWIDTH 1040 0
DWIDTH 26 0
BBX 21 20 2 -2
BITMAP
1E0180
670100
630300
630200
030600
060C00
0C0800
181800
3013E0
613670
FF2630
FF6030
00C070
0081E0
018030
010018
030618
060618
040630
0C03E0
ENDCHAR
STARTCHAR 215B
ENCODING 8539
SWIDTH 1000 0
DWIDTH 25 0
BBX 19 20 3 0
BITMAP
100300
F00600
300400
300C00
301800
301800
303000
303000
306780
304CC0
30D860
FD9860
018EC0
030780
020FC0
0618E0
0C1860
0C1860
181CC0
100780
ENDCHAR
STARTCHAR 215C
ENCODING 8540
SWIDTH 1000 0
DWIDTH 25 0
BBX 20 20 2 -1
BITMAP
3E0100
670300
630200
030600
060C00
3C0800
071800
031000
C33380
C36660
C66C60
7CCC60
008FC0
0187C0
010FE0
031C70
061830
041830
0C0C60
0807C0
ENDCHAR
STARTCHAR 215D
ENCODING 8541
SWIDTH 1000 0
DWIDTH 25 0
BBX 20 20 2 -1
BITMAP
FE0100
FE0300
800200
800600
FC0C00
C60800
031800
031000
C333C0
C36C60
C64C60
7CCC60
008EC0
0187C0
030FE0
021C70
061830
0C1830
0C0C60
1807C0
ENDCHAR
STARTCHAR 215E
ENCODING 8542
SWIDTH 1000 0
DWIDTH 25 0
BBX 20 20 2 0
BITMAP
7F0200
7F0600
C20400
820C00
060800
041800
0C3000
1C3000
186380
3844E0
38CC60
398C60
018EC0
0307C0
030FE0
061C70
061830
0C1830
1C0C60
1807C0
ENDCHAR
STARTCHAR 2160
ENCODING 8544
SWIDTH 1000 0
DWIDTH 25 0
BBX 5 18 10 0
BITMAP
F8
30
30
30
30
30
30
30
30
30
30
30
30
30
30
30
30
F8
ENDCHAR
STARTCHAR 2161
ENCODING 8545
SWIDTH 960 0
DWIDTH 24 0
BBX 12 18 6 0
BITMAP
F9F0
30C0
30C0
30C0
30C0
30C0
30C0
30C0
30C0
30C0
30C0
30C0
30C0
30C0
30C0
30C0
30C0
F9F0
ENDCHAR
STARTCHAR 2162
ENCODING 8546
SWIDTH 920 0
DWIDTH 23 0
BBX 15 18 4 0
BITMAP
FBFE
318C
318C
318C
318C
318C
318C
318C
318C
318C
318C
318C
318C
318C
318C
318C
318C
FBFE
ENDCHAR
STARTCHAR 2163
ENCODING 8547
SWIDTH 960 0
DWIDTH 24 0
BBX 16 18 4 0
BITMAP
FFCF
3386
3386
3384
3184
3184
31C4
31C8
30C8
30C8
30C8
30F0
3070
3070
3070
3070
3020
F820
ENDCHAR
STARTCHAR 2164
ENCODING 8548
SWIDTH 1000 0
DWIDTH 25 0
BBX 12 18 6 0
BITMAP
F8F0
7060
3060
3040
3040
3040
38C0
1880
1880
1880
1D80
0D00
0D00
0D00
0E00
0600
0600
0600
ENDCHAR
STARTCHAR 2165
ENCODING 8549
SWIDTH 960 0
DWIDTH 24 0
BBX 16 18 3 0
BITMAP
F8FF
7046
3046
3046
3046
3886
1886
1886
1886
1986
1D06
0D06
0D06
0D06
0E06
0606
0606
061F
ENDCHAR
STARTCHAR 2166
ENCODING 8550
SWIDTH 960 0
DWIDTH 24 0
BBX 22 18 1 0
BITMAP
F8FFFC
706618
306618
304618
304618
384618
38C618
188618
188618
188618
1D8618
0D0618
0D0618
0D0618
0E0618
060618
060618
060FFC
ENDCHAR
STARTCHAR 2167
ENCODING 8551
SWIDTH 960 0
DWIDTH 24 0
BBX 24 18 0 0
BITMAP
F8FFFF
7067EC
30666C
30466C
30466C
30466C
38C66C
18866C
18866C
18866C
1D866C
0D066C
0D066C
0D066C
0E066C
06066C
06066C
060FFF
ENDCHAR
STARTCHAR 2168
ENCODING 8552
SWIDTH 960 0
DWIDTH 24 0
BBX 17 18 4 0
BITMAP
FBE780
318300
318200
30C200
30E400
306400
307C00
303800
303800
303800
303C00
302C00
306C00
304600
30C600
308600
318300
FBC780
ENDCHAR
STARTCHAR 2169
ENCODING 8553
SWIDTH 960 0
DWIDTH 24 0
BBX 11 18 6 0
BITMAP
F9E0
30C0
3080
1880
1900
1900
0F00
0E00
0600
0600
0700
0B00
0B00
0980
1180
1180
30C0
79E0
ENDCHAR
STARTCHAR 2170
ENCODING 8560
SWIDTH 1000 0
DWIDTH 25 0
BBX 5 16 10 0
BITMAP
60
60
60
00
00
60
60
60
60
60
60
60
60
60
60
F8
ENDCHAR
STARTCHAR 2171
ENCODING 8561
SWIDTH 1000 0
DWIDTH 25 0
BBX 12 16 7 0
BITMAP
60C0
60C0
60C0
0000
0000
60C0
60C0
60C0
60C0
60C0
60C0
60C0
60C0
60C0
60C0
F9F0
ENDCHAR
STARTCHAR 2172
ENCODING 8562
SWIDTH 1000 0
DWIDTH 25 0
BBX 15 16 5 0
BITMAP
631C
631C
6308
0000
0000
630C
630C
630C
630C
630C
630C
630C
630C
630C
630C
FFFE
ENDCHAR
STARTCHAR 2173
ENCODING 8563
SWIDTH 1000 0
DWIDTH 25 0
BBX 13 16 6 0
BITMAP
6000
6000
6000
0000
0000
EF38
6610
6210
6310
6320
6320
61A0
61E0
61C0
61C0
F8C0
ENDCHAR
STARTCHAR 2174
ENCODING 8564
SWIDTH 1000 0
DWIDTH 25 0
BBX 9 12 8 0
BITMAP
F380
6100
6100
6100
3200
3200
3200
1A00
1C00
1C00
1C00
0C00
ENDCHAR
STARTCHAR 2175
ENCODING 8565
SWIDTH 1000 0
DWIDTH 25 0
BBX 14 16 5 0
BITMAP
0018
0018
0018
0000
0000
F3B8
6118
6118
2218
3218
3218
3218
1C18
1C18
1C18
0C7C
ENDCHAR
STARTCHAR 2176
ENCODING 8566
SWIDTH 1000 0
DWIDTH 25 0
BBX 18 16 3 0
BITMAP
001980
001980
001980
000000
000000
F3BB80
611980
611980
321980
321980
321980
3A1980
1C1980
1C1980
1C1980
0C3FC0
ENDCHAR
STARTCHAR 2177
ENCODING 8567
SWIDTH 960 0
DWIDTH 24 0
BBX 22 16 1 0
BITMAP
001998
001998
001998
000000
000000
F3BBB8
611998
611998
321998
321998
321998
3A1998
1C1998
1C1998
1C1998
0C3FFC
ENDCHAR
STARTCHAR 2178
ENCODING 8568
SWIDTH 960 0
DWIDTH 24 0
BBX 14 16 5 0
BITMAP
6000
6000
6000
0000
0000
E7FC
6190
6190
60E0
60E0
6060
6060
60F0
60B0
6118
FBBC
ENDCHAR
STARTCHAR 2179
ENCODING 8569
SWIDTH 1000 0
DWIDTH 25 0
BBX 10 11 7 0
BITMAP
FBC0
3100
3B00
1A00
1E00
0E00
0E00
1F00
1300
2180
73C0
ENDCHAR
STARTCHAR 2190
ENCODING 8592
SWIDTH 1000 0
DWIDTH 25 0
BBX 23 11 1 4
BITMAP
060000
0C0000
180000
300000
600000
FFFFFE
600000
300000
180000
0C0000
060000
ENDCHAR
STARTCHAR 2191
ENCODING 8593
SWIDTH 1000 0
DWIDTH 25 0
BBX 11 23 7 -2
BITMAP
0400
0E00
1F00
3580
64C0
C460
0400
0400
0400
0400
0400
0400
0400
0400
0400
0400
0400
0400
0400
0400
0400
0400
0400
ENDCHAR
STARTCHAR 2192
ENCODING 8594
SWIDTH 1000 0
DWIDTH 25 0
BBX 23 11 1 4
BITMAP
0000C0
000060
000030
000018
00000C
FFFFFE
00000C
000018
000030
000060
0000C0
ENDCHAR
STARTCHAR 2193
ENCODING 8595
SWIDTH 1000 0
DWIDTH 25 0
BBX 11 23 7 -3
BITMAP
0400
0400
0400
0400
0400
0400
0400
0400
0400
0400
0400
0400
0400
0400
0400
0400
0400
C460
64C0
3580
1F00
0E00
0400
ENDCHAR
STARTCHAR 2194
ENCODING 8596
SWIDTH 1000 0
DWIDTH 25 0
BBX 23 11 1 3
BITMAP
040040
080060
100030
300018
60000C
FFFFFE
40000C
200018
100030
080060
040040
ENDCHAR
STARTCHAR 2195
ENCODING 8597
SWIDTH 1000 0
DWIDTH 25 0
BBX 11 22 7 -2
BITMAP
0400
0E00
1500
2480
4440
8420
0400
0400
0400
0400
0400
0400
0400
0400
0400
0400
8460
44C0
2580
1700
0E00
0400
ENDCHAR
STARTCHAR 2196
ENCODING 8598
SWIDTH 1000 0
DWIDTH 25 0
BBX 17 17 3 1
BITMAP
800000
FC0000
7F8000
700000
680000
640000
220000
210000
008000
004000
002000
001000
000800
000400
000200
000100
000080
ENDCHAR
STARTCHAR 2197
ENCODING 8599
SWIDTH 1000 0
DWIDTH 25 0
BBX 16 16 5 1
BITMAP
000F
00FF
0007
000A
0012
0022
0042
0082
0100
0200
0400
0800
1000
2000
4000
8000
ENDCHAR
STARTCHAR 2198
ENCODING 8600
SWIDTH 1000 0
DWIDTH 25 0
BBX 15 16 5 0
BITMAP
8000
4000
2000
3000
1800
0C00
0600
0300
0184
00C4
0064
0034
001E
001E
01FE
000E
ENDCHAR
STARTCHAR 2199
ENCODING 8601
SWIDTH 1000 0
DWIDTH 25 0
BBX 17 16 3 1
BITMAP
000080
000100
000200
000400
001800
003000
006000
20C000
218000
230000
260000
2C0000
780000
7E0000
7F0000
C00000
ENDCHAR
STARTCHAR 21D2
ENCODING 8658
SWIDTH 1000 0
DWIDTH 25 0
BBX 18 12 3 3
BITMAP
000800
000400
000200
FFFF00
000080
000040
0000C0
FFFF80
000300
000600
000C00
000800
ENDCHAR
STARTCHAR 21D4
ENCODING 8660
SWIDTH 1000 0
DWIDTH 25 0
BBX 20 12 2 3
BITMAP
020000
060600
0C0300
180180
3FFFC0
600060
C00010
600020
3FFFC0
180080
0C0100
060200
ENDCHAR
STARTCHAR 2200
ENCODING 8704
SWIDTH 1000 0
DWIDTH 25 0
BBX 17 19 4 -2
BITMAP
800080
C00100
400100
400300
200200
200200
3FFC00
100400
180800
080800
081000
0C1000
043000
062000
026000
024000
014000
018000
018000
ENDCHAR
STARTCHAR 2202
ENCODING 8706
SWIDTH 960 0
DWIDTH 24 0
BBX 10 16 7 1
BITMAP
1F00
2180
0080
00C0
0040
0040
1E40
3340
6140
4180
C180
8180
8300
8600
CE00
7800
ENDCHAR
STARTCHAR 2203
ENCODING 8707
SWIDTH 960 0
DWIDTH 24 0
BBX 12 18 6 0
BITMAP
FFF0
0010
0010
0010
0010
0010
0010
0010
0010
FFF0
0010
0010
0010
0010
0010
0010
0010
FFF0
ENDCHAR
STARTCHAR 2207
ENCODING 8711
SWIDTH 1000 0
DWIDTH 25 0
BBX 15 13 5 2
BITMAP
FFFE
8004
4004
6008
2018
1010
1020
0820
0840
0440
0680
0380
0100
ENDCHAR
STARTCHAR 2208
ENCODING 8712
SWIDTH 960 0
DWIDTH 24 0
BBX 18 13 3 2
BITMAP
0FFFC0
180000
600000
400000
C00000
800000
FFFFC0
800000
C00000
400000
600000
380000
0FFFC0
ENDCHAR
STARTCHAR 220B
ENCODING 8715
SWIDTH 1000 0
DWIDTH 25 0
BBX 17 13 4 2
BITMAP
FFF800
000600
000300
000100
000080
000080
FFFF80
000080
000080
000100
000300
000600
FFF800
ENDCHAR
STARTCHAR 220F
ENCODING 8719
SWIDTH 1000 0
DWIDTH 25 0
BBX 16 19 4 0
BITMAP
FFFF
300C
300C
300C
300C
300C
300C
300C
300C
300C
300C
300C
300C
300C
300C
300C
300C
300C
FC3F
ENDCHAR
STARTCHAR 2211
ENCODING 8721
SWIDTH 1000 0
DWIDTH 25 0
BBX 14 19 5 0
BITMAP
FFFC
6004
3004
1800
0C00
0600
0700
0300
0180
0080
0100
0200
0400
0400
0800
1000
2004
400C
FFFC
ENDCHAR
STARTCHAR 221A
ENCODING 8730
SWIDTH 1000 0
DWIDTH 25 0
BBX 24 22 0 -3
BITMAP
0001FF
000200
000200
000400
000400
000800
000800
001000
001000
002000
002000
004000
004000
208000
708000
F10000
310000
1A0000
1A0000
0C0000
0C0000
080000
ENDCHAR
STARTCHAR 221D
ENCODING 8733
SWIDTH 960 0
DWIDTH 24 0
BBX 17 10 3 4
BITMAP
1E0F00
611880
C0B000
806000
804000
806000
C0A000
611000
3E1880
000700
ENDCHAR
STARTCHAR 221E
ENCODING 8734
SWIDTH 1000 0
DWIDTH 25 0
BBX 19 9 3 5
BITMAP
3E0F00
6118C0
C0A060
80A020
804020
80C020
C0A060
6318C0
1E0F00
ENDCHAR
STARTCHAR 2220
ENCODING 8736
SWIDTH 1000 0
DWIDTH 25 0
BBX 15 14 5 2
BITMAP
0004
0008
0010
0020
0040
0080
0100
0200
0400
0800
1000
3000
6000
FFFE
ENDCHAR
STARTCHAR 2225
ENCODING 8741
SWIDTH 960 0
DWIDTH 24 0
BBX 6 22 9 -2
BITMAP
84
84
84
84
84
84
84
84
84
84
84
84
84
84
84
84
84
84
84
84
84
84
ENDCHAR
STARTCHAR 2227
ENCODING 8743
SWIDTH 1000 0
DWIDTH 25 0
BBX 15 15 5 2
BITMAP
0100
0300
0280
0680
0440
0C40
0820
1820
1010
3010
2008
600C
4004
C006
8002
ENDCHAR
STARTCHAR 2228
ENCODING 8744
SWIDTH 1000 0
DWIDTH 25 0
BBX 15 15 5 2
BITMAP
8006
8004
4008
4008
2008
2010
1010
1020
0820
0C40
0440
0680
0280
0100
0100
ENDCHAR
STARTCHAR 2229
ENCODING 8745
SWIDTH 960 0
DWIDTH 24 0
BBX 13 18 5 0
BITMAP
0F80
3060
6030
4010
8008
8008
8008
8008
8008
8008
8008
8008
8008
8008
8008
8008
8008
8008
ENDCHAR
STARTCHAR 222A
ENCODING 8746
SWIDTH 1000 0
DWIDTH 25 0
BBX 13 18 6 0
BITMAP
8008
8008
8008
8008
8008
8008
8008
8008
8008
8008
8008
8008
8008
8008
4010
6020
3040
0F80
ENDCHAR
STARTCHAR 222B
ENCODING 8747
SWIDTH 960 0
DWIDTH 24 0
BBX 4 21 10 -3
BITMAP
60
E0
80
80
80
80
C0
C0
C0
60
60
60
70
30
30
10
10
10
10
E0
C0
ENDCHAR
STARTCHAR 222C
ENCODING 8748
SWIDTH 1000 0
DWIDTH 25 0
BBX 9 20 8 -2
BITMAP
6380
E380
8400
8400
8400
8400
C600
C600
E700
6300
6300
7380
3180
3180
1080
1080
1080
1080
7700
6700
ENDCHAR
STARTCHAR 222E
ENCODING 8750
SWIDTH 1000 0
DWIDTH 25 0
BBX 9 22 8 -2
BITMAP
0600
1E00
1000
1000
1000
1000
1000
1E00
7B00
C980
8880
8880
8880
8880
4500
3E00
0400
0400
0400
0400
1400
1800
ENDCHAR
STARTCHAR 2234
ENCODING 8756
SWIDTH 960 0
DWIDTH 24 0
BBX 20 15 2 3
BITMAP
00E000
00E000
004000
000000
000000
000000
000000
000000
000000
000000
000000
000000
400020
E00070
E00070
ENDCHAR
STARTCHAR 2235
ENCODING 8757
SWIDTH 960 0
DWIDTH 24 0
BBX 20 15 2 3
BITMAP
E00070
E00070
400060
000000
000000
000000
000000
000000
000000
000000
000000
000000
004000
00E000
00E000
ENDCHAR
STARTCHAR 223C
ENCODING 8764
SWIDTH 1000 0
DWIDTH 25 0
BBX 20 5 2 6
BITMAP
0F0000
3FC000
C0F010
003FE0
000FC0
ENDCHAR
STARTCHAR 223D
ENCODING 8765
SWIDTH 1000 0
DWIDTH 25 0
BBX 19 10 3 4
BITMAP
1E0F00
6010C0
C02040
804020
804020
804020
C08020
610040
3E08C0
000F00
ENDCHAR
STARTCHAR 2252
ENCODING 8786
SWIDTH 960 0
DWIDTH 24 0
BBX 16 15 4 1
BITMAP
3800
3800
1800
0000
FFFF
0000
0000
0000
0000
FFFF
0000
0000
0008
001C
001C
ENDCHAR
STARTCHAR 2260
ENCODING 8800
SWIDTH 1000 0
DWIDTH 25 0
BBX 16 14 4 3
BITMAP
0400
0400
0200
0200
FFFF
0100
0180
0080
00C0
FFFF
0060
0020
0020
0020
ENDCHAR
STARTCHAR 2261
ENCODING 8801
SWIDTH 1000 0
DWIDTH 25 0
BBX 15 9 5 4
BITMAP
FFFE
0000
0000
0000
FFFE
0000
0000
0000
FFFE
ENDCHAR
STARTCHAR 2264
ENCODING 8804
SWIDTH 1000 0
DWIDTH 25 0
BBX 16 14 4 3
BITMAP
0001
0007
0038
00E0
0700
3800
E000
3800
0700
01C0
0038
0007
0000
FFFF
ENDCHAR
STARTCHAR 2265
ENCODING 8805
SWIDTH 1000 0
DWIDTH 25 0
BBX 16 13 4 4
BITMAP
E000
1C00
0300
00E0
0018
0007
001C
0060
0300
1C00
E000
0000
FFFF
ENDCHAR
STARTCHAR 226A
ENCODING 8810
SWIDTH 1000 0
DWIDTH 25 0
BBX 18 18 3 0
BITMAP
000800
001040
006180
008200
030C00
061000
186000
30C000
C30000
430000
30C000
186000
061000
030C00
008200
006180
0010C0
000800
ENDCHAR
STARTCHAR 226B
ENCODING 8811
SWIDTH 1000 0
DWIDTH 25 0
BBX 18 18 3 1
BITMAP
860000
630000
30C000
086000
061000
030C00
00C600
006180
0010C0
0030C0
006180
018600
030C00
0C3000
186000
618000
C30000
040000
ENDCHAR
STARTCHAR 2282
ENCODING 8834
SWIDTH 1000 0
DWIDTH 25 0
BBX 18 13 3 2
BITMAP
07FFC0
180000
600000
400000
800000
800000
800000
800000
800000
400000
600000
180000
07FFC0
ENDCHAR
STARTCHAR 2283
ENCODING 8835
SWIDTH 1000 0
DWIDTH 25 0
BBX 18 13 4 2
BITMAP
FFF800
000600
000100
000080
000040
000040
000040
000040
000040
000080
000180
000300
FFFC00
ENDCHAR
STARTCHAR 2286
ENCODING 8838
SWIDTH 1000 0
DWIDTH 25 0
BBX 18 17 4 0
BITMAP
0FFFC0
300000
600000
400000
800000
800000
800000
800000
800000
800000
400000
200000
180000
07FFC0
000000
000000
FFFFC0
ENDCHAR
STARTCHAR 2287
ENCODING 8839
SWIDTH 1000 0
DWIDTH 25 0
BBX 18 17 3 0
BITMAP
FFF800
000600
000100
000080
0000C0
000040
000040
000040
000040
000040
000080
000100
000600
FFFC00
000000
000000
FFFFC0
ENDCHAR
STARTCHAR 2299
ENCODING 8857
SWIDTH 960 0
DWIDTH 24 0
BBX 22 22 1 -2
BITMAP
00FC00
070300
0C00C0
100020
200010
600018
400008
400008
807004
80F804
81FC04
81FC04
81FC04
80F804
C07008
400008
600018
200010
100020
0C00C0
070380
00FC00
ENDCHAR
STARTCHAR 22A5
ENCODING 8869
SWIDTH 1000 0
DWIDTH 25 0
BBX 16 14 4 1
BITMAP
0080
0080
0080
0080
0080
0080
0080
0080
0080
0080
0080
0080
0080
FFFF
ENDCHAR
STARTCHAR 2312
ENCODING 8978
SWIDTH 1000 0
DWIDTH 25 0
BBX 15 5 5 9
BITMAP
0FE0
1830
600C
C004
C006
ENDCHAR
STARTCHAR 2460
ENCODING 9312
SWIDTH 1000 0
DWIDTH 25 0
BBX 23 23 1 -3
BITMAP
00FE00
030180
0C0060
181830
307818
203808
401804
401804
801802
801802
801802
801802
801802
801802
801802
401804
401804
201808
303818
19FF30
0C0060
030180
00FE00
ENDCHAR
STARTCHAR 2461
ENCODING 9313
SWIDTH 1000 0
DWIDTH 25 0
BBX 23 23 1 -3
BITMAP
00FE00
030180
0C3C60
18C730
318398
218188
418184
418184
800302
800302
800602
800C02
801802
803002
806042
40C044
4180C4
23FFC8
33FF98
180030
0C0060
030180
00FE00
ENDCHAR
STARTCHAR 2462
ENCODING 9314
SWIDTH 1000 0
DWIDTH 25 0
BBX 23 24 1 -3
BITMAP
00FE00
030180
0C0060
187C30
31C718
238388
438184
410184
800186
800302
800702
807C02
800602
800302
800182
800184
418184
438184
238308
11C710
087C20
040040
030180
00FE00
ENDCHAR
STARTCHAR 2463
ENCODING 9315
SWIDTH 1000 0
DWIDTH 25 0
BBX 23 24 1 -3
BITMAP
00FE00
030180
0C0060
180830
301810
201808
403804
407804
805806
809802
809802
811802
831802
821802
861802
87FF86
401804
401804
201808
307E10
180030
0C0060
030180
00FE00
ENDCHAR
STARTCHAR 2464
ENCODING 9316
SWIDTH 1000 0
DWIDTH 25 0
BBX 23 24 1 -3
BITMAP
00FE00
030180
0C0060
19FF30
31FF18
210008
410004
410004
810006
810002
813C02
81C702
810302
800182
800182
800184
410184
438184
238308
11C610
08F820
040040
030180
00FE00
ENDCHAR
STARTCHAR 2465
ENCODING 9317
SWIDTH 1000 0
DWIDTH 25 0
BBX 23 23 1 -3
BITMAP
00FE00
030180
0C3E60
186730
30C318
218308
438004
430004
830002
873C02
874702
878302
870182
870182
870182
430184
438184
218308
31C618
187C30
0C0060
030180
00FE00
ENDCHAR
STARTCHAR 2466
ENCODING 9318
SWIDTH 1000 0
DWIDTH 25 0
BBX 23 23 1 -2
BITMAP
00FE00
030180
0C0060
1BFFB0
33FF98
230108
420204
440204
800402
800C02
800802
801802
801002
803002
807002
406004
40E004
20E008
30E018
18E030
0CE060
030180
00FE00
ENDCHAR
STARTCHAR 2467
ENCODING 9319
SWIDTH 1000 0
DWIDTH 25 0
BBX 23 24 1 -3
BITMAP
00FE00
030180
0C0060
183C30
30C610
208308
418304
418304
818306
81E602
80FC02
803C02
806F02
818382
830182
830186
430184
430184
238308
318610
187C30
0C0060
030180
00FE00
ENDCHAR
STARTCHAR 2468
ENCODING 9320
SWIDTH 1000 0
DWIDTH 25 0
BBX 23 24 1 -3
BITMAP
00FE00
030180
0C0060
183C30
306618
20C308
418304
418184
818186
818182
818182
818382
80C782
807982
800182
800184
400304
408304
21C608
11C410
08F820
040040
030180
00FE00
ENDCHAR
STARTCHAR 2469
ENCODING 9321
SWIDTH 1000 0
DWIDTH 25 0
BBX 23 23 1 -3
BITMAP
00FE00
030180
0D81E0
1B8270
378678
218428
418C34
418C34
818C32
818C32
818C32
818C32
818C32
818C32
818C32
418C34
418464
218668
318258
1FE1B0
0C0060
030180
00FE00
ENDCHAR
STARTCHAR 246A
ENCODING 9322
SWIDTH 1000 0
DWIDTH 25 0
BBX 23 23 1 -3
BITMAP
00FE00
030180
0C8360
198330
378F18
218308
418304
418304
818302
818302
818302
818302
818302
818302
818302
418304
418304
218308
318318
1FEFF0
0C0060
030180
00FE00
ENDCHAR
STARTCHAR 246B
ENCODING 9323
SWIDTH 1000 0
DWIDTH 25 0
BBX 23 23 1 -3
BITMAP
00FE00
030180
0D8760
1B85B0
378CD8
2188C8
418CC4
418CC4
818CC2
8180C2
818182
818182
818302
818202
818402
418404
418844
218848
318FD8
1FEFF0
0C0060
030180
00FE00
ENDCHAR
STARTCHAR 246C
ENCODING 9324
SWIDTH 1000 0
DWIDTH 25 0
BBX 23 23 1 -3
BITMAP
00FE00
030180
0D8760
1B8CB0
378CD8
218CC8
418CC4
4180C4
8180C2
818182
818302
818082
8180C2
8180C2
8180C2
419CC4
419CC4
2198C8
319998
1FEF30
0C0040
030180
00FE00
ENDCHAR
STARTCHAR 246D
ENCODING 9325
SWIDTH 1000 0
DWIDTH 25 0
BBX 23 23 1 -3
BITMAP
00FE00
030180
0C8160
1B8330
378318
218308
418704
418704
818F02
818B02
818B02
819B02
819302
819302
81A302
41BFC4
418304
218308
318318
1FEFF0
0C0060
030180
00FE00
ENDCHAR
STARTCHAR 246E
ENCODING 9326
SWIDTH 1000 0
DWIDTH 25 0
BBX 23 23 1 -3
BITMAP
00FE00
030180
0D8FE0
1B8FB0
378818
218808
418804
418804
818802
818F02
818982
8188C2
8180C2
8180C2
8180C2
4188C4
4198C4
2198C8
319998
1FEF30
0C0040
030180
00FE00
ENDCHAR
STARTCHAR 2474
ENCODING 9332
SWIDTH 960 0
DWIDTH 24 0
BBX 24 23 0 -3
BITMAP
080020
180010
101808
20380C
60F804
401806
401802
801803
801803
801801
801801
801801
801801
801801
801803
C01802
401802
403806
21FF04
200008
100018
080010
000020
ENDCHAR
STARTCHAR 2475
ENCODING 9333
SWIDTH 960 0
DWIDTH 24 0
BBX 24 23 0 -3
BITMAP
040020
083C10
10C708
30830C
218184
41C182
41C182
80C183
800301
800301
800601
800C01
801801
803001
806043
C0C042
4080C2
41FFC6
21FF84
30000C
100008
080010
040020
ENDCHAR
STARTCHAR 2476
ENCODING 9334
SWIDTH 960 0
DWIDTH 24 0
BBX 24 23 0 -3
BITMAP
040020
080010
107C08
20E30C
21C384
41C186
41C182
C00183
800303
800301
803C01
800201
800101
800181
800181
838183
438182
438306
61C704
20FC0C
100008
080010
040020
ENDCHAR
STARTCHAR 2477
ENCODING 9335
SWIDTH 960 0
DWIDTH 24 0
BBX 24 22 0 -2
BITMAP
040020
080010
100408
200C04
201C04
401C02
402C02
806C03
804C01
80CC01
818C01
810C01
830C01
860C01
87FF83
C00C02
400C02
600C06
203F04
100008
180010
0C0010
ENDCHAR
STARTCHAR 2478
ENCODING 9336
SWIDTH 960 0
DWIDTH 24 0
BBX 24 23 0 -3
BITMAP
080020
100010
30FF08
20FF04
608004
408002
408002
808003
808001
80BC01
80C701
808301
800181
800181
800183
C38182
438182
438306
21C604
207808
100018
080010
000020
ENDCHAR
STARTCHAR 2479
ENCODING 9337
SWIDTH 960 0
DWIDTH 24 0
BBX 24 23 0 -3
BITMAP
040020
080010
101F18
307388
20E384
40C386
418002
C18002
838003
839E01
83E301
83C381
838181
838181
838181
838183
C18182
41C302
60E204
207C0C
100008
180010
0C0020
ENDCHAR
STARTCHAR 247A
ENCODING 9338
SWIDTH 960 0
DWIDTH 24 0
BBX 24 23 0 -2
BITMAP
040020
080010
100008
31FF88
21FF84
430106
430102
C20202
820203
800401
800401
800801
800801
801801
803001
803003
C07002
407002
607006
207004
107008
100010
080020
ENDCHAR
STARTCHAR 247B
ENCODING 9339
SWIDTH 960 0
DWIDTH 24 0
BBX 24 23 0 -3
BITMAP
040020
080010
103C18
20C308
208184
418186
418182
C18103
81E303
80FC01
803E01
806F01
818381
838181
830181
830182
430182
438306
61C604
207C0C
100008
080010
040020
ENDCHAR
STARTCHAR 247C
ENCODING 9340
SWIDTH 960 0
DWIDTH 24 0
BBX 24 23 0 -3
BITMAP
040020
080010
103C08
30630C
20C184
418186
4180C2
C180C3
8180C3
8180C1
8181C1
80C2C1
807CC1
8000C1
800181
C00183
40C102
40C302
20C604
20780C
100008
080010
040020
ENDCHAR
STARTCHAR 247D
ENCODING 9341
SWIDTH 960 0
DWIDTH 24 0
BBX 24 23 0 -3
BITMAP
080020
080010
118188
238244
678664
418422
418C32
818C33
818C31
818C31
818C31
818C31
818C31
818C31
818C31
C18C33
418462
418662
618244
27E18C
100008
180010
080020
ENDCHAR
STARTCHAR 247E
ENCODING 9342
SWIDTH 960 0
DWIDTH 24 0
BBX 24 23 0 -3
BITMAP
040020
080010
108118
238708
278F04
418306
418302
C18303
818303
818301
818301
818301
818301
818301
818301
818303
418302
418306
618304
27EFCC
100018
180010
080020
ENDCHAR
STARTCHAR 247F
ENCODING 9343
SWIDTH 960 0
DWIDTH 24 0
BBX 24 24 0 -4
BITMAP
000020
080010
180018
118388
2784C4
678C66
418C62
418C62
818C63
818061
8180C1
8180C1
818181
818101
818201
818401
C18423
418422
418862
618FE4
27EFC4
100008
100010
080010
ENDCHAR
STARTCHAR 2480
ENCODING 9344
SWIDTH 960 0
DWIDTH 24 0
BBX 24 23 0 -3
BITMAP
080020
080010
118708
238C84
278CC4
418CC2
418CC2
8180C3
8180C1
818081
818301
8180C1
818041
818061
818061
818C63
418C62
418C62
618CC4
27F784
100008
100010
080030
ENDCHAR
STARTCHAR 2481
ENCODING 9345
SWIDTH 960 0
DWIDTH 24 0
BBX 24 23 0 -3
BITMAP
040030
080010
108088
23818C
278184
418382
418382
C18783
818783
818D81
818D81
818981
819981
819181
81B181
81BFC3
418182
418182
618184
27E7E4
100008
100010
080030
ENDCHAR
STARTCHAR 2482
ENCODING 9346
SWIDTH 960 0
DWIDTH 24 0
BBX 24 23 0 -3
BITMAP
040020
080010
118FC8
238F8C
278804
418806
418802
818803
818803
818F01
818981
8180C1
8180C1
8180C1
8180C1
8198C3
4198C2
4198C6
618984
27E70C
100008
180010
080020
ENDCHAR
STARTCHAR 249C
ENCODING 9372
SWIDTH 960 0
DWIDTH 24 0
BBX 24 23 0 -3
BITMAP
040020
080010
100008
20000C
600004
407C02
40C602
80C603
80C601
800601
803E01
806601
80C601
818601
818603
C18E82
40F782
400006
200004
200008
100018
080010
040020
ENDCHAR
STARTCHAR 249D
ENCODING 9373
SWIDTH 960 0
DWIDTH 24 0
BBX 24 23 0 -3
BITMAP
040020
080010
104008
21C00C
20C004
40C006
40C002
C0C003
80DE03
80F301
80C181
80C1C1
80C0C1
80C0C1
80C0C1
80C0C3
C0C082
40C182
60E304
209E04
100008
180010
080020
ENDCHAR
STARTCHAR 249E
ENCODING 9374
SWIDTH 960 0
DWIDTH 24 0
BBX 24 23 0 -3
BITMAP
040020
080010
100008
200004
600004
403C02
404602
80C603
818601
818001
818001
818001
818001
818001
80C103
C0E202
407C02
600006
200004
300008
100018
080010
040020
ENDCHAR
STARTCHAR 249F
ENCODING 9375
SWIDTH 960 0
DWIDTH 24 0
BBX 24 23 0 -2
BITMAP
000020
080030
100218
301E08
200604
400606
400602
C00602
80F603
838E01
830601
860601
860601
860601
860601
860603
C60602
430602
438E06
20F784
200008
100010
080020
ENDCHAR
STARTCHAR 24A0
ENCODING 9376
SWIDTH 960 0
DWIDTH 24 0
BBX 24 24 0 -3
BITMAP
000020
0C0010
180018
100008
200004
600006
403C02
406302
80C303
808181
81FF81
818001
818001
818001
818001
80C083
C06302
403C02
600006
200004
100008
100018
080010
000020
ENDCHAR
STARTCHAR 24A1
ENCODING 9377
SWIDTH 960 0
DWIDTH 24 0
BBX 24 23 0 -3
BITMAP
080020
080010
100F08
201F04
601004
403002
403002
803003
803001
80FE01
803001
803001
803001
803001
803001
803003
403002
403002
603004
20FC04
100008
100010
080010
ENDCHAR
STARTCHAR 24A2
ENCODING 9378
SWIDTH 1000 0
DWIDTH 25 0
BBX 24 23 1 -2
BITMAP
040020
080010
100008
207DCC
20C6C4
418306
418302
C18303
818301
80C601
807C01
818001
81C001
80FE01
81C783
C30182
430182
438306
20FE04
200008
100018
080010
040020
ENDCHAR
STARTCHAR 24A3
ENCODING 9379
SWIDTH 960 0
DWIDTH 24 0
BBX 24 22 0 -2
BITMAP
040020
080010
198018
33800C
218004
418006
418002
C18003
819E01
81E701
818301
818301
818301
818301
818303
C18302
418302
618304
23FFCC
300008
180010
0C0020
ENDCHAR
STARTCHAR 24A4
ENCODING 9380
SWIDTH 960 0
DWIDTH 24 0
BBX 24 23 0 -3
BITMAP
040020
080010
101808
201804
201804
400002
400002
C00003
801803
807801
801801
801801
801801
801801
801801
801803
401802
401802
601806
207E04
100008
100018
080010
ENDCHAR
STARTCHAR 24A5
ENCODING 9381
SWIDTH 960 0
DWIDTH 24 0
BBX 24 23 0 -3
BITMAP
080C10
081C08
101C08
200004
600006
400802
407802
801803
801801
801801
801801
801801
801801
801801
801803
C01802
401802
401806
20D804
30F00C
10E008
080010
040020
ENDCHAR
STARTCHAR 24A6
ENCODING 9382
SWIDTH 960 0
DWIDTH 24 0
BBX 24 23 0 -2
BITMAP
040020
080010
13C008
20C00C
20C004
40C002
40C002
80C7C3
80C381
80C201
80C401
80C801
80D801
80EC01
80CE03
C0C702
40C302
60C386
23F7C4
300008
100010
080020
040000
ENDCHAR
STARTCHAR 24A7
ENCODING 9383
SWIDTH 960 0
DWIDTH 24 0
BBX 24 24 0 -2
BITMAP
040020
080010
100008
303808
201804
401806
401802
C01802
801803
801801
801801
801801
801801
801801
801801
801803
C01802
401802
601806
207E04
100008
100018
080010
000020
ENDCHAR
STARTCHAR 24A8
ENCODING 9384
SWIDTH 960 0
DWIDTH 24 0
BBX 24 22 0 -3
BITMAP
040020
080010
100008
30000C
200004
4EF3C2
473C62
861863
861861
861861
861861
861861
861861
861861
861863
5F7FFA
400006
200004
20000C
100008
080010
040020
ENDCHAR
STARTCHAR 24A9
ENCODING 9385
SWIDTH 960 0
DWIDTH 24 0
BBX 24 22 0 -2
BITMAP
080030
100010
200008
200004
400006
419E02
C1E702
818303
818301
818301
818301
818301
818301
818301
818303
47EFC2
400006
200004
20000C
100018
100010
0C0020
ENDCHAR
STARTCHAR 24AA
ENCODING 9386
SWIDTH 960 0
DWIDTH 24 0
BBX 24 23 0 -3
BITMAP
040020
080010
100008
200004
600004
403C02
406602
80C303
818181
818181
818181
818181
818181
818181
80C303
C06602
403C02
600006
200004
300008
100018
080010
040020
ENDCHAR
STARTCHAR 24AB
ENCODING 9387
SWIDTH 960 0
DWIDTH 24 0
BBX 24 23 0 -3
BITMAP
000020
080010
100008
20000C
20DE04
41E306
40C182
80C0C3
80C0C3
80C0C1
80C0C1
80C0C1
80C0C1
80C181
80E301
80DE02
40C002
40C006
60C004
23F00C
100008
180010
080020
ENDCHAR
STARTCHAR 24AC
ENCODING 9388
SWIDTH 960 0
DWIDTH 24 0
BBX 24 23 0 -3
BITMAP
000020
080030
180018
100008
20F204
618E06
418602
C30602
830603
830601
830601
830601
830601
818601
81CE01
80F603
C00602
400602
600604
201F84
100008
180010
0C0020
ENDCHAR
STARTCHAR 24AD
ENCODING 9389
SWIDTH 960 0
DWIDTH 24 0
BBX 24 24 0 -4
BITMAP
040020
080010
100018
300008
200004
400006
403382
C0F782
803983
803801
803001
803001
803001
803001
803001
803003
C03002
40FC02
400006
200004
300008
100018
080010
040020
ENDCHAR
STARTCHAR 24AE
ENCODING 9390
SWIDTH 960 0
DWIDTH 24 0
BBX 24 23 0 -3
BITMAP
080020
100010
100008
200004
600004
407402
408E02
818203
818001
81E001
80FC01
803E01
800701
810301
818303
C0C602
40BC02
400006
200004
200008
100018
080010
000020
ENDCHAR
STARTCHAR 24AF
ENCODING 9391
SWIDTH 960 0
DWIDTH 24 0
BBX 24 23 0 -3
BITMAP
080020
100010
100008
20100C
601004
401002
403002
80FE03
803001
803001
803001
803001
803001
803001
803003
C03002
403302
403E06
200004
200008
100018
080010
000020
ENDCHAR
STARTCHAR 24B0
ENCODING 9392
SWIDTH 960 0
DWIDTH 24 0
BBX 24 23 0 -3
BITMAP
040040
080020
100010
300008
200004
400006
438702
C18302
818303
818301
818301
818301
818301
818301
818301
C1C702
40FB82
400006
200004
20000C
100018
080030
040020
ENDCHAR
STARTCHAR 24B1
ENCODING 9393
SWIDTH 960 0
DWIDTH 24 0
BBX 24 24 0 -3
BITMAP
040020
080010
100018
200008
200004
400006
43E782
C1C302
80C203
80C201
806201
806401
806401
803401
803801
803803
C01802
401006
600004
20000C
100008
100010
080020
000040
ENDCHAR
STARTCHAR 24B2
ENCODING 9394
SWIDTH 960 0
DWIDTH 24 0
BBX 24 23 0 -3
BITMAP
080020
100010
300008
20000C
400004
400006
5F7CF2
8E3863
861843
861841
873C41
832C81
832E81
81C681
81C703
81C702
408302
408206
600004
20000C
100008
100010
080020
ENDCHAR
STARTCHAR 24B3
ENCODING 9395
SWIDTH 960 0
DWIDTH 24 0
BBX 24 24 0 -2
BITMAP
040020
080010
100008
30000C
200004
400006
43E782
C1C302
80E203
806401
803401
803801
801C01
802C01
806601
804703
C08302
43E7C2
400006
200004
300008
100008
080010
040020
ENDCHAR
STARTCHAR 24B4
ENCODING 9396
SWIDTH 960 0
DWIDTH 24 0
BBX 24 23 0 -3
BITMAP
000020
080010
100008
20000C
23E7C4
41C102
40C102
80C203
806201
806601
806401
803401
803801
801801
801001
801003
401002
41A002
61E004
21C004
100008
100010
080020
ENDCHAR
STARTCHAR 24B5
ENCODING 9397
SWIDTH 960 0
DWIDTH 24 0
BBX 24 23 0 -3
BITMAP
000020
080010
100018
200008
200004
400006
40FF02
C0C602
808C03
810C01
801801
803001
803001
806101
80C301
81C603
41FE02
400006
600004
20000C
100008
180010
080020
ENDCHAR
STARTCHAR 24D0
ENCODING 9424
SWIDTH 1000 0
DWIDTH 25 0
BBX 23 23 1 -3
BITMAP
00FE00
030180
0C0060
180030
300018
200008
407C04
41CE04
818602
818602
800E02
807602
80C602
818602
818602
418E04
40F704
200008
300018
180030
0C0040
030180
00FE00
ENDCHAR
STARTCHAR 24D1
ENCODING 9425
SWIDTH 1000 0
DWIDTH 25 0
BBX 23 23 1 -3
BITMAP
00FE00
030180
0C0060
19C030
31C018
20C008
40C004
40C004
80DE02
80E702
80C302
80C182
80C182
80C182
80C182
40C184
40C184
20C308
30E318
189E30
0C0060
030180
00FE00
ENDCHAR
STARTCHAR 24D2
ENCODING 9426
SWIDTH 1000 0
DWIDTH 25 0
BBX 23 23 1 -3
BITMAP
00FE00
030180
0C0060
180030
300018
200008
407C04
40CE04
818602
830002
830002
830002
830002
830002
818102
41C204
407C04
200008
300018
180030
0C0060
030180
00FE00
ENDCHAR
STARTCHAR 24D3
ENCODING 9427
SWIDTH 1000 0
DWIDTH 25 0
BBX 23 23 1 -3
BITMAP
00FE00
030180
0C0060
180E30
300E18
200608
400604
400604
80F602
838E02
830602
860602
860602
860602
860602
460604
460604
230608
338E18
18F7B0
0C0060
030180
00FE00
ENDCHAR
STARTCHAR 24D4
ENCODING 9428
SWIDTH 1000 0
DWIDTH 25 0
BBX 23 23 1 -3
BITMAP
00FE00
030180
0C0060
180030
300018
200008
407804
40C604
818602
810302
83FF02
830002
830002
830002
830002
418104
40C204
207C08
300018
180030
0C0060
030180
00FE00
ENDCHAR
STARTCHAR 24D5
ENCODING 9429
SWIDTH 1000 0
DWIDTH 25 0
BBX 23 23 1 -3
BITMAP
00FE00
030180
0C0E60
181E30
303018
203008
403004
403004
803002
80FE02
803002
803002
803002
803002
803002
403004
403004
203008
303018
18FC30
0C0060
030180
00FE00
ENDCHAR
STARTCHAR 24D6
ENCODING 9430
SWIDTH 1000 0
DWIDTH 25 0
BBX 24 24 0 -2
BITMAP
007F00
0381C0
040060
080018
107DC8
20C6C4
418302
418302
818303
818301
80C601
807C01
818001
81C001
80FE01
81C783
430182
430182
238304
10FE08
080018
040020
0301C0
00FF00
ENDCHAR
STARTCHAR 24D7
ENCODING 9431
SWIDTH 1000 0
DWIDTH 25 0
BBX 23 23 1 -3
BITMAP
00FE00
030180
0C0060
198030
338018
218008
418004
418004
818002
819E02
81E702
818302
818302
818302
818302
418304
418304
218308
318318
1FEFF0
0C0060
030180
00FE00
ENDCHAR
STARTCHAR 24D8
ENCODING 9432
SWIDTH 1000 0
DWIDTH 25 0
BBX 23 24 1 -3
BITMAP
00FE00
030180
0C0060
183830
303810
201008
400004
400004
800006
801802
807802
801802
801802
801802
801802
801806
401804
401804
201808
301810
187E30
0C0060
030180
00FE00
ENDCHAR
STARTCHAR 24D9
ENCODING 9433
SWIDTH 1000 0
DWIDTH 25 0
BBX 23 23 1 -3
BITMAP
00FE00
033980
0C3860
181030
300018
200008
400804
407804
801802
801802
801802
801802
801802
801802
801802
401804
401804
201808
301818
19F830
0DF040
03C180
007E00
ENDCHAR
STARTCHAR 24DA
ENCODING 9434
SWIDTH 1000 0
DWIDTH 25 0
BBX 23 23 1 -3
BITMAP
00FE00
030180
0C0060
19C030
31C018
20C008
40C004
40C004
80CF82
80C302
80C202
80C402
80C802
80D802
80EC02
40CC04
40C604
20C208
30C318
1BF7F0
0C0060
030180
00FE00
ENDCHAR
STARTCHAR 24DB
ENCODING 9435
SWIDTH 1000 0
DWIDTH 25 0
BBX 23 23 1 -3
BITMAP
00FE00
030180
0C0060
181830
303818
201808
401804
401804
801802
801802
801802
801802
801802
801802
801802
401804
401804
201808
301818
187E30
0C0060
030180
00FE00
ENDCHAR
STARTCHAR 24DC
ENCODING 9436
SWIDTH 1000 0
DWIDTH 25 0
BBX 24 23 0 -3
BITMAP
007F00
0381C0
040030
080018
10000C
200004
4EF3C2
5F3462
861861
861861
861861
861861
861861
861861
861861
461862
5F7FFA
200004
10000C
080018
040030
0301C0
00FF00
ENDCHAR
STARTCHAR 24DD
ENCODING 9437
SWIDTH 1000 0
DWIDTH 25 0
BBX 23 23 1 -3
BITMAP
00FE00
030180
0C0060
180030
300018
200008
419C04
43E604
81C302
818302
818302
818302
818302
818302
818302
418304
47EFC4
200008
300018
180030
0C0060
030180
00FE00
ENDCHAR
STARTCHAR 24DE
ENCODING 9438
SWIDTH 1000 0
DWIDTH 25 0
BBX 23 23 1 -3
BITMAP
00FE00
030180
0C0060
180030
300018
200008
407C04
40C604
818302
830302
830182
830182
830182
830182
838302
418304
40C604
207C08
300018
180030
0C0060
030180
00FE00
ENDCHAR
STARTCHAR 24DF
ENCODING 9439
SWIDTH 1000 0
DWIDTH 25 0
BBX 23 24 1 -3
BITMAP
00FE00
030180
0C0060
180030
300010
20DE08
43E304
40C184
80C0C6
80C0C2
80C0C2
80C0C2
80C0C2
80C0C2
80C182
80E306
40DE04
40C004
20C008
30C010
1BF030
0C0060
030180
00FE00
ENDCHAR
STARTCHAR 24E0
ENCODING 9440
SWIDTH 1000 0
DWIDTH 25 0
BBX 23 23 1 -3
BITMAP
00FE00
030180
0C0060
180030
30F218
218E08
418604
430604
830602
830602
830602
830602
830602
818602
81CE02
40F604
400604
200608
300618
181FB0
0C0060
030180
00FE00
ENDCHAR
STARTCHAR 24E1
ENCODING 9441
SWIDTH 1000 0
DWIDTH 25 0
BBX 23 23 1 -3
BITMAP
00FE00
030180
0C0060
180030
300018
200008
403384
40F784
803F82
803802
803002
803002
803002
803002
803002
403004
403004
20FC08
300018
180030
0C0060
030180
00FE00
ENDCHAR
STARTCHAR 24E2
ENCODING 9442
SWIDTH 1000 0
DWIDTH 25 0
BBX 23 23 1 -3
BITMAP
00FE00
030180
0C0060
180030
300018
200008
407404
408E04
818202
818002
81E002
80FC02
803E02
800702
810302
418304
40C604
20BC08
300018
180030
0C0060
030180
00FE00
ENDCHAR
STARTCHAR 24E3
ENCODING 9443
SWIDTH 1000 0
DWIDTH 25 0
BBX 23 23 1 -3
BITMAP
00FE00
030180
0C0060
180030
301018
201008
403004
40FE04
803002
803002
803002
803002
803002
803002
803002
403004
403004
203E08
301818
180030
0C0040
030180
00FE00
ENDCHAR
STARTCHAR 24E4
ENCODING 9444
SWIDTH 1000 0
DWIDTH 25 0
BBX 23 23 1 -3
BITMAP
00FE00
030180
0C0060
180030
300018
200008
418304
478F04
818302
818302
818302
818302
818302
818302
818302
418704
40FB84
200008
300018
180030
0C0060
030180
00FE00
ENDCHAR
STARTCHAR 24E5
ENCODING 9445
SWIDTH 1000 0
DWIDTH 25 0
BBX 23 24 1 -3
BITMAP
00FE00
030180
0C0060
180030
300010
200008
400004
43E784
81C306
80C202
80C202
806202
806402
806402
803402
803806
401804
401804
200008
300010
180030
0C0060
030180
00FE00
ENDCHAR
STARTCHAR 24E6
ENCODING 9446
SWIDTH 1000 0
DWIDTH 25 0
BBX 23 24 1 -3
BITMAP
00FE00
030180
0C0060
180030
300018
200008
400004
5F7CF4
8E3866
861842
861842
833C42
832C82
832E82
81C682
81C704
41C704
408304
208208
100010
080020
040040
030180
00FE00
ENDCHAR
STARTCHAR 24E7
ENCODING 9447
SWIDTH 1000 0
DWIDTH 25 0
BBX 23 23 1 -3
BITMAP
00FE00
030180
0C0060
180030
300018
200008
43E784
41C304
80E202
806402
803802
803002
801802
802C02
804E02
404604
408304
23EF88
300018
180030
0C0060
030180
00FE00
ENDCHAR
STARTCHAR 24E8
ENCODING 9448
SWIDTH 1000 0
DWIDTH 25 0
BBX 23 24 1 -3
BITMAP
00FE00
030180
0C0060
180030
300018
23E7C8
40C104
40C104
80C206
806202
806602
806402
803402
803802
803802
801804
401004
401004
202008
11E010
09C020
040040
030180
00FE00
ENDCHAR
STARTCHAR 24E9
ENCODING 9449
SWIDTH 1000 0
DWIDTH 25 0
BBX 23 23 1 -3
BITMAP
00FE00
030180
0C0060
180030
300018
200008
407F04
40C604
808602
808C02
811802
803802
803002
806102
80C102
40C604
41FE04
200008
300018
180030
0C0040
030180
00FE00
ENDCHAR
STARTCHAR 2500
ENCODING 9472
SWIDTH 1000 0
DWIDTH 25 0
BBX 25 1 0 8
BITMAP
FFFFFF80
ENDCHAR
STARTCHAR 2501
ENCODING 9473
SWIDTH 1000 0
DWIDTH 25 0
BBX 25 2 0 7
BITMAP
FFFFFF80
FFFFFF80
ENDCHAR
STARTCHAR 2502
ENCODING 9474
SWIDTH 960 0
DWIDTH 24 0
BBX 1 25 12 -3
BITMAP
80
80
80
80
80
80
80
80
80
80
80
80
80
80
80
80
80
80
80
80
80
80
80
80
80
ENDCHAR
STARTCHAR 2503
ENCODING 9475
SWIDTH 1000 0
DWIDTH 25 0
BBX 2 25 12 -3
BITMAP
C0
C0
C0
C0
C0
C0
C0
C0
C0
C0
C0
C0
C0
C0
C0
C0
C0
C0
C0
C0
C0
C0
C0
C0
C0
ENDCHAR
STARTCHAR 250C
ENCODING 9484
SWIDTH 960 0
DWIDTH 24 0
BBX 12 12 12 -4
BITMAP
FFF0
8000
8000
8000
8000
8000
8000
8000
8000
8000
8000
8000
ENDCHAR
STARTCHAR 250D
ENCODING 9485
SWIDTH 960 0
DWIDTH 24 0
BBX 12 13 12 -4
BITMAP
FFF0
FFF0
8000
8000
8000
8000
8000
8000
8000
8000
8000
8000
8000
ENDCHAR
STARTCHAR 250E
ENCODING 9486
SWIDTH 1000 0
DWIDTH 25 0
BBX 13 12 12 -4
BITMAP
FFF8
C000
C000
C000
C000
C000
C000
C000
C000
C000
C000
C000
ENDCHAR
STARTCHAR 250F
ENCODING 9487
SWIDTH 1000 0
DWIDTH 25 0
BBX 13 13 12 -4
BITMAP
FFF8
FFF8
C000
C000
C000
C000
C000
C000
C000
C000
C000
C000
C000
ENDCHAR
STARTCHAR 2510
ENCODING 9488
SWIDTH 960 0
DWIDTH 24 0
BBX 13 12 0 -4
BITMAP
FFF8
0008
0008
0008
0008
0008
0008
0008
0008
0008
0008
0008
ENDCHAR
STARTCHAR 2511
ENCODING 9489
SWIDTH 960 0
DWIDTH 24 0
BBX 13 13 0 -4
BITMAP
FFF8
FFF8
0008
0008
0008
0008
0008
0008
0008
0008
0008
0008
0008
ENDCHAR
STARTCHAR 2512
ENCODING 9490
SWIDTH 1000 0
DWIDTH 25 0
BBX 14 12 0 -4
BITMAP
FFFC
000C
000C
000C
000C
000C
000C
000C
000C
000C
000C
000C
ENDCHAR
STARTCHAR 2513
ENCODING 9491
SWIDTH 1000 0
DWIDTH 25 0
BBX 14 13 0 -4
BITMAP
FFFC
FFFC
000C
000C
000C
000C
000C
000C
000C
000C
000C
000C
000C
ENDCHAR
STARTCHAR 2514
ENCODING 9492
SWIDTH 960 0
DWIDTH 24 0
BBX 12 13 12 9
BITMAP
8000
8000
8000
8000
8000
8000
8000
8000
8000
8000
8000
8000
FFF0
ENDCHAR
STARTCHAR 2515
ENCODING 9493
SWIDTH 960 0
DWIDTH 24 0
BBX 12 14 12 7
BITMAP
8000
8000
8000
8000
8000
8000
8000
8000
8000
8000
8000
8000
FFF0
FFF0
ENDCHAR
STARTCHAR 2516
ENCODING 9494
SWIDTH 1000 0
DWIDTH 25 0
BBX 13 13 12 9
BITMAP
C000
C000
C000
C000
C000
C000
C000
C000
C000
C000
C000
C000
FFF8
ENDCHAR
STARTCHAR 2517
ENCODING 9495
SWIDTH 1000 0
DWIDTH 25 0
BBX 13 14 12 7
BITMAP
C000
C000
C000
C000
C000
C000
C000
C000
C000
C000
C000
C000
FFF8
FFF8
ENDCHAR
STARTCHAR 2518
ENCODING 9496
SWIDTH 960 0
DWIDTH 24 0
BBX 13 13 0 9
BITMAP
0008
0008
0008
0008
0008
0008
0008
0008
0008
0008
0008
0008
FFF8
ENDCHAR
STARTCHAR 2519
ENCODING 9497
SWIDTH 960 0
DWIDTH 24 0
BBX 13 14 0 7
BITMAP
0008
0008
0008
0008
0008
0008
0008
0008
0008
0008
0008
0008
FFF8
FFF8
ENDCHAR
STARTCHAR 251A
ENCODING 9498
SWIDTH 1000 0
DWIDTH 25 0
BBX 14 13 0 9
BITMAP
000C
000C
000C
000C
000C
000C
000C
000C
000C
000C
000C
000C
FFFC
ENDCHAR
STARTCHAR 251B
ENCODING 9499
SWIDTH 1000 0
DWIDTH 25 0
BBX 14 14 0 7
BITMAP
000C
000C
000C
000C
000C
000C
000C
000C
000C
000C
000C
000C
FFFC
FFFC
ENDCHAR
STARTCHAR 251C
ENCODING 9500
SWIDTH 960 0
DWIDTH 24 0
BBX 12 25 12 -3
BITMAP
8000
8000
8000
8000
8000
8000
8000
8000
8000
8000
8000
8000
8000
FFF0
8000
8000
8000
8000
8000
8000
8000
8000
8000
8000
8000
ENDCHAR
STARTCHAR 251D
ENCODING 9501
SWIDTH 960 0
DWIDTH 24 0
BBX 12 25 12 -3
BITMAP
8000
8000
8000
8000
8000
8000
8000
8000
8000
8000
8000
8000
FFF0
FFF0
8000
8000
8000
8000
8000
8000
8000
8000
8000
8000
8000
ENDCHAR
STARTCHAR 251E
ENCODING 9502
SWIDTH 1000 0
DWIDTH 25 0
BBX 13 24 12 -3
BITMAP
C000
C000
C000
C000
C000
C000
C000
C000
C000
C000
C000
C000
FFF8
8000
8000
8000
8000
8000
8000
8000
8000
8000
8000
8000
ENDCHAR
STARTCHAR 251F
ENCODING 9503
SWIDTH 1000 0
DWIDTH 25 0
BBX 13 24 12 -2
BITMAP
8000
8000
8000
8000
8000
8000
8000
8000
8000
8000
8000
8000
FFF8
C000
C000
C000
C000
C000
C000
C000
C000
C000
C000
C000
ENDCHAR
STARTCHAR 2520
ENCODING 9504
SWIDTH 1000 0
DWIDTH 25 0
BBX 13 25 12 -3
BITMAP
C000
C000
C000
C000
C000
C000
C000
C000
C000
C000
C000
C000
C000
FFF8
C000
C000
C000
C000
C000
C000
C000
C000
C000
C000
C000
ENDCHAR
STARTCHAR 2521
ENCODING 9505
SWIDTH 1000 0
DWIDTH 25 0
BBX 13 25 12 -4
BITMAP
C000
C000
C000
C000
C000
C000
C000
C000
C000
C000
C000
C000
FFF8
FFF8
8000
8000
8000
8000
8000
8000
8000
8000
8000
8000
8000
ENDCHAR
STARTCHAR 2522
ENCODING 9506
SWIDTH 1000 0
DWIDTH 25 0
BBX 13 25 12 -3
BITMAP
8000
8000
8000
8000
8000
8000
8000
8000
8000
8000
8000
8000
FFF8
FFF8
C000
C000
C000
C000
C000
C000
C000
C000
C000
C000
C000
ENDCHAR
STARTCHAR 2523
ENCODING 9507
SWIDTH 1000 0
DWIDTH 25 0
BBX 13 25 12 -3
BITMAP
C000
C000
C000
C000
C000
C000
C000
C000
C000
C000
C000
C000
FFF8
FFF8
C000
C000
C000
C000
C000
C000
C000
C000
C000
C000
C000
ENDCHAR
STARTCHAR 2524
ENCODING 9508
SWIDTH 960 0
DWIDTH 24 0
BBX 13 25 0 -3
BITMAP
0008
0008
0008
0008
0008
0008
0008
0008
0008
0008
0008
0008
0008
FFF8
0008
0008
0008
0008
0008
0008
0008
0008
0008
0008
0008
ENDCHAR
STARTCHAR 2525
ENCODING 9509
SWIDTH 960 0
DWIDTH 24 0
BBX 13 25 0 -3
BITMAP
0008
0008
0008
0008
0008
0008
0008
0008
0008
0008
0008
0008
FFF8
FFF8
0008
0008
0008
0008
0008
0008
0008
0008
0008
0008
0008
ENDCHAR
STARTCHAR 2526
ENCODING 9510
SWIDTH 1000 0
DWIDTH 25 0
BBX 14 24 0 -3
BITMAP
000C
000C
000C
000C
000C
000C
000C
000C
000C
000C
000C
000C
FFFC
0008
0008
0008
0008
0008
0008
0008
0008
0008
0008
0008
ENDCHAR
STARTCHAR 2527
ENCODING 9511
SWIDTH 1000 0
DWIDTH 25 0
BBX 14 24 0 -3
BITMAP
0008
0008
0008
0008
0008
0008
0008
0008
0008
0008
0008
0008
FFFC
000C
000C
000C
000C
000C
000C
000C
000C
000C
000C
000C
ENDCHAR
STARTCHAR 2528
ENCODING 9512
SWIDTH 1000 0
DWIDTH 25 0
BBX 14 25 0 -3
BITMAP
000C
000C
000C
000C
000C
000C
000C
000C
000C
000C
000C
000C
000C
FFFC
000C
000C
000C
000C
000C
000C
000C
000C
000C
000C
000C
ENDCHAR
STARTCHAR 2529
ENCODING 9513
SWIDTH 1000 0
DWIDTH 25 0
BBX 14 25 0 -4
BITMAP
000C
000C
000C
000C
000C
000C
000C
000C
000C
000C
000C
000C
FFFC
FFFC
0008
0008
0008
0008
0008
0008
0008
0008
0008
0008
0008
ENDCHAR
STARTCHAR 252A
ENCODING 9514
SWIDTH 1000 0
DWIDTH 25 0
BBX 14 25 0 -4
BITMAP
0008
0008
0008
0008
0008
0008
0008
0008
0008
0008
0008
0008
FFFC
FFFC
000C
000C
000C
000C
000C
000C
000C
000C
000C
000C
000C
ENDCHAR
STARTCHAR 252B
ENCODING 9515
SWIDTH 1000 0
DWIDTH 25 0
BBX 14 25 0 -3
BITMAP
000C
000C
000C
000C
000C
000C
000C
000C
000C
000C
000C
000C
FFFC
FFFC
000C
000C
000C
000C
000C
000C
000C
000C
000C
000C
000C
ENDCHAR
STARTCHAR 252C
ENCODING 9516
SWIDTH 1000 0
DWIDTH 25 0
BBX 25 12 0 -4
BITMAP
FFFFFF80
00080000
00080000
00080000
00080000
00080000
00080000
00080000
00080000
00080000
00080000
00080000
ENDCHAR
STARTCHAR 252D
ENCODING 9517
SWIDTH 960 0
DWIDTH 24 0
BBX 24 13 0 -4
BITMAP
FFF800
FFFFFF
000800
000800
000800
000800
000800
000800
000800
000800
000800
000800
000800
ENDCHAR
STARTCHAR 252E
ENCODING 9518
SWIDTH 960 0
DWIDTH 24 0
BBX 24 13 0 -4
BITMAP
000FFF
FFFFFF
000800
000800
000800
000800
000800
000800
000800
000800
000800
000800
000800
ENDCHAR
STARTCHAR 252F
ENCODING 9519
SWIDTH 1000 0
DWIDTH 25 0
BBX 25 13 0 -4
BITMAP
FFFFFF80
FFFFFF80
00080000
00080000
00080000
00080000
00080000
00080000
00080000
00080000
00080000
00080000
00080000
ENDCHAR
STARTCHAR 2530
ENCODING 9520
SWIDTH 1000 0
DWIDTH 25 0
BBX 25 12 0 -4
BITMAP
FFFFFF80
000C0000
000C0000
000C0000
000C0000
000C0000
000C0000
000C0000
000C0000
000C0000
000C0000
000C0000
ENDCHAR
STARTCHAR 2531
ENCODING 9521
SWIDTH 1000 0
DWIDTH 25 0
BBX 25 13 0 -4
BITMAP
FFFC0000
FFFFFF80
000C0000
000C0000
000C0000
000C0000
000C0000
000C0000
000C0000
000C0000
000C0000
000C0000
000C0000
ENDCHAR
STARTCHAR 2532
ENCODING 9522
SWIDTH 1000 0
DWIDTH 25 0
BBX 25 13 0 -4
BITMAP
000FFF80
FFFFFF80
000C0000
000C0000
000C0000
000C0000
000C0000
000C0000
000C0000
000C0000
000C0000
000C0000
000C0000
ENDCHAR
STARTCHAR 2533
ENCODING 9523
SWIDTH 1000 0
DWIDTH 25 0
BBX 25 13 0 -5
BITMAP
FFFFFF80
FFFFFF80
000C0000
000C0000
000C0000
000C0000
000C0000
000C0000
000C0000
000C0000
000C0000
000C0000
000C0000
ENDCHAR
STARTCHAR 2534
ENCODING 9524
SWIDTH 1000 0
DWIDTH 25 0
BBX 25 13 0 9
BITMAP
00080000
00080000
00080000
00080000
00080000
00080000
00080000
00080000
00080000
00080000
00080000
00080000
FFFFFF80
ENDCHAR
STARTCHAR 2535
ENCODING 9525
SWIDTH 960 0
DWIDTH 24 0
BBX 24 14 0 7
BITMAP
000800
000800
000800
000800
000800
000800
000800
000800
000800
000800
000800
000800
FFF800
FFFFFF
ENDCHAR
STARTCHAR 2536
ENCODING 9526
SWIDTH 960 0
DWIDTH 24 0
BBX 24 14 0 7
BITMAP
000800
000800
000800
000800
000800
000800
000800
000800
000800
000800
000800
000800
000FFF
FFFFFF
ENDCHAR
STARTCHAR 2537
ENCODING 9527
SWIDTH 1000 0
DWIDTH 25 0
BBX 25 14 0 7
BITMAP
00080000
00080000
00080000
00080000
00080000
00080000
00080000
00080000
00080000
00080000
00080000
00080000
FFFFFF80
FFFFFF80
ENDCHAR
STARTCHAR 2538
ENCODING 9528
SWIDTH 1000 0
DWIDTH 25 0
BBX 25 13 0 9
BITMAP
000C0000
000C0000
000C0000
000C0000
000C0000
000C0000
000C0000
000C0000
000C0000
000C0000
000C0000
000C0000
FFFFFF80
ENDCHAR
STARTCHAR 2539
ENCODING 9529
SWIDTH 1000 0
DWIDTH 25 0
BBX 25 14 0 7
BITMAP
000C0000
000C0000
000C0000
000C0000
000C0000
000C0000
000C0000
000C0000
000C0000
000C0000
000C0000
000C0000
FFFC0000
FFFFFF80
ENDCHAR
STARTCHAR 253A
ENCODING 9530
SWIDTH 1000 0
DWIDTH 25 0
BBX 25 14 0 7
BITMAP
000C0000
000C0000
000C0000
000C0000
000C0000
000C0000
000C0000
000C0000
000C0000
000C0000
000C0000
000C0000
000FFF80
FFFFFF80
ENDCHAR
STARTCHAR 253B
ENCODING 9531
SWIDTH 1000 0
DWIDTH 25 0
BBX 25 14 0 7
BITMAP
000C0000
000C0000
000C0000
000C0000
000C0000
000C0000
000C0000
000C0000
000C0000
000C0000
000C0000
000C0000
FFFFFF80
FFFFFF80
ENDCHAR
STARTCHAR 253C
ENCODING 9532
SWIDTH 1000 0
DWIDTH 25 0
BBX 25 25 0 -3
BITMAP
00080000
00080000
00080000
00080000
00080000
00080000
00080000
00080000
00080000
00080000
00080000
00080000
00080000
FFFFFF80
00080000
00080000
00080000
00080000
00080000
00080000
00080000
00080000
00080000
00080000
00080000
ENDCHAR
STARTCHAR 253D
ENCODING 9533
SWIDTH 960 0
DWIDTH 24 0
BBX 24 25 0 -3
BITMAP
000800
000800
000800
000800
000800
000800
000800
000800
000800
000800
000800
000800
FFF800
FFFFFF
000800
000800
000800
000800
000800
000800
000800
000800
000800
000800
000800
ENDCHAR
STARTCHAR 253E
ENCODING 9534
SWIDTH 960 0
DWIDTH 24 0
BBX 24 25 0 -3
BITMAP
000800
000800
000800
000800
000800
000800
000800
000800
000800
000800
000800
000800
000FFF
FFFFFF
000800
000800
000800
000800
000800
000800
000800
000800
000800
000800
000800
ENDCHAR
STARTCHAR 253F
ENCODING 9535
SWIDTH 1000 0
DWIDTH 25 0
BBX 25 25 0 -3
BITMAP
00080000
00080000
00080000
00080000
00080000
00080000
00080000
00080000
00080000
00080000
00080000
00080000
FFFFFF80
FFFFFF80
00080000
00080000
00080000
00080000
00080000
00080000
00080000
00080000
00080000
00080000
00080000
ENDCHAR
STARTCHAR 2540
ENCODING 9536
SWIDTH 1000 0
DWIDTH 25 0
BBX 25 24 0 -3
BITMAP
000C0000
000C0000
000C0000
000C0000
000C0000
000C0000
000C0000
000C0000
000C0000
000C0000
000C0000
000C0000
FFFFFF80
00080000
00080000
00080000
00080000
00080000
00080000
00080000
00080000
00080000
00080000
00080000
ENDCHAR
STARTCHAR 2541
ENCODING 9537
SWIDTH 1000 0
DWIDTH 25 0
BBX 25 24 0 -3
BITMAP
00080000
00080000
00080000
00080000
00080000
00080000
00080000
00080000
00080000
00080000
00080000
00080000
FFFFFF80
000C0000
000C0000
000C0000
000C0000
000C0000
000C0000
000C0000
000C0000
000C0000
000C0000
000C0000
ENDCHAR
STARTCHAR 2542
ENCODING 9538
SWIDTH 1000 0
DWIDTH 25 0
BBX 25 25 0 -3
BITMAP
000C0000
000C0000
000C0000
000C0000
000C0000
000C0000
000C0000
000C0000
000C0000
000C0000
000C0000
000C0000
000C0000
FFFFFF80
000C0000
000C0000
000C0000
000C0000
000C0000
000C0000
000C0000
000C0000
000C0000
000C0000
000C0000
ENDCHAR
STARTCHAR 2543
ENCODING 9539
SWIDTH 1000 0
DWIDTH 25 0
BBX 25 25 0 -4
BITMAP
000C0000
000C0000
000C0000
000C0000
000C0000
000C0000
000C0000
000C0000
000C0000
000C0000
000C0000
000C0000
FFFC0000
FFFFFF80
00080000
00080000
00080000
00080000
00080000
00080000
00080000
00080000
00080000
00080000
00080000
ENDCHAR
STARTCHAR 2544
ENCODING 9540
SWIDTH 1000 0
DWIDTH 25 0
BBX 25 25 0 -4
BITMAP
000C0000
000C0000
000C0000
000C0000
000C0000
000C0000
000C0000
000C0000
000C0000
000C0000
000C0000
000C0000
000FFF80
FFFFFF80
00080000
00080000
00080000
00080000
00080000
00080000
00080000
00080000
00080000
00080000
00080000
ENDCHAR
STARTCHAR 2545
ENCODING 9541
SWIDTH 1000 0
DWIDTH 25 0
BBX 25 25 0 -4
BITMAP
00080000
00080000
00080000
00080000
00080000
00080000
00080000
00080000
00080000
00080000
00080000
00080000
FFFC0000
FFFFFF80
000C0000
000C0000
000C0000
000C0000
000C0000
000C0000
000C0000
000C0000
000C0000
000C0000
000C0000
ENDCHAR
STARTCHAR 2546
ENCODING 9542
SWIDTH 1000 0
DWIDTH 25 0
BBX 25 25 0 -3
BITMAP
00080000
00080000
00080000
00080000
00080000
00080000
00080000
00080000
00080000
00080000
00080000
00080000
000FFF80
FFFFFF80
000C0000
000C0000
000C0000
000C0000
000C0000
000C0000
000C0000
000C0000
000C0000
000C0000
000C0000
ENDCHAR
STARTCHAR 2547
ENCODING 9543
SWIDTH 1000 0
DWIDTH 25 0
BBX 25 25 0 -4
BITMAP
000C0000
000C0000
000C0000
000C0000
000C0000
000C0000
000C0000
000C0000
000C0000
000C0000
000C0000
000C0000
FFFFFF80
FFFFFF80
00080000
00080000
00080000
00080000
00080000
00080000
00080000
00080000
00080000
00080000
00080000
ENDCHAR
STARTCHAR 2548
ENCODING 9544
SWIDTH 1000 0
DWIDTH 25 0
BBX 25 25 0 -4
BITMAP
00080000
00080000
00080000
00080000
00080000
00080000
00080000
00080000
00080000
00080000
00080000
00080000
FFFFFF80
FFFFFF80
000C0000
000C0000
000C0000
000C0000
000C0000
000C0000
000C0000
000C0000
000C0000
000C0000
000C0000
ENDCHAR
STARTCHAR 2549
ENCODING 9545
SWIDTH 1000 0
DWIDTH 25 0
BBX 25 25 0 -3
BITMAP
000C0000
000C0000
000C0000
000C0000
000C0000
000C0000
000C0000
000C0000
000C0000
000C0000
000C0000
000C0000
FFFC0000
FFFFFF80
000C0000
000C0000
000C0000
000C0000
000C0000
000C0000
000C0000
000C0000
000C0000
000C0000
000C0000
ENDCHAR
STARTCHAR 254A
ENCODING 9546
SWIDTH 1000 0
DWIDTH 25 0
BBX 25 25 0 -3
BITMAP
000C0000
000C0000
000C0000
000C0000
000C0000
000C0000
000C0000
000C0000
000C0000
000C0000
000C0000
000C0000
000FFF80
FFFFFF80
000C0000
000C0000
000C0000
000C0000
000C0000
000C0000
000C0000
000C0000
000C0000
000C0000
000C0000
ENDCHAR
STARTCHAR 254B
ENCODING 9547
SWIDTH 1000 0
DWIDTH 25 0
BBX 25 25 0 -3
BITMAP
000C0000
000C0000
000C0000
000C0000
000C0000
000C0000
000C0000
000C0000
000C0000
000C0000
000C0000
000C0000
FFFFFF80
FFFFFF80
000C0000
000C0000
000C0000
000C0000
000C0000
000C0000
000C0000
000C0000
000C0000
000C0000
000C0000
ENDCHAR
STARTCHAR 2592
ENCODING 9618
SWIDTH 960 0
DWIDTH 24 0
BBX 22 22 1 -3
BITMAP
FFFFFC
800004
800004
98C634
98C634
90C634
800004
98C634
98C634
98C634
800004
800004
988634
98C634
98C634
800004
800004
98C434
98C634
98C634
800004
FFFFFC
ENDCHAR
STARTCHAR 25A0
ENCODING 9632
SWIDTH 960 0
DWIDTH 24 0
BBX 20 20 2 -1
BITMAP
FFFFF0
FFFFF0
FFFFF0
FFFFF0
FFFFF0
FFFFF0
FFFFF0
FFFFF0
FFFFF0
FFFFF0
FFFFF0
FFFFF0
FFFFF0
FFFFF0
FFFFF0
FFFFF0
FFFFF0
FFFFF0
FFFFF0
FFFFF0
ENDCHAR
STARTCHAR 25A1
ENCODING 9633
SWIDTH 960 0
DWIDTH 24 0
BBX 20 20 2 -2
BITMAP
FFFFF0
800010
800010
800010
800010
800010
800010
800010
800010
800010
800010
800010
800010
800010
800010
800010
800010
800010
800010
FFFFF0
ENDCHAR
STARTCHAR 25A3
ENCODING 9635
SWIDTH 960 0
DWIDTH 24 0
BBX 20 20 2 -1
BITMAP
FFFFF0
800010
800010
800010
87FF10
87FF10
87FF10
87FF10
87FF10
87FF10
87FF10
87FF10
87FF10
87FF10
87FF10
800010
800010
800010
800010
FFFFF0
ENDCHAR
STARTCHAR 25A4
ENCODING 9636
SWIDTH 1000 0
DWIDTH 25 0
BBX 21 21 2 -3
BITMAP
FFFFF8
800008
800008
800008
FFFFF8
800008
800008
800008
FFFFF8
800008
800008
800008
FFFFF8
800008
800008
800008
FFFFF8
800008
800008
800008
FFFFF8
ENDCHAR
STARTCHAR 25A5
ENCODING 9637
SWIDTH 1000 0
DWIDTH 25 0
BBX 21 21 2 -3
BITMAP
FFFFF8
888888
888888
888888
888888
888888
888888
888888
888888
888888
888888
888888
888888
888888
888888
888888
888888
888888
888888
888888
FFFFF8
ENDCHAR
STARTCHAR 25A6
ENCODING 9638
SWIDTH 1000 0
DWIDTH 25 0
BBX 21 21 2 -2
BITMAP
FFFFF8
888888
888888
888888
FFFFF8
888888
888888
888888
FFFFF8
888888
888888
888888
FFFFF8
888888
888888
888888
FFFFF8
888888
888888
888888
FFFFF8
ENDCHAR
STARTCHAR 25A7
ENCODING 9639
SWIDTH 1000 0
DWIDTH 25 0
BBX 21 21 2 -2
BITMAP
FFFFF8
984308
8C2188
8610C8
C30868
A18438
90C218
886108
843088
C21848
E10C28
B08618
984308
8C2188
8610C8
C30868
A18438
90C218
886108
843088
FFFFF8
ENDCHAR
STARTCHAR 25A8
ENCODING 9640
SWIDTH 1000 0
DWIDTH 25 0
BBX 21 21 2 -2
BITMAP
FFFFF8
8410C8
882188
904318
A08638
C10C68
C218C8
843188
886308
90C618
A18C28
C31848
863088
8C6108
98C208
B18418
E30828
C61048
8C2088
984108
FFFFF8
ENDCHAR
STARTCHAR 25A9
ENCODING 9641
SWIDTH 1000 0
DWIDTH 25 0
BBX 21 21 2 -3
BITMAP
FFFFF8
9E73C8
8C2188
9E53C8
F38E78
E18C38
D2DA58
8C7188
8C7188
D2DA58
E18C38
F38E78
9E53C8
8C2188
9E53C8
F38E78
E18C38
D2D258
8C6188
8C7188
FFFFF8
ENDCHAR
STARTCHAR 25B2
ENCODING 9650
SWIDTH 1000 0
DWIDTH 25 0
BBX 21 17 2 1
BITMAP
002000
006000
00F000
00F800
01F800
01FC00
03FE00
07FE00
07FF00
0FFF00
1FFF80
1FFFC0
3FFFC0
3FFFE0
7FFFE0
FFFFF0
FFFFF8
ENDCHAR
STARTCHAR 25B3
ENCODING 9651
SWIDTH 1000 0
DWIDTH 25 0
BBX 21 17 2 1
BITMAP
002000
006000
00D000
009800
010800
010400
020400
060200
040100
080100
080080
1000C0
200040
200020
400020
C00010
FFFFF8
ENDCHAR
STARTCHAR 25B6
ENCODING 9654
SWIDTH 1000 0
DWIDTH 25 0
BBX 17 20 4 -1
BITMAP
C00000
F00000
F80000
FE0000
FF0000
FFC000
FFE000
FFF800
FFFE00
FFFF00
FFFF80
FFFE00
FFF800
FFF000
FFC000
FF0000
FE0000
F80000
F00000
C00000
ENDCHAR
STARTCHAR 25B7
ENCODING 9655
SWIDTH 1000 0
DWIDTH 25 0
BBX 17 20 4 -1
BITMAP
C00000
A00000
980000
860000
830000
80C000
802000
801800
800600
800300
800180
800600
800800
803000
80C000
818000
860000
980000
B00000
C00000
ENDCHAR
STARTCHAR 25BC
ENCODING 9660
SWIDTH 1000 0
DWIDTH 25 0
BBX 21 17 2 0
BITMAP
FFFFF8
FFFFF0
7FFFF0
3FFFE0
3FFFC0
1FFFC0
0FFF80
0FFF00
07FF00
07FE00
03FE00
01FC00
01F800
00F800
00F000
006000
002000
ENDCHAR
STARTCHAR 25BD
ENCODING 9661
SWIDTH 1000 0
DWIDTH 25 0
BBX 21 17 2 0
BITMAP
FFFFF8
400010
400020
200020
300040
1000C0
080080
080100
040100
060200
020400
010400
010800
009800
00D000
006000
002000
ENDCHAR
STARTCHAR 25C0
ENCODING 9664
SWIDTH 1000 0
DWIDTH 25 0
BBX 16 21 5 -1
BITMAP
0003
0007
001F
007F
00FF
03FF
0FFF
1FFF
7FFF
FFFF
FFFF
7FFF
1FFF
0FFF
03FF
01FF
007F
001F
000F
0003
0001
ENDCHAR
STARTCHAR 25C1
ENCODING 9665
SWIDTH 960 0
DWIDTH 24 0
BBX 17 20 4 -1
BITMAP
000180
000680
000880
003080
00C080
018080
060080
080080
300080
C00080
400080
300080
0C0080
060080
018080
004080
003080
000C80
000680
000180
ENDCHAR
STARTCHAR 25C6
ENCODING 9670
SWIDTH 1000 0
DWIDTH 25 0
BBX 22 24 1 -3
BITMAP
001000
003800
007C00
00FE00
01FF00
03FF80
07FFC0
0FFFE0
1FFFF0
3FFFF8
7FFFFC
FFFFFC
FFFFFC
7FFFF8
3FFFF0
1FFFE0
0FFFC0
07FF80
03FF80
01FF00
00FE00
007C00
003800
001000
ENDCHAR
STARTCHAR 25C7
ENCODING 9671
SWIDTH 1000 0
DWIDTH 25 0
BBX 22 24 1 -3
BITMAP
001000
003800
004C00
008600
010300
020100
040080
080040
100020
200010
400008
800004
C00004
600008
300010
180020
080040
040080
020100
010300
008600
004C00
003800
001000
ENDCHAR
STARTCHAR 25C8
ENCODING 9672
SWIDTH 1000 0
DWIDTH 25 0
BBX 23 24 1 -3
BITMAP
001000
003800
004C00
008600
010200
020100
040080
083040
107820
20FC10
41FE08
83FF04
81FF06
40FE08
20FC10
107820
083040
040080
020100
010200
008400
004800
007000
002000
ENDCHAR
STARTCHAR 25CB
ENCODING 9675
SWIDTH 960 0
DWIDTH 24 0
BBX 22 22 1 -2
BITMAP
00FC00
070380
0C00C0
100020
200010
600018
400008
400008
800004
800004
800004
800004
800004
800004
C00008
400008
600018
200010
100020
0C00C0
070380
01FC00
ENDCHAR
STARTCHAR 25CE
ENCODING 9678
SWIDTH 960 0
DWIDTH 24 0
BBX 22 22 1 -2
BITMAP
00FC00
070380
0C00C0
100020
20FC10
618618
420108
440088
8C00C4
880044
880044
880044
880044
8C00C4
C40088
420108
618618
20FC10
100020
0C00C0
030380
00FC00
ENDCHAR
STARTCHAR 25CF
ENCODING 9679
SWIDTH 960 0
DWIDTH 24 0
BBX 22 22 1 -2
BITMAP
00FC00
07FF00
0FFFC0
1FFFE0
3FFFF0
7FFFF8
7FFFF8
7FFFF8
FFFFFC
FFFFFC
FFFFFC
FFFFFC
FFFFFC
FFFFFC
FFFFF8
7FFFF8
7FFFF8
3FFFF0
1FFFE0
0FFFC0
07FF00
00FC00
ENDCHAR
STARTCHAR 25D0
ENCODING 9680
SWIDTH 960 0
DWIDTH 24 0
BBX 22 22 1 -2
BITMAP
00FC00
03E300
0FE0C0
1FE020
3FE030
7FE018
7FE008
7FE008
FFE004
FFE004
FFE004
FFE004
FFE004
FFE004
FFE008
7FE008
7FE018
3FE010
1FE020
0FE0C0
07E380
00FC00
ENDCHAR
STARTCHAR 25D1
ENCODING 9681
SWIDTH 960 0
DWIDTH 24 0
BBX 22 22 1 -2
BITMAP
00FC00
071F80
0C1FC0
101FE0
201FF0
601FF8
401FF8
801FFC
801FFC
801FFC
801FFC
801FFC
801FFC
801FFC
401FF8
401FF8
601FF8
201FF0
101FE0
0C1FC0
071F80
00FC00
ENDCHAR
STARTCHAR 2605
ENCODING 9733
SWIDTH 1000 0
DWIDTH 25 0
BBX 20 20 2 -1
BITMAP
002000
006000
006000
007000
00F000
00F000
00F800
FFFFF0
7FFFE0
1FFFC0
0FFF00
07FE00
03FE00
07FE00
07FE00
079E00
0F0F00
0E0300
080100
100080
ENDCHAR
STARTCHAR 2606
ENCODING 9734
SWIDTH 1000 0
DWIDTH 25 0
BBX 21 20 2 0
BITMAP
002000
006000
006000
005000
00D000
009000
008800
FF8FF8
600060
1000C0
0C0180
020600
020200
020200
046200
04D900
070D00
0E0300
080180
000080
ENDCHAR
STARTCHAR 260E
ENCODING 9742
SWIDTH 960 0
DWIDTH 24 0
BBX 22 17 1 0
BITMAP
01FE00
0FFFC0
3FFFE0
7FFFF0
73FF78
F337FC
DADF9C
E55760
06AB9C
1DFFC0
1D7BE0
3EB7E0
3F7FF0
7FFFF0
7FFFF0
7FFFF0
0C0180
ENDCHAR
STARTCHAR 260F
ENCODING 9743
SWIDTH 960 0
DWIDTH 24 0
BBX 22 17 1 0
BITMAP
01FE00
060180
180060
2FFF90
548168
9C78C8
A5FEB4
DE4F6C
EACF9C
124F40
32D720
256B10
228510
417A10
400010
400010
3FFFE0
ENDCHAR
STARTCHAR 261C
ENCODING 9756
SWIDTH 1000 0
DWIDTH 25 0
BBX 23 11 1 3
BITMAP
7FF800
800600
8001FC
7FE022
040012
03E012
020012
01F012
010022
00F852
00078C
ENDCHAR
STARTCHAR 261E
ENCODING 9758
SWIDTH 1000 0
DWIDTH 25 0
BBX 23 12 1 2
BITMAP
007FFC
018002
FF0002
900FFC
900040
901FC0
900080
901F00
900100
9C3E00
A3C000
400000
ENDCHAR
STARTCHAR 2640
ENCODING 9792
SWIDTH 960 0
DWIDTH 24 0
BBX 16 23 4 -3
BITMAP
03E0
0630
0C18
0808
0808
0808
0C10
0630
01C0
0080
0080
0080
FFFF
0080
0080
0080
0080
0080
0080
0080
0080
0080
0080
ENDCHAR
STARTCHAR 2642
ENCODING 9794
SWIDTH 960 0
DWIDTH 24 0
BBX 12 23 6 -3
BITMAP
0400
0E00
0F00
1500
2480
4440
C460
8430
0410
0400
0400
0400
0400
0400
1F00
3180
60C0
4040
4040
4040
6040
3080
1F00
ENDCHAR
STARTCHAR 2660
ENCODING 9824
SWIDTH 960 0
DWIDTH 24 0
BBX 18 22 3 -1
BITMAP
00C000
01E000
03F000
03F800
07F800
0FFC00
1FFE00
1FFE00
3FFF00
3FFF80
7FFF80
7FFFC0
FFFFC0
FFFFC0
FFFFC0
FFFFC0
7EDF80
3CCF00
01E000
01E000
03E000
03F000
ENDCHAR
STARTCHAR 2661
ENCODING 9825
SWIDTH 1000 0
DWIDTH 25 0
BBX 19 21 3 -2
BITMAP
1E0F00
31B180
60A0C0
C0E060
C0C060
C00060
C00060
C00060
C00060
6000C0
6000C0
300180
300180
180300
0C0600
0C0400
060C00
031800
01B000
00E000
004000
ENDCHAR
STARTCHAR 2663
ENCODING 9827
SWIDTH 960 0
DWIDTH 24 0
BBX 21 22 2 -2
BITMAP
007800
01FE00
01FF00
03FF00
03FF00
03FF00
03FF00
01FE00
1EFDE0
7FFFF0
FFFFF0
FFFFF8
FFFFF8
FFFFF8
FFAFF8
FFAFF0
7F37F0
1E73C0
007000
007800
00F800
00FC00
ENDCHAR
STARTCHAR 2664
ENCODING 9828
SWIDTH 960 0
DWIDTH 24 0
BBX 17 22 4 -2
BITMAP
00C000
01C000
012000
023000
041000
0C0800
080C00
100400
200200
600300
400100
C00180
800080
800080
800080
800080
C73100
7F3F00
032000
023000
061000
07F000
ENDCHAR
STARTCHAR 2665
ENCODING 9829
SWIDTH 1000 0
DWIDTH 25 0
BBX 20 21 3 -2
BITMAP
1E0F80
7F9FC0
7FBFE0
FFFFF0
FFFFF0
FFFFF0
FFFFF0
FFFFF0
7FFFE0
7FFFE0
3FFFC0
3FFFC0
1FFF80
1FFF80
0FFF00
07FE00
07FC00
03FC00
01F800
00F000
006000
ENDCHAR
STARTCHAR 2667
ENCODING 9831
SWIDTH 960 0
DWIDTH 24 0
BBX 21 22 2 -3
BITMAP
007800
018400
030200
020100
020100
020100
020100
3F03E0
710470
C00010
800008
800008
800008
804008
C0F810
61FE30
1F7BC0
005800
00C800
008800
018C00
01FC00
ENDCHAR
STARTCHAR 2668
ENCODING 9832
SWIDTH 1000 0
DWIDTH 25 0
BBX 21 22 2 -2
BITMAP
002000
012000
012000
013600
01B200
01B300
01B300
01B300
033700
077600
066E00
066C00
0E6D00
366CC0
432630
C13610
C11218
E01218
781078
3FFFF0
0FFFC0
01FE00
ENDCHAR
STARTCHAR 2669
ENCODING 9833
SWIDTH 1000 0
DWIDTH 25 0
BBX 6 22 7 -1
BITMAP
04
04
04
04
04
04
04
04
04
04
04
04
04
04
04
04
04
3C
7C
F8
F8
E0
ENDCHAR
STARTCHAR 266A
ENCODING 9834
SWIDTH 960 0
DWIDTH 24 0
BBX 13 21 6 -1
BITMAP
0400
0400
0600
0700
07C0
05E0
04F0
0478
0418
0418
0408
0408
0410
0410
0420
0440
0400
3C00
7C00
F800
F000
ENDCHAR
STARTCHAR 266C
ENCODING 9836
SWIDTH 960 0
DWIDTH 24 0
BBX 18 21 1 -1
BITMAP
0001C0
001FC0
03FFC0
07FC40
07C0C0
041FC0
05FFC0
07FE40
07E040
040040
040040
040040
040040
0403C0
0407C0
040F80
3C0F80
7C0E00
F80000
F80000
F00000
ENDCHAR
STARTCHAR 266D
ENCODING 9837
SWIDTH 1000 0
DWIDTH 25 0
BBX 6 15 10 1
BITMAP
80
80
80
80
80
80
F0
88
8C
8C
8C
98
B0
E0
C0
ENDCHAR
STARTCHAR 3000
ENCODING 12288
SWIDTH 1000 0
DWIDTH 25 0
BBX 0 0 0 0
BITMAP
ENDCHAR
STARTCHAR 3001
ENCODING 12289
SWIDTH 1000 0
DWIDTH 25 0
BBX 6 6 14 12
BITMAP
C0
70
38
1C
0C
0C
ENDCHAR
STARTCHAR 3002
ENCODING 12290
SWIDTH 960 0
DWIDTH 24 0
BBX 7 7 13 11
BITMAP
38
44
82
82
82
46
38
ENDCHAR
STARTCHAR 3003
ENCODING 12291
SWIDTH 1000 0
DWIDTH 25 0
BBX 10 11 7 4
BITMAP
0C00
1C00
1800
3000
60C0
41C0
8380
0300
0400
0800
1000
ENDCHAR
STARTCHAR 3008
ENCODING 12296
SWIDTH 1000 0
DWIDTH 25 0
BBX 9 22 12 -2
BITMAP
0080
0180
0300
0200
0400
0C00
0800
1000
2000
6000
4000
C000
6000
2000
1000
1800
0800
0400
0200
0300
0100
0080
ENDCHAR
STARTCHAR 3009
ENCODING 12297
SWIDTH 1000 0
DWIDTH 25 0
BBX 9 23 3 -2
BITMAP
8000
4000
2000
3000
1000
0800
0C00
0600
0200
0100
0180
0080
0100
0200
0600
0400
0800
1000
3000
2000
4000
8000
8000
ENDCHAR
STARTCHAR 300A
ENCODING 12298
SWIDTH 1000 0
DWIDTH 25 0
BBX 10 24 12 -3
BITMAP
0200
02C0
0480
0D00
0B00
1200
1400
2400
6800
5800
9000
A000
A000
9000
5800
6800
2400
1400
1200
0B00
0D00
0580
0680
0200
ENDCHAR
STARTCHAR 300B
ENCODING 12299
SWIDTH 1000 0
DWIDTH 25 0
BBX 10 24 3 -3
BITMAP
8000
9000
5800
6800
2C00
3400
1200
0B00
0D00
0580
0680
0240
0240
0680
0580
0900
0A00
1200
3400
2C00
4800
5000
B000
A000
ENDCHAR
STARTCHAR 300C
ENCODING 12300
SWIDTH 960 0
DWIDTH 24 0
BBX 8 20 13 -1
BITMAP
FF
80
80
80
80
80
80
80
80
80
80
80
80
80
80
80
80
80
80
80
ENDCHAR
STARTCHAR 300D
ENCODING 12301
SWIDTH 960 0
DWIDTH 24 0
BBX 8 19 3 -1
BITMAP
01
01
01
01
01
01
01
01
01
01
01
01
01
01
01
01
01
01
FF
ENDCHAR
STARTCHAR 300E
ENCODING 12302
SWIDTH 960 0
DWIDTH 24 0
BBX 7 20 13 -1
BITMAP
FE
82
82
BE
A0
A0
A0
A0
A0
A0
A0
A0
A0
A0
A0
A0
A0
A0
A0
E0
ENDCHAR
STARTCHAR 300F
ENCODING 12303
SWIDTH 960 0
DWIDTH 24 0
BBX 7 20 4 -1
BITMAP
0E
0A
0A
0A
0A
0A
0A
0A
0A
0A
0A
0A
0A
0A
0A
0A
0A
FA
82
FE
ENDCHAR
STARTCHAR 3010
ENCODING 12304
SWIDTH 1000 0
DWIDTH 25 0
BBX 10 23 12 -3
BITMAP
FFC0
FF00
FE00
FC00
F800
F000
F000
E000
E000
E000
E000
E000
E000
E000
E000
E000
F000
F000
F800
FC00
FE00
FF00
FF80
ENDCHAR
STARTCHAR 3011
ENCODING 12305
SWIDTH 1000 0
DWIDTH 25 0
BBX 10 23 3 -3
BITMAP
FFC0
3FC0
1FC0
0FC0
07C0
07C0
03C0
03C0
01C0
01C0
01C0
01C0
01C0
01C0
01C0
03C0
03C0
07C0
07C0
0FC0
1FC0
3FC0
FFC0
ENDCHAR
STARTCHAR 3013
ENCODING 12307
SWIDTH 960 0
DWIDTH 24 0
BBX 22 5 1 7
BITMAP
FFFFFC
000000
000000
000000
FFFFFC
ENDCHAR
STARTCHAR 3014
ENCODING 12308
SWIDTH 1000 0
DWIDTH 25 0
BBX 6 24 14 -4
BITMAP
04
0C
30
C0
80
80
80
80
80
80
80
80
80
80
80
80
80
80
80
80
C0
30
1C
04
ENDCHAR
STARTCHAR 3015
ENCODING 12309
SWIDTH 960 0
DWIDTH 24 0
BBX 6 23 5 -3
BITMAP
80
60
30
0C
04
04
04
04
04
04
04
04
04
04
04
04
04
04
04
04
1C
30
C0
ENDCHAR
STARTCHAR 3041
ENCODING 12353
SWIDTH 960 0
DWIDTH 24 0
BBX 13 17 6 -3
BITMAP
0C00
0600
0600
04C0
0780
7E00
0C00
0D00
0FC0
1D30
2A18
4A08
CC08
8C18
9C10
E060
0180
ENDCHAR
STARTCHAR 3042
ENCODING 12354
SWIDTH 960 0
DWIDTH 24 0
BBX 16 20 4 -1
BITMAP
0600
0300
0300
0270
07E0
3F00
0400
0440
05F0
0E8C
1C82
2583
4501
C601
8601
8E03
9A02
F006
C018
00E0
ENDCHAR
STARTCHAR 3043
ENCODING 12355
SWIDTH 1000 0
DWIDTH 25 0
BBX 15 12 5 0
BITMAP
8020
4030
6018
400C
400C
4006
4006
443E
4406
2800
3800
1800
ENDCHAR
STARTCHAR 3044
ENCODING 12356
SWIDTH 960 0
DWIDTH 24 0
BBX 18 15 3 1
BITMAP
800000
C00C00
600600
600300
600180
400180
4000C0
4000C0
4100C0
420FC0
6200C0
240000
3C0000
1C0000
0C0000
ENDCHAR
STARTCHAR 3045
ENCODING 12357
SWIDTH 1000 0
DWIDTH 25 0
BBX 9 17 8 -2
BITMAP
3000
1F00
0F00
1000
0000
1F00
F180
E080
0080
0080
0080
0180
0100
0300
0600
0400
1800
ENDCHAR
STARTCHAR 3046
ENCODING 12358
SWIDTH 1000 0
DWIDTH 25 0
BBX 11 22 7 -2
BITMAP
3000
1F00
0780
0C00
0000
0000
0780
18C0
F040
6060
0060
0060
0060
0060
00C0
00C0
0080
0180
0300
0200
0400
1800
ENDCHAR
STARTCHAR 3047
ENCODING 12359
SWIDTH 960 0
DWIDTH 24 0
BBX 12 17 7 -2
BITMAP
2000
1F00
0F00
1000
0100
0780
7B00
0200
0400
0C00
0800
1E00
3200
6200
C200
83F0
81F0
ENDCHAR
STARTCHAR 3048
ENCODING 12360
SWIDTH 960 0
DWIDTH 24 0
BBX 14 20 6 -1
BITMAP
2000
1F00
0780
0800
0000
0180
07C0
7D80
3100
0200
0400
0800
0E00
1B00
3100
6100
C100
C19C
80FC
8000
ENDCHAR
STARTCHAR 3049
ENCODING 12361
SWIDTH 1000 0
DWIDTH 25 0
BBX 16 16 5 -1
BITMAP
1800
0C00
0800
0980
0F1C
7806
080F
09E0
0E10
0C18
1808
3808
E908
E910
18E0
1800
ENDCHAR
STARTCHAR 304A
ENCODING 12362
SWIDTH 960 0
DWIDTH 24 0
BBX 19 19 3 -1
BITMAP
080000
060000
060000
060000
06E000
07C700
0701C0
7C0060
0400E0
047C00
058600
070300
040100
0C0100
340100
E64300
764600
0E3C00
060000
ENDCHAR
STARTCHAR 304B
ENCODING 12363
SWIDTH 960 0
DWIDTH 24 0
BBX 18 19 3 0
BITMAP
040000
070000
038000
030000
020C00
060700
07E180
FC30C0
6C10C0
0811C0
081000
181000
103000
103000
303000
206000
63E000
41E000
40C000
ENDCHAR
STARTCHAR 304C
ENCODING 12364
SWIDTH 1000 0
DWIDTH 25 0
BBX 21 20 3 1
BITMAP
000070
030038
0381D8
018060
010020
010300
010180
03F0C0
FE1840
760860
0608E0
0408E0
0C0800
0C1800
181800
181800
303000
71F000
60E000
40C000
ENDCHAR
STARTCHAR 304D
ENCODING 12365
SWIDTH 960 0
DWIDTH 24 0
BBX 13 20 6 -1
BITMAP
3000
1800
08E0
0FC0
0F00
7C00
0218
0370
C3C0
FF80
00C0
0060
1FF8
2078
4018
4000
4000
4000
3F80
1FC0
ENDCHAR
STARTCHAR 304E
ENCODING 12366
SWIDTH 1000 0
DWIDTH 25 0
BBX 19 20 6 1
BITMAP
000300
1001C0
0C0460
047300
07C100
CF0000
7A0C00
013800
61E000
7FC000
006000
007000
003000
0FD800
103800
200800
200000
200000
3BC000
0FE000
ENDCHAR
STARTCHAR 304F
ENCODING 12367
SWIDTH 1000 0
DWIDTH 25 0
BBX 10 22 7 -2
BITMAP
0200
0100
0180
0380
0700
0600
0C00
1800
3000
6000
C000
8000
C000
6000
1800
0C00
0E00
0700
0380
0180
01C0
00C0
ENDCHAR
STARTCHAR 3050
ENCODING 12368
SWIDTH 1000 0
DWIDTH 25 0
BBX 15 21 7 -1
BITMAP
0100
0180
0380
0320
061C
0C0E
18C6
3020
6010
8000
8000
6000
3000
1800
0C00
0600
0700
0380
01C0
01C0
00C0
ENDCHAR
STARTCHAR 3051
ENCODING 12369
SWIDTH 1000 0
DWIDTH 25 0
BBX 17 20 4 -1
BITMAP
003800
401C00
600C00
600C00
400C00
400F80
43FF80
81CC00
800C00
800C00
800C00
800C00
900C00
A00C00
A00C00
C00800
C01800
401000
403000
006000
ENDCHAR
STARTCHAR 3052
ENCODING 12370
SWIDTH 1000 0
DWIDTH 25 0
BBX 20 22 4 -1
BITMAP
0000E0
000030
0039B0
401CC0
600CC0
600C40
600C00
400F80
43FF80
C1CC00
800C00
800C00
800C00
800C00
900C00
A00C00
A00C00
C00800
401800
401000
603000
006000
ENDCHAR
STARTCHAR 3053
ENCODING 12371
SWIDTH 960 0
DWIDTH 24 0
BBX 15 16 4 1
BITMAP
30F8
1F3C
0060
0080
0100
0000
0000
0000
0000
4000
C000
8000
8000
C000
7FFE
1FFC
ENDCHAR
STARTCHAR 3054
ENCODING 12372
SWIDTH 960 0
DWIDTH 24 0
BBX 19 19 4 2
BITMAP
0001C0
000CE0
000660
20F300
1FF900
007000
00C000
010000
000000
000000
000000
000000
400000
400000
800000
800000
C00000
7FFE00
1FFC00
ENDCHAR
STARTCHAR 3055
ENCODING 12373
SWIDTH 960 0
DWIDTH 24 0
BBX 14 19 5 0
BITMAP
3800
1C00
0C00
0618
0278
03E0
FF80
00C0
0060
0030
1F98
3078
601C
4008
4000
4000
6000
3FE0
0FF0
ENDCHAR
STARTCHAR 3056
ENCODING 12374
SWIDTH 1000 0
DWIDTH 25 0
BBX 16 21 6 1
BITMAP
000E
00F3
383B
1818
0C00
0478
06E0
0700
FD00
0180
00C0
0060
1FB0
60F8
C038
C018
C000
C000
E000
7F80
1FC0
ENDCHAR
STARTCHAR 3057
ENCODING 12375
SWIDTH 960 0
DWIDTH 24 0
BBX 13 20 5 -1
BITMAP
8000
E000
6000
6000
6000
4000
4000
4000
4000
4000
4000
4000
4000
4000
4000
4018
6030
30E0
3FC0
0F00
ENDCHAR
STARTCHAR 3058
ENCODING 12376
SWIDTH 960 0
DWIDTH 24 0
BBX 14 19 5 0
BITMAP
C000
6000
6038
6018
618C
40C0
4060
4020
4000
4000
4000
4000
4000
4004
4018
6030
30E0
3FC0
0F00
ENDCHAR
STARTCHAR 3059
ENCODING 12377
SWIDTH 960 0
DWIDTH 24 0
BBX 20 21 2 -2
BITMAP
00E000
007000
003000
002000
002000
01FFE0
1E2070
F82000
002000
00E000
01B000
013000
013000
013000
01F000
00F000
003000
002000
006000
00C000
018000
ENDCHAR
STARTCHAR 305A
ENCODING 12378
SWIDTH 1000 0
DWIDTH 25 0
BBX 22 23 2 -2
BITMAP
000018
00E18C
0070EC
002060
002000
0021E0
01FFF0
FE2030
702000
202000
00E000
01B000
013000
013000
013000
01F000
00F000
003000
002000
006000
00C000
018000
020000
ENDCHAR
STARTCHAR 305B
ENCODING 12379
SWIDTH 1000 0
DWIDTH 25 0
BBX 22 17 1 1
BITMAP
000600
000300
060300
038200
038200
030FF8
037E1C
07C200
F98200
218200
019E00
018600
018400
018000
018000
00C3E0
007FE0
ENDCHAR
STARTCHAR 305C
ENCODING 12380
SWIDTH 1000 0
DWIDTH 25 0
BBX 22 20 2 1
BITMAP
000038
00001C
000CCC
000670
080630
0E0430
070400
0604E0
061FF0
07E400
3E0400
F20400
420400
021C00
020C00
020800
020000
030000
01CF80
00FF80
ENDCHAR
STARTCHAR 305D
ENCODING 12381
SWIDTH 1000 0
DWIDTH 25 0
BBX 16 21 4 -2
BITMAP
0020
08F0
0F38
0660
00C0
0180
0300
060E
0C7F
1BD8
7E60
70C0
C180
0100
0200
0200
0200
0200
0100
00F0
0078
ENDCHAR
STARTCHAR 305E
ENCODING 12382
SWIDTH 1000 0
DWIDTH 25 0
BBX 20 21 4 -1
BITMAP
002060
08F330
0F3990
0660C0
00C040
018000
030000
060E00
0CFF00
1FB800
7C6000
E0C000
C18000
010000
020000
020000
020000
020000
018000
00F800
007800
ENDCHAR
STARTCHAR 305F
ENCODING 12383
SWIDTH 1000 0
DWIDTH 25 0
BBX 18 20 4 0
BITMAP
040000
070000
030000
030000
037000
02E000
07C000
7E0000
043E00
0C0780
080800
180000
100000
300000
300000
608000
608000
C08000
C0E7C0
803F80
ENDCHAR
STARTCHAR 3060
ENCODING 12384
SWIDTH 960 0
DWIDTH 24 0
BBX 18 21 3 0
BITMAP
000200
060180
038CC0
038640
030300
037300
03E000
07C000
7E0000
043E00
0C0780
080800
080000
100000
100000
300000
600000
608000
C08000
C0F7C0
803F80
ENDCHAR
STARTCHAR 3061
ENCODING 12385
SWIDTH 1000 0
DWIDTH 25 0
BBX 15 21 5 0
BITMAP
0C00
0600
0600
0400
0C60
0FE0
FE00
0800
1800
1800
1000
10F8
371C
3C0E
3006
2006
0006
000C
001C
0078
07E0
ENDCHAR
STARTCHAR 3062
ENCODING 12386
SWIDTH 1000 0
DWIDTH 25 0
BBX 18 22 5 -2
BITMAP
080000
060380
0600C0
060E40
040700
046300
8FC000
7E0000
080000
080000
180000
100000
10F800
370C00
3C0600
300600
200600
000600
000C00
001C00
007800
07E000
ENDCHAR
STARTCHAR 3063
ENCODING 12387
SWIDTH 960 0
DWIDTH 24 0
BBX 16 11 3 -1
BITMAP
00FC
0706
FC03
7001
0001
0001
0003
0006
000C
0038
01C0
ENDCHAR
STARTCHAR 3064
ENCODING 12388
SWIDTH 960 0
DWIDTH 24 0
BBX 20 14 2 1
BITMAP
003F00
01C0C0
0E0060
F80020
600030
000030
000030
000030
000060
0000E0
0001C0
000780
001E00
01E000
ENDCHAR
STARTCHAR 3065
ENCODING 12389
SWIDTH 960 0
DWIDTH 24 0
BBX 22 19 2 1
BITMAP
000038
00000C
0000E4
000030
000010
003F00
01C0C0
0F0060
FC0030
700030
000030
000030
000030
000060
0000E0
0001C0
000780
001E00
01F000
ENDCHAR
STARTCHAR 3066
ENCODING 12390
SWIDTH 1000 0
DWIDTH 25 0
BBX 18 19 3 -2
BITMAP
000380
003FC0
03EE00
1E3800
F06000
40C000
008000
010000
010000
020000
020000
020000
020000
020000
010000
018000
00E000
007800
001C00
ENDCHAR
STARTCHAR 3067
ENCODING 12391
SWIDTH 960 0
DWIDTH 24 0
BBX 21 19 2 -2
BITMAP
0001C0
003FE0
01EE00
0F1800
FC3020
606010
00C198
0080D8
018060
010020
010000
010000
010000
010000
018000
00C000
00E000
003C00
001E00
ENDCHAR
STARTCHAR 3068
ENCODING 12392
SWIDTH 960 0
DWIDTH 24 0
BBX 13 20 5 -1
BITMAP
1000
0C00
0C00
0400
0400
0400
0410
0418
04F8
07C0
0600
1800
2000
4000
8000
8000
8000
8000
6038
1FF8
ENDCHAR
STARTCHAR 3069
ENCODING 12393
SWIDTH 960 0
DWIDTH 24 0
BBX 18 20 5 -1
BITMAP
100000
0C0380
0C01C0
040CC0
040700
040300
043000
043C00
04F800
078000
0E0000
180000
600000
400000
800000
800000
800000
800000
603800
3FF800
ENDCHAR
STARTCHAR 306A
ENCODING 12394
SWIDTH 1000 0
DWIDTH 25 0
BBX 16 21 4 -2
BITMAP
0600
0300
0300
0270
07E0
7E00
0C1C
0807
180F
1010
3020
6020
E020
C020
8020
0030
03F0
0E1E
0813
0C30
07E0
ENDCHAR
STARTCHAR 306B
ENCODING 12395
SWIDTH 960 0
DWIDTH 24 0
BBX 17 17 4 1
BITMAP
400000
603E00
61C700
400C00
400800
C00000
800000
800000
800000
800000
800000
A00000
A10000
C18300
C1FF80
C07F00
400000
ENDCHAR
STARTCHAR 306C
ENCODING 12396
SWIDTH 960 0
DWIDTH 24 0
BBX 19 19 3 0
BITMAP
018000
00C000
00E000
60C000
30FC00
31C200
368100
3D8180
198080
310080
710080
5A0080
CA0080
8E0180
863F80
8B6380
9843C0
F04660
E03C20
ENDCHAR
STARTCHAR 306D
ENCODING 12397
SWIDTH 1000 0
DWIDTH 25 0
BBX 19 21 4 0
BITMAP
080000
0C0000
0C0000
0C0000
0C0000
0C3E00
1E6300
ED8100
4F0180
0E0080
0C0080
180080
180080
280080
680180
C87F80
C88380
D883C0
988660
087C60
080000
ENDCHAR
STARTCHAR 306E
ENCODING 12398
SWIDTH 1000 0
DWIDTH 25 0
BBX 19 17 3 0
BITMAP
01F800
066600
186180
3040C0
60C0C0
40C060
C08060
818060
830060
820060
860060
8C00C0
D801C0
700180
600300
000E00
003800
ENDCHAR
STARTCHAR 306F
ENCODING 12399
SWIDTH 1000 0
DWIDTH 25 0
BBX 18 20 4 -1
BITMAP
001000
401800
400C00
600C00
600C00
400FC0
41FE00
400800
800800
800800
800800
800800
800800
A00800
A1FC00
C30F80
C20DC0
C31C40
C0F800
400000
ENDCHAR
STARTCHAR 3070
ENCODING 12400
SWIDTH 1000 0
DWIDTH 25 0
BBX 21 20 3 1
BITMAP
000060
001338
400D98
600CC0
600C40
600800
400BC0
41FE00
400800
800800
800800
800800
800800
800800
A00800
A0FC00
C30F80
C20CC0
431C40
40F800
ENDCHAR
STARTCHAR 3071
ENCODING 12401
SWIDTH 960 0
DWIDTH 24 0
BBX 20 21 3 -1
BITMAP
0000E0
001110
400D10
600D10
600CE0
600800
400BC0
41FE00
400800
800800
800800
800800
800800
800800
A00800
A0FC00
C30FC0
C20CC0
C31C40
40F800
400000
ENDCHAR
STARTCHAR 3072
ENCODING 12402
SWIDTH 1000 0
DWIDTH 25 0
BBX 19 19 3 0
BITMAP
000C00
060C00
1F0C00
FC0400
080600
100600
300700
200580
2004C0
4004E0
400460
400400
400C00
400800
401800
603000
207000
3FE000
0F8000
ENDCHAR
STARTCHAR 3073
ENCODING 12403
SWIDTH 1000 0
DWIDTH 25 0
BBX 21 20 3 0
BITMAP
000040
000030
060CD8
0F0C60
FE0460
6C0620
080600
100700
100580
3005C0
2004E0
600460
600400
600C00
600800
601800
601000
307000
1FE000
0F8000
ENDCHAR
STARTCHAR 3074
ENCODING 12404
SWIDTH 1000 0
DWIDTH 25 0
BBX 21 20 3 0
BITMAP
0000F0
000198
070D08
FE0D88
7C04F0
080600
180600
100700
300580
2004E0
600460
600400
600400
600800
600800
601800
601000
307000
1FE000
0F8000
ENDCHAR
STARTCHAR 3075
ENCODING 12405
SWIDTH 960 0
DWIDTH 24 0
BBX 20 18 2 1
BITMAP
030000
01C000
00F000
007000
008000
010000
010000
010000
008000
004000
007E00
01B180
0730C0
0C1060
1818F0
F01810
E3F000
60F000
ENDCHAR
STARTCHAR 3076
ENCODING 12406
SWIDTH 960 0
DWIDTH 24 0
BBX 20 18 2 1
BITMAP
030000
01C000
0070E0
007070
008330
0101C0
0100C0
010040
018000
004000
007E00
01B380
0330C0
0C1860
8818F0
901810
E7F800
60F000
ENDCHAR
STARTCHAR 3077
ENCODING 12407
SWIDTH 960 0
DWIDTH 24 0
BBX 20 18 2 0
BITMAP
020000
01E000
00F1C0
007220
008220
010220
0101C0
010000
008000
004000
007E00
01A180
0730E0
0C1060
9818F0
F01830
67F800
60F000
ENDCHAR
STARTCHAR 3078
ENCODING 12408
SWIDTH 1000 0
DWIDTH 25 0
BBX 21 13 2 2
BITMAP
01C000
036000
063000
0C1000
180800
300400
F00600
600380
0001C0
0000E0
000070
000038
000018
ENDCHAR
STARTCHAR 3079
ENCODING 12409
SWIDTH 960 0
DWIDTH 24 0
BBX 21 14 2 3
BITMAP
000060
01C018
0361C8
063060
0C1820
180C00
300E00
F00700
600380
0001C0
0000E0
000070
000038
000018
ENDCHAR
STARTCHAR 307A
ENCODING 12410
SWIDTH 1000 0
DWIDTH 25 0
BBX 21 14 2 2
BITMAP
0000E0
01C110
036110
062110
0C10E0
180800
300C00
E00600
600380
0001C0
0000E0
000070
000038
000018
ENDCHAR
STARTCHAR 307B
ENCODING 12411
SWIDTH 1000 0
DWIDTH 25 0
BBX 20 19 3 0
BITMAP
400780
61FF80
601000
600C00
400C00
4109C0
410F80
C1FC00
800800
800800
800800
A00800
A00800
A00800
C0FE00
C30DE0
C20C30
43FC00
40F800
ENDCHAR
STARTCHAR 307C
ENCODING 12412
SWIDTH 960 0
DWIDTH 24 0
BBX 21 20 3 1
BITMAP
000070
400718
61FE08
601860
600830
400810
4109C0
410F80
81FC00
800800
800800
800800
800800
A00800
A00800
E0FE00
C30FC0
C20860
43F800
41F000
ENDCHAR
STARTCHAR 307D
ENCODING 12413
SWIDTH 1000 0
DWIDTH 25 0
BBX 22 19 3 1
BITMAP
400778
61FCCC
601084
601884
4008CC
400878
410F80
81FC00
800800
800800
800800
800800
A00800
A00800
C0FC00
C30FC0
C208E0
43F800
41F000
ENDCHAR
STARTCHAR 307E
ENCODING 12414
SWIDTH 960 0
DWIDTH 24 0
BBX 14 21 5 -2
BITMAP
0600
0300
0180
0100
011C
817C
7FE0
0100
0100
413C
7FE0
0100
0100
0100
0100
0100
1FC0
61F0
419C
430C
3F00
ENDCHAR
STARTCHAR 307F
ENCODING 12415
SWIDTH 1000 0
DWIDTH 25 0
BBX 19 18 3 -1
BITMAP
07F000
071800
002000
002000
004000
00C300
018180
078100
3FFB00
460F00
840380
8806C0
980460
F00C20
601800
003000
00E000
030000
ENDCHAR
STARTCHAR 3080
ENCODING 12416
SWIDTH 1000 0
DWIDTH 25 0
BBX 20 20 3 -1
BITMAP
0C0000
060000
060000
04E000
07C000
FC0000
0C01C0
080160
1C0220
3C0230
6C0270
4C0230
4C0200
680200
380200
100200
100200
100600
180E00
0FF800
ENDCHAR
STARTCHAR 3081
ENCODING 12417
SWIDTH 1000 0
DWIDTH 25 0
BBX 18 18 4 1
BITMAP
004000
006000
406000
604000
304000
31FC00
36C700
188180
398180
7900C0
4900C0
CE00C0
8600C0
860080
8E0180
9B0300
F00600
601800
ENDCHAR
STARTCHAR 3082
ENCODING 12418
SWIDTH 1000 0
DWIDTH 25 0
BBX 15 21 5 0
BITMAP
1000
0C00
0E00
0C00
8C00
6800
3F00
0F80
1800
3800
D000
9008
900C
7F84
1FC6
1006
1006
1006
100C
0818
07E0
ENDCHAR
STARTCHAR 3083
ENCODING 12419
SWIDTH 1000 0
DWIDTH 25 0
BBX 16 17 4 -1
BITMAP
0080
0040
03C0
101E
1063
1981
0E01
1C03
F23C
0300
0100
0080
0080
0080
0040
0040
0040
ENDCHAR
STARTCHAR 3084
ENCODING 12420
SWIDTH 960 0
DWIDTH 24 0
BBX 20 20 2 -1
BITMAP
003000
001800
01F800
181BC0
181C60
183030
08C030
058030
070030
1F0060
F987C0
708000
00C000
004000
006000
002000
003000
001800
001800
001800
ENDCHAR
STARTCHAR 3085
ENCODING 12421
SWIDTH 920 0
DWIDTH 23 0
BBX 14 15 5 -2
BITMAP
0380
8280
C5F0
C658
CC48
8844
9844
A844
A444
C44C
C4C8
C390
41E0
0180
0300
ENDCHAR
STARTCHAR 3086
ENCODING 12422
SWIDTH 960 0
DWIDTH 24 0
BBX 18 19 3 -2
BITMAP
00E000
813000
413C00
62FF00
639980
421980
4618C0
8A18C0
8A18C0
9218C0
9218C0
B218C0
A31980
A11100
61F200
607C00
006000
00C000
018000
ENDCHAR
STARTCHAR 3087
ENCODING 12423
SWIDTH 1000 0
DWIDTH 25 0
BBX 14 16 6 0
BITMAP
0400
0200
0200
0200
0238
03E0
0200
0200
0200
0200
0200
3F80
43F0
8238
C20C
7C00
ENDCHAR
STARTCHAR 3088
ENCODING 12424
SWIDTH 960 0
DWIDTH 24 0
BBX 16 20 4 0
BITMAP
0300
0380
0180
0100
0100
010E
01FC
0100
0100
0100
0100
0100
0100
0100
1FC0
61FC
818F
C183
7F00
3E00
ENDCHAR
STARTCHAR 3089
ENCODING 12425
SWIDTH 960 0
DWIDTH 24 0
BBX 13 22 6 -1
BITMAP
1000
1C00
0F80
0FC0
2000
6000
6000
6000
4000
4000
C000
C7C0
B870
E030
C018
8018
0018
0030
0030
00E0
0780
0800
ENDCHAR
STARTCHAR 308A
ENCODING 12426
SWIDTH 960 0
DWIDTH 24 0
BBX 11 20 7 -1
BITMAP
C380
C4C0
C8C0
9840
9060
A060
A060
E060
C060
C060
C060
C060
4060
0040
00C0
0080
0180
0300
0600
0800
ENDCHAR
STARTCHAR 308B
ENCODING 12427
SWIDTH 960 0
DWIDTH 24 0
BBX 14 19 5 -1
BITMAP
0060
1FF0
1860
00C0
0180
0300
0600
0C00
1BE0
3C38
7018
E00C
800C
800C
0F8C
19C8
1058
1870
07C0
ENDCHAR
STARTCHAR 308C
ENCODING 12428
SWIDTH 960 0
DWIDTH 24 0
BBX 19 20 3 -1
BITMAP
180000
0C0000
040000
040000
041C00
046600
0E8200
FF0200
E60200
0C0200
080400
180400
380400
280400
680400
C80420
D807C0
980380
080000
080000
ENDCHAR
STARTCHAR 308D
ENCODING 12429
SWIDTH 960 0
DWIDTH 24 0
BBX 16 20 4 0
BITMAP
0030
21F8
1F38
1860
00C0
0180
0300
0600
0DF0
1F0C
3806
F002
E003
8003
8003
0006
000E
001C
00F0
0700
ENDCHAR
STARTCHAR 308E
ENCODING 12430
SWIDTH 1000 0
DWIDTH 25 0
BBX 15 16 5 1
BITMAP
1800
0C00
0C00
0800
0800
1E00
FCF8
4B0C
1C06
1802
3802
2802
6806
D80C
9818
1820
ENDCHAR
STARTCHAR 308F
ENCODING 12431
SWIDTH 1000 0
DWIDTH 25 0
BBX 18 20 4 -1
BITMAP
0C0000
060000
060000
040000
040000
040000
1E0000
F63E00
65C300
0A0180
0C00C0
1800C0
3800C0
2800C0
6801C0
D80180
C80300
880600
081800
082000
ENDCHAR
STARTCHAR 3090
ENCODING 12432
SWIDTH 960 0
DWIDTH 24 0
BBX 18 19 3 1
BITMAP
00E000
11F000
1F7000
0CE000
00C000
008000
01BC00
01EF00
070380
1A0180
3600C0
4C00C0
8800C0
9800C0
B0F080
F11D80
E10F00
418600
00F800
ENDCHAR
STARTCHAR 3091
ENCODING 12433
SWIDTH 960 0
DWIDTH 24 0
BBX 18 19 3 1
BITMAP
007800
0FB000
046000
00C000
018000
03F800
0F0600
1DE600
1A3600
127E00
03FC00
01E000
030000
060000
0F1E00
1F6300
E1C180
C181C0
8187C0
ENDCHAR
STARTCHAR 3092
ENCODING 12434
SWIDTH 1000 0
DWIDTH 25 0
BBX 15 22 6 -2
BITMAP
0C00
0600
0600
0400
0DC0
0F80
FC00
3000
2008
5F0C
639E
C1B8
81E0
8380
0F80
1980
2180
4180
4180
4000
6020
3FF8
ENDCHAR
STARTCHAR 3093
ENCODING 12435
SWIDTH 1000 0
DWIDTH 25 0
BBX 19 20 3 1
BITMAP
018000
01C000
01C000
018000
030000
020000
060000
040000
0C0000
09E000
0E3000
1C1000
181000
301000
203000
603020
C03040
C03180
C03F00
801E00
ENDCHAR
STARTCHAR 30A1
ENCODING 12449
SWIDTH 960 0
DWIDTH 24 0
BBX 13 15 6 -2
BITMAP
0030
FFF8
F818
0020
0240
0380
0200
0200
0200
0600
0400
0C00
0800
1000
2000
ENDCHAR
STARTCHAR 30A2
ENCODING 12450
SWIDTH 960 0
DWIDTH 24 0
BBX 16 17 4 -1
BITMAP
81FE
FE07
600F
0018
0130
01C0
0180
0100
0100
0300
0200
0200
0600
0400
0C00
1800
1000
ENDCHAR
STARTCHAR 30A3
ENCODING 12451
SWIDTH 1000 0
DWIDTH 25 0
BBX 11 17 6 -1
BITMAP
0040
0060
00C0
0180
0100
0200
0700
0D00
1900
3100
4100
8100
0100
0100
0100
0300
0100
ENDCHAR
STARTCHAR 30A4
ENCODING 12452
SWIDTH 1000 0
DWIDTH 25 0
BBX 13 21 5 -1
BITMAP
0030
0038
0070
0060
00C0
0180
0180
0300
0780
0C80
1880
3080
6080
8080
0080
0080
0080
0180
0180
0180
0080
ENDCHAR
STARTCHAR 30A5
ENCODING 12453
SWIDTH 960 0
DWIDTH 24 0
BBX 13 15 6 -2
BITMAP
0600
0300
0200
8FF0
F018
4010
4010
4020
4020
0060
0040
0080
0180
0300
0400
ENDCHAR
STARTCHAR 30A6
ENCODING 12454
SWIDTH 1000 0
DWIDTH 25 0
BBX 17 20 4 -1
BITMAP
010000
01C000
008000
008000
008300
FFFF80
600300
600300
600200
600600
600600
200400
000C00
000800
001800
003000
006000
00C000
018000
020000
ENDCHAR
STARTCHAR 30A7
ENCODING 12455
SWIDTH 1000 0
DWIDTH 25 0
BBX 16 11 5 0
BITMAP
0030
00F8
1F00
0100
0100
0100
0100
0100
0100
07FE
F803
ENDCHAR
STARTCHAR 30A8
ENCODING 12456
SWIDTH 960 0
DWIDTH 24 0
BBX 21 13 2 2
BITMAP
000700
0FFF80
006000
006000
006000
006000
006000
006000
006000
006000
01FFE0
FE0018
400000
ENDCHAR
STARTCHAR 30A9
ENCODING 12457
SWIDTH 1000 0
DWIDTH 25 0
BBX 14 16 6 -1
BITMAP
0300
0180
0100
0100
0100
FFFC
6300
0700
0500
0900
1100
6100
8100
0700
0300
0100
ENDCHAR
STARTCHAR 30AA
ENCODING 12458
SWIDTH 960 0
DWIDTH 24 0
BBX 17 19 4 1
BITMAP
00E000
006000
006000
006000
006000
006700
FFFF80
70C000
00C000
01C000
036000
066000
0C6000
106000
606000
806000
01E000
00E000
004000
ENDCHAR
STARTCHAR 30AB
ENCODING 12459
SWIDTH 960 0
DWIDTH 24 0
BBX 15 18 4 1
BITMAP
00C0
00C0
0080
0080
008C
FFFE
7F06
0104
0304
0204
060C
0408
0C08
1818
3110
60F0
8060
0040
ENDCHAR
STARTCHAR 30AC
ENCODING 12460
SWIDTH 1000 0
DWIDTH 25 0
BBX 20 19 4 0
BITMAP
000040
00C620
00E190
00C0D0
00C0C0
019E00
7FFF00
618600
030600
030600
020400
060C00
0C0C00
0C0C00
181800
319800
60F000
807000
006000
ENDCHAR
STARTCHAR 30AD
ENCODING 12461
SWIDTH 960 0
DWIDTH 24 0
BBX 18 20 3 0
BITMAP
070000
030000
010000
018C00
01FE00
07C000
3C8000
008000
00C380
00DFC0
01F800
1F4000
F04000
006000
006000
002000
002000
003000
003000
001000
ENDCHAR
STARTCHAR 30AE
ENCODING 12462
SWIDTH 960 0
DWIDTH 24 0
BBX 20 21 3 0
BITMAP
0600E0
030730
030190
010180
018C80
01BE00
07C000
7C8000
008000
00C380
00DFC0
01F800
0FC000
F84000
006000
006000
002000
002000
003000
003000
001000
ENDCHAR
STARTCHAR 30AF
ENCODING 12463
SWIDTH 1000 0
DWIDTH 25 0
BBX 15 18 5 1
BITMAP
0600
0700
060C
0FFE
0C0C
1818
3010
6030
8060
0060
00C0
0180
0300
0600
0C00
1800
6000
8000
ENDCHAR
STARTCHAR 30B0
ENCODING 12464
SWIDTH 1000 0
DWIDTH 25 0
BBX 19 20 5 0
BITMAP
0000C0
000360
0301A0
030180
063C00
07FE00
0C0C00
181800
301000
603000
C06000
006000
00C000
018000
030000
060000
0C0000
180000
600000
800000
ENDCHAR
STARTCHAR 30B1
ENCODING 12465
SWIDTH 1000 0
DWIDTH 25 0
BBX 18 19 4 1
BITMAP
020000
070000
060000
060000
0C0780
1FFFC0
183000
303000
602000
C02000
006000
006000
004000
00C000
018000
010000
020000
040000
080000
ENDCHAR
STARTCHAR 30B2
ENCODING 12466
SWIDTH 960 0
DWIDTH 24 0
BBX 21 21 3 -1
BITMAP
000060
060038
0301D8
070060
060060
040180
0C3FE0
0FF000
183800
303000
603000
C02000
806000
006000
00C000
00C000
018000
010000
030000
040000
080000
ENDCHAR
STARTCHAR 30B3
ENCODING 12467
SWIDTH 1000 0
DWIDTH 25 0
BBX 15 13 5 2
BITMAP
001C
FFFE
600C
000C
0008
0008
0008
0018
0018
0018
0010
FFF8
4000
ENDCHAR
STARTCHAR 30B4
ENCODING 12468
SWIDTH 960 0
DWIDTH 24 0
BBX 21 17 3 2
BITMAP
000070
000338
000198
0000C0
800E40
7FFF00
200600
000400
000400
000400
000400
000C00
000C00
000800
000800
7FFC00
3C0000
ENDCHAR
STARTCHAR 30B5
ENCODING 12469
SWIDTH 960 0
DWIDTH 24 0
BBX 20 20 2 -3
BITMAP
001800
000C00
060C00
030C00
020C00
020C00
03FFE0
FF0C10
620C00
020C00
020C00
020C00
020800
021800
001800
001800
003000
003000
006000
004000
ENDCHAR
STARTCHAR 30B6
ENCODING 12470
SWIDTH 960 0
DWIDTH 24 0
BBX 22 21 2 -2
BITMAP
000038
001C8C
040C64
070C30
030C30
030C00
030DE0
83FFF0
FF0C00
730C00
030C00
030C00
030C00
030C00
030800
000800
001800
001000
003000
002000
004000
ENDCHAR
STARTCHAR 30B7
ENCODING 12471
SWIDTH 1000 0
DWIDTH 25 0
BBX 16 19 4 -1
BITMAP
1800
0E00
0300
0300
0000
0000
E000
3801
0C02
0C06
000C
0018
0030
00E0
01C0
0700
7E00
3800
1000
ENDCHAR
STARTCHAR 30B8
ENCODING 12472
SWIDTH 1000 0
DWIDTH 25 0
BBX 18 18 5 0
BITMAP
380300
0E11C0
060CC0
000600
000200
000000
F00200
380400
180800
001800
003000
00E000
01C000
030000
0E0000
FC0000
700000
200000
ENDCHAR
STARTCHAR 30B9
ENCODING 12473
SWIDTH 1000 0
DWIDTH 25 0
BBX 17 16 3 1
BITMAP
000C00
007E00
1F8E00
0C1C00
001800
003800
003000
006000
00E000
00F000
019800
070600
0E0700
180380
700180
800180
ENDCHAR
STARTCHAR 30BA
ENCODING 12474
SWIDTH 960 0
DWIDTH 24 0
BBX 20 19 3 2
BITMAP
0000E0
000330
0001B0
000C80
007E00
1F8E00
0C1C00
001800
003800
003000
006000
00E000
01F000
039800
070600
0E0700
180300
600180
800180
ENDCHAR
STARTCHAR 30BB
ENCODING 12475
SWIDTH 960 0
DWIDTH 24 0
BBX 19 18 2 0
BITMAP
070000
038000
01C000
018000
018000
010080
010FC0
01F9E0
0F8180
FD0300
410400
010000
010000
010000
010000
010000
018000
00FF80
ENDCHAR
STARTCHAR 30BC
ENCODING 12476
SWIDTH 1000 0
DWIDTH 25 0
BBX 21 19 2 1
BITMAP
0000E0
070038
018198
0180C0
0180C0
018180
0187C0
01BDE0
01E180
0F8300
FD8600
618000
018000
018000
018000
018000
018000
00E780
007FC0
ENDCHAR
STARTCHAR 30BD
ENCODING 12477
SWIDTH 1000 0
DWIDTH 25 0
BBX 16 16 4 0
BITMAP
0006
C003
6007
3006
1806
180C
000C
0008
0018
0030
0030
0060
00C0
0180
0300
0C00
ENDCHAR
STARTCHAR 30BE
ENCODING 12478
SWIDTH 1000 0
DWIDTH 25 0
BBX 21 19 3 1
BITMAP
000070
000338
000098
0004C0
800740
600700
300600
180600
180400
000C00
000C00
001800
003000
003000
006000
00C000
018000
030000
0C0000
ENDCHAR
STARTCHAR 30BF
ENCODING 12479
SWIDTH 1000 0
DWIDTH 25 0
BBX 15 18 5 0
BITMAP
0600
0300
070C
07FE
0C0C
1808
1818
3610
43B0
81E0
00E0
00C0
01E0
0320
0600
0C00
3800
6000
ENDCHAR
STARTCHAR 30C0
ENCODING 12480
SWIDTH 1000 0
DWIDTH 25 0
BBX 19 19 5 0
BITMAP
0004C0
060360
0301A0
060C80
07FE00
0C0C00
180800
181800
361000
43B000
81E000
00E000
00C000
01E000
032000
060000
0C0000
380000
600000
ENDCHAR
STARTCHAR 30C1
ENCODING 12481
SWIDTH 960 0
DWIDTH 24 0
BBX 19 19 3 -2
BITMAP
001800
007C00
01E000
1EE000
006000
006000
0061C0
01FFE0
FF6060
E06000
006000
004000
00C000
00C000
018000
018000
030000
060000
0C0000
ENDCHAR
STARTCHAR 30C2
ENCODING 12482
SWIDTH 960 0
DWIDTH 24 0
BBX 21 19 3 -2
BITMAP
001870
003C18
00F0C8
0FC060
006020
006000
0061C0
01FFE0
FE6000
606000
006000
004000
00C000
00C000
018000
010000
030000
060000
080000
ENDCHAR
STARTCHAR 30C3
ENCODING 12483
SWIDTH 960 0
DWIDTH 24 0
BBX 13 14 6 -1
BITMAP
0800
0418
C210
6230
6020
0060
0040
00C0
0080
0100
0200
0400
1800
2000
ENDCHAR
STARTCHAR 30C4
ENCODING 12484
SWIDTH 960 0
DWIDTH 24 0
BBX 16 17 4 0
BITMAP
0302
8183
6186
3086
3006
100C
000C
0018
0018
0030
0030
0060
00C0
0180
0300
0600
1800
ENDCHAR
STARTCHAR 30C5
ENCODING 12485
SWIDTH 960 0
DWIDTH 24 0
BBX 20 21 4 0
BITMAP
000060
000230
0001D0
000040
030300
818380
618300
318300
300600
100600
000E00
000C00
001800
001800
003000
006000
00C000
018000
030000
060000
180000
ENDCHAR
STARTCHAR 30C6
ENCODING 12486
SWIDTH 960 0
DWIDTH 24 0
BBX 18 18 4 -1
BITMAP
103800
0FFC00
000000
000000
000000
07FF80
FF81C0
60C000
00C000
008000
018000
018000
010000
030000
020000
040000
080000
100000
ENDCHAR
STARTCHAR 30C7
ENCODING 12487
SWIDTH 1000 0
DWIDTH 25 0
BBX 21 20 3 -1
BITMAP
000040
103830
0FFD98
0000C8
000060
000020
07FF80
FF81C0
60C000
00C000
008000
008000
018000
018000
030000
030000
060000
0C0000
180000
200000
ENDCHAR
STARTCHAR 30C8
ENCODING 12488
SWIDTH 1000 0
DWIDTH 25 0
BBX 10 20 9 -1
BITMAP
C000
E000
4000
4000
4000
4000
4000
4000
7800
4700
4380
41C0
40C0
4000
4000
4000
C000
C000
C000
4000
ENDCHAR
STARTCHAR 30C9
ENCODING 12489
SWIDTH 960 0
DWIDTH 24 0
BBX 14 20 6 0
BITMAP
E000
7038
601C
60C4
6070
6010
6000
7800
6E00
6380
61C0
60C0
6040
6000
6000
6000
6000
6000
6000
2000
ENDCHAR
STARTCHAR 30CA
ENCODING 12490
SWIDTH 960 0
DWIDTH 24 0
BBX 18 21 3 -2
BITMAP
008000
00E000
006000
006000
006000
006000
006180
FFFFC0
784000
004000
004000
004000
00C000
008000
008000
018000
010000
030000
060000
080000
100000
ENDCHAR
STARTCHAR 30CB
ENCODING 12491
SWIDTH 1000 0
DWIDTH 25 0
BBX 19 12 3 2
BITMAP
000E00
0FFE00
040000
000000
000000
000000
000000
000000
000000
000180
FFFFC0
7C0020
ENDCHAR
STARTCHAR 30CC
ENCODING 12492
SWIDTH 1000 0
DWIDTH 25 0
BBX 14 16 5 0
BITMAP
0018
01FC
3E18
1010
0030
0020
0C60
0340
01C0
01E0
0330
061C
0C0C
1804
3000
C000
ENDCHAR
STARTCHAR 30CD
ENCODING 12493
SWIDTH 1000 0
DWIDTH 25 0
BBX 17 22 4 -1
BITMAP
030000
01C000
00E000
006000
000000
003000
01F800
1F2000
086000
00C000
018000
019000
03CC00
068700
0C8300
108180
608080
808000
008000
008000
018000
008000
ENDCHAR
STARTCHAR 30CE
ENCODING 12494
SWIDTH 1000 0
DWIDTH 25 0
BBX 14 16 5 1
BITMAP
0018
001C
001C
0018
0030
0030
0060
0060
00C0
0180
0380
0700
0E00
1800
3000
C000
ENDCHAR
STARTCHAR 30CF
ENCODING 12495
SWIDTH 960 0
DWIDTH 24 0
BBX 20 12 2 2
BITMAP
020000
038600
038300
030180
0600C0
060060
0C0060
0C0070
180030
300030
600030
C00000
ENDCHAR
STARTCHAR 30D0
ENCODING 12496
SWIDTH 960 0
DWIDTH 24 0
BBX 21 16 2 2
BITMAP
000070
000018
0000C8
000060
000030
030630
038300
030180
0200C0
060040
0C0060
0C0030
180030
300030
600030
800000
ENDCHAR
STARTCHAR 30D1
ENCODING 12497
SWIDTH 960 0
DWIDTH 24 0
BBX 21 16 2 1
BITMAP
000070
000088
000088
000088
030470
038200
030380
030180
0600C0
060060
0C0070
180070
100070
200030
400000
800000
ENDCHAR
STARTCHAR 30D2
ENCODING 12498
SWIDTH 1000 0
DWIDTH 25 0
BBX 15 16 5 1
BITMAP
C000
6000
6018
601C
6030
60E0
6180
6600
7800
6000
6000
6000
6000
6000
701C
1FFE
ENDCHAR
STARTCHAR 30D3
ENCODING 12499
SWIDTH 960 0
DWIDTH 24 0
BBX 17 19 5 1
BITMAP
000700
001980
800C80
E00600
600200
601800
601C00
607000
60C000
630000
6E0000
700000
600000
600000
600000
600000
600000
303E00
1FFC00
ENDCHAR
STARTCHAR 30D4
ENCODING 12500
SWIDTH 1000 0
DWIDTH 25 0
BBX 18 19 5 0
BITMAP
000380
000440
000440
C00440
E00380
601800
601C00
603800
60E000
638000
6E0000
780000
600000
600000
600000
600000
600000
301C00
1FFC00
ENDCHAR
STARTCHAR 30D5
ENCODING 12501
SWIDTH 1000 0
DWIDTH 25 0
BBX 16 17 4 0
BITMAP
0006
FFFF
7E07
4006
0004
000C
000C
0018
0018
0030
0060
00E0
00C0
0380
0600
0C00
1000
ENDCHAR
STARTCHAR 30D6
ENCODING 12502
SWIDTH 1000 0
DWIDTH 25 0
BBX 21 19 3 1
BITMAP
000060
000118
0000C8
000260
FFFF60
7C0700
400600
000400
000C00
000C00
001800
001800
003000
006000
00C000
01C000
030000
060000
080000
ENDCHAR
STARTCHAR 30D7
ENCODING 12503
SWIDTH 1000 0
DWIDTH 25 0
BBX 21 19 3 0
BITMAP
000070
000088
000088
000288
C0FF70
7F0300
200600
000600
000600
000C00
000C00
001800
001800
003000
006000
00C000
018000
030000
0C0000
ENDCHAR
STARTCHAR 30D8
ENCODING 12504
SWIDTH 1000 0
DWIDTH 25 0
BBX 21 12 2 2
BITMAP
01C000
036000
063000
0C1800
180C00
300600
E00300
6001C0
0000E0
000070
000030
000018
ENDCHAR
STARTCHAR 30D9
ENCODING 12505
SWIDTH 1000 0
DWIDTH 25 0
BBX 22 15 2 2
BITMAP
000070
000038
00018C
01C0C0
032060
063020
041800
080C00
180600
F00380
6001C0
0000F0
000070
000038
000018
ENDCHAR
STARTCHAR 30DA
ENCODING 12506
SWIDTH 960 0
DWIDTH 24 0
BBX 20 14 2 3
BITMAP
0001C0
000220
018220
024220
0661C0
0C3000
181800
300C00
600600
E00300
400180
0000E0
000070
000030
ENDCHAR
STARTCHAR 30DB
ENCODING 12507
SWIDTH 1000 0
DWIDTH 25 0
BBX 18 19 4 0
BITMAP
01C000
00C000
00C000
00C000
00C000
00C180
FFFFC0
60C000
00C000
00C800
10C600
30C300
60C180
C0C180
C0C0C0
84C0C0
03C000
00C000
008000
ENDCHAR
STARTCHAR 30DC
ENCODING 12508
SWIDTH 960 0
DWIDTH 24 0
BBX 20 20 3 1
BITMAP
0000E0
01C030
00C190
00C0C0
00C0C0
00C000
00C380
FFFFC0
70C000
00C000
00C800
10C600
30C300
60C180
E0C180
C0C080
86C000
01C000
00C000
008000
ENDCHAR
STARTCHAR 30DD
ENCODING 12509
SWIDTH 1000 0
DWIDTH 25 0
BBX 19 20 4 0
BITMAP
0003C0
038460
01C420
01C460
0083C0
008000
008300
FFFF80
788000
008000
009000
108C00
308600
608300
E08180
C08180
87C080
03C000
01C000
008000
ENDCHAR
STARTCHAR 30DE
ENCODING 12510
SWIDTH 1000 0
DWIDTH 25 0
BBX 20 14 2 0
BITMAP
0000C0
80FFE0
7FC0F0
7800C0
200180
000300
000600
030C00
01C800
007000
003000
003800
001800
001800
ENDCHAR
STARTCHAR 30DF
ENCODING 12511
SWIDTH 960 0
DWIDTH 24 0
BBX 10 19 7 -1
BITMAP
4000
3E00
0780
01C0
00C0
0000
0000
3C00
0F00
0380
0180
0000
0000
F000
1C00
0700
0380
01C0
00C0
ENDCHAR
STARTCHAR 30E0
ENCODING 12512
SWIDTH 1000 0
DWIDTH 25 0
BBX 17 16 4 2
BITMAP
018000
00C000
00C000
008000
018000
018000
030000
020000
020800
040C00
040600
080700
087B00
1FC180
FE0180
700180
ENDCHAR
STARTCHAR 30E1
ENCODING 12513
SWIDTH 1000 0
DWIDTH 25 0
BBX 14 16 5 1
BITMAP
0018
001C
0018
0038
0830
0660
03E0
00C0
00E0
01B0
0338
0618
0C08
1800
6000
C000
ENDCHAR
STARTCHAR 30E2
ENCODING 12514
SWIDTH 1000 0
DWIDTH 25 0
BBX 20 16 3 1
BITMAP
000700
007F80
1F8000
00C000
00C000
008000
008000
01FFE0
0FFFF0
F88000
008000
008000
008000
008000
008100
007FC0
ENDCHAR
STARTCHAR 30E3
ENCODING 12515
SWIDTH 960 0
DWIDTH 24 0
BBX 15 16 5 -1
BITMAP
1C00
0C00
040C
067E
03CC
1E08
FA10
4310
0100
0100
0180
0180
0080
00C0
00C0
0040
ENDCHAR
STARTCHAR 30E4
ENCODING 12516
SWIDTH 1000 0
DWIDTH 25 0
BBX 19 20 3 0
BITMAP
060000
030000
030000
010000
0101C0
01FEE0
8FE180
FF8180
608300
008600
008400
00C000
00C000
00C000
004000
006000
006000
006000
006000
002000
ENDCHAR
STARTCHAR 30E5
ENCODING 12517
SWIDTH 1000 0
DWIDTH 25 0
BBX 17 10 4 1
BITMAP
0FF800
071800
001000
003000
003000
002000
002000
002000
03FF00
FC0380
ENDCHAR
STARTCHAR 30E6
ENCODING 12518
SWIDTH 1000 0
DWIDTH 25 0
BBX 21 13 2 2
BITMAP
043F00
07C700
000600
000600
000400
000400
000C00
000C00
000C00
000800
83FFF0
FE0038
600000
ENDCHAR
STARTCHAR 30E7
ENCODING 12519
SWIDTH 960 0
DWIDTH 24 0
BBX 11 13 7 -1
BITMAP
0040
FFE0
4040
0040
0040
0040
8FC0
7040
0040
0040
0040
8FC0
7840
ENDCHAR
STARTCHAR 30E8
ENCODING 12520
SWIDTH 960 0
DWIDTH 24 0
BBX 14 16 5 0
BITMAP
0018
81FC
7FFC
4018
0018
0018
0018
FFF8
7C18
0018
0018
0018
0018
80F8
FFD8
6018
ENDCHAR
STARTCHAR 30E9
ENCODING 12521
SWIDTH 1000 0
DWIDTH 25 0
BBX 15 18 5 -1
BITMAP
0030
3FFC
0000
0000
000C
FFFE
7E0C
200C
0018
0018
0030
0030
0060
00C0
0180
0300
0600
1800
ENDCHAR
STARTCHAR 30EA
ENCODING 12522
SWIDTH 1000 0
DWIDTH 25 0
BBX 12 20 6 -2
BITMAP
0060
8030
E030
6030
6030
6030
6030
6030
6030
6030
6030
6030
0060
0060
0060
00C0
00C0
0180
0300
0400
ENDCHAR
STARTCHAR 30EB
ENCODING 12523
SWIDTH 960 0
DWIDTH 24 0
BBX 19 16 3 1
BITMAP
018000
18E000
0CE000
0CC000
0C4000
0C4000
0C4020
0C4020
0C4040
084080
184180
184700
304E00
20F800
60F000
806000
ENDCHAR
STARTCHAR 30EC
ENCODING 12524
SWIDTH 1000 0
DWIDTH 25 0
BBX 15 17 6 1
BITMAP
C000
6000
6000
6000
6000
6000
6002
6004
6008
6030
6060
60C0
6380
6F00
7C00
7000
2000
ENDCHAR
STARTCHAR 30ED
ENCODING 12525
SWIDTH 960 0
DWIDTH 24 0
BBX 16 15 4 1
BITMAP
0006
C1FF
FFE7
6006
6006
6006
2006
2004
200C
200C
300C
3008
3FFE
3800
1000
ENDCHAR
STARTCHAR 30EE
ENCODING 12526
SWIDTH 1000 0
DWIDTH 25 0
BBX 13 12 6 -1
BITMAP
83F8
7C18
4010
4010
4030
4020
0060
0040
0080
0180
0200
0400
ENDCHAR
STARTCHAR 30EF
ENCODING 12527
SWIDTH 1000 0
DWIDTH 25 0
BBX 14 18 6 -1
BITMAP
0018
FFFC
F81C
C018
C018
C018
C010
C030
C030
0020
0060
0060
00C0
0080
0100
0200
0400
0800
ENDCHAR
STARTCHAR 30F0
ENCODING 12528
SWIDTH 1000 0
DWIDTH 25 0
BBX 20 21 2 -1
BITMAP
007000
003800
003000
003000
001000
3FFFC0
1F1000
0E1000
061000
061000
0610C0
07FFF0
FF1000
601000
001000
001000
001000
003000
003000
003000
001000
ENDCHAR
STARTCHAR 30F1
ENCODING 12529
SWIDTH 1000 0
DWIDTH 25 0
BBX 21 14 2 1
BITMAP
000180
0FFFC0
0E0300
000600
00E800
007000
006000
006000
006000
006000
006060
01FFF0
FE00F8
600000
ENDCHAR
STARTCHAR 30F2
ENCODING 12530
SWIDTH 1000 0
DWIDTH 25 0
BBX 15 18 4 -1
BITMAP
000C
0026
3FFE
1804
000C
000C
FFFE
7E18
0018
0010
0030
0060
0060
00C0
0180
0300
0600
0800
ENDCHAR
STARTCHAR 30F3
ENCODING 12531
SWIDTH 1000 0
DWIDTH 25 0
BBX 15 16 5 1
BITMAP
4000
3800
1C00
0C00
0400
0002
0004
0008
0018
0060
00C0
0380
8F00
FC00
7000
2000
ENDCHAR
STARTCHAR 30F4
ENCODING 12532
SWIDTH 960 0
DWIDTH 24 0
BBX 19 21 4 0
BITMAP
0000C0
000060
038320
018180
018080
018680
FFFF00
600700
400600
400600
600400
600C00
200800
001800
001000
003000
006000
004000
018000
030000
040000
ENDCHAR
STARTCHAR 30F5
ENCODING 12533
SWIDTH 960 0
DWIDTH 24 0
BBX 14 15 5 1
BITMAP
0080
00C0
0080
0180
3FF8
010C
0308
0208
0418
0C10
1810
1030
6160
81C0
0080
ENDCHAR
STARTCHAR 30F6
ENCODING 12534
SWIDTH 960 0
DWIDTH 24 0
BBX 14 16 5 -2
BITMAP
0800
0C00
0C00
1800
1038
3FFC
2180
4100
8100
0100
0300
0200
0600
0C00
0800
3000
ENDCHAR
STARTCHAR 3131
ENCODING 12593
SWIDTH 1000 0
DWIDTH 25 0
BBX 15 12 4 2
BITMAP
8006
FFFE
2006
0006
0006
0006
0006
0006
0006
0006
0006
0006
ENDCHAR
STARTCHAR 3132
ENCODING 12594
SWIDTH 1000 0
DWIDTH 25 0
BBX 15 12 5 2
BITMAP
0606
FEFE
4646
0606
0606
0606
0606
0606
0606
0606
0606
0404
ENDCHAR
STARTCHAR 3133
ENCODING 12595
SWIDTH 960 0
DWIDTH 24 0
BBX 17 12 4 3
BITMAP
063000
FE1C00
460C00
060C00
061C00
061C00
063200
063300
066180
06C180
068080
050000
ENDCHAR
STARTCHAR 3134
ENCODING 12596
SWIDTH 1000 0
DWIDTH 25 0
BBX 17 10 4 4
BITMAP
E00000
700000
300000
300000
300000
300000
300000
300000
300780
1FFF80
ENDCHAR
STARTCHAR 3135
ENCODING 12597
SWIDTH 960 0
DWIDTH 24 0
BBX 18 12 2 2
BITMAP
0003C0
F1FFC0
301C00
300C00
301C00
301E00
301380
303180
31E0C0
3F4040
188000
010000
ENDCHAR
STARTCHAR 3136
ENCODING 12598
SWIDTH 1000 0
DWIDTH 25 0
BBX 18 11 3 3
BITMAP
E01E00
3001C0
31FFC0
300800
303E00
306300
306180
306180
30E180
3F6300
183E00
ENDCHAR
STARTCHAR 3137
ENCODING 12599
SWIDTH 1000 0
DWIDTH 25 0
BBX 17 11 4 3
BITMAP
E01E00
FFFE00
300000
300000
300000
300000
300000
300000
300000
300700
1FFF80
ENDCHAR
STARTCHAR 3138
ENCODING 12600
SWIDTH 960 0
DWIDTH 24 0
BBX 17 11 3 4
BITMAP
FFFF00
3F3F00
303000
303000
303000
303000
303000
303000
303000
31B180
3FBF80
ENDCHAR
STARTCHAR 3139
ENCODING 12601
SWIDTH 1000 0
DWIDTH 25 0
BBX 16 11 5 4
BITMAP
FFFC
2018
0018
0018
C018
7FFC
3000
3000
3000
3006
3FFF
ENDCHAR
STARTCHAR 313A
ENCODING 12602
SWIDTH 960 0
DWIDTH 24 0
BBX 17 12 3 2
BITMAP
418080
7FBF80
018180
018180
010180
FF8180
300180
300180
300180
30E180
3F8180
180100
ENDCHAR
STARTCHAR 313B
ENCODING 12603
SWIDTH 1000 0
DWIDTH 25 0
BBX 17 13 3 2
BITMAP
036180
7F7F80
033180
033180
033180
FF3180
303180
303100
303100
303100
33BF80
3E3000
100000
ENDCHAR
STARTCHAR 313C
ENCODING 12604
SWIDTH 1000 0
DWIDTH 25 0
BBX 17 13 4 2
BITMAP
000400
034380
FF7180
233180
033180
023180
FF3F80
303180
303180
303180
31FF80
3F3180
182100
ENDCHAR
STARTCHAR 313D
ENCODING 12605
SWIDTH 1000 0
DWIDTH 25 0
BBX 17 13 4 2
BITMAP
863000
FE1C00
060C00
060C00
061800
FE1C00
603600
602300
606380
60C180
638080
7F0000
220000
ENDCHAR
STARTCHAR 313E
ENCODING 12606
SWIDTH 960 0
DWIDTH 24 0
BBX 17 12 2 2
BITMAP
034300
7F7F80
033000
033000
023300
FF3F00
303000
303000
303000
30B000
373F80
3C0000
ENDCHAR
STARTCHAR 313F
ENCODING 12607
SWIDTH 1000 0
DWIDTH 25 0
BBX 18 12 4 2
BITMAP
030180
FF7F80
030400
022300
022300
FF3300
603200
603600
603600
608680
7FFFC0
780000
ENDCHAR
STARTCHAR 3140
ENCODING 12608
SWIDTH 1000 0
DWIDTH 25 0
BBX 19 12 3 3
BITMAP
003F00
FF0F00
0300E0
03FFE0
026400
FF1F00
301980
3030C0
3030C0
30F0C0
3F1980
3C0F00
ENDCHAR
STARTCHAR 3141
ENCODING 12609
SWIDTH 1000 0
DWIDTH 25 0
BBX 14 12 5 1
BITMAP
FFFC
300C
300C
3008
3008
3018
3018
3018
3010
3FF8
3000
2000
ENDCHAR
STARTCHAR 3142
ENCODING 12610
SWIDTH 1000 0
DWIDTH 25 0
BBX 13 14 5 1
BITMAP
0078
F018
7018
3018
3018
3FF8
3018
3018
3018
3018
3018
3FF8
3018
2010
ENDCHAR
STARTCHAR 3143
ENCODING 12611
SWIDTH 1000 0
DWIDTH 25 0
BBX 15 12 5 2
BITMAP
0D8E
E6E6
6666
6666
7E7E
6666
6666
6666
6666
7E7E
6666
4400
ENDCHAR
STARTCHAR 3144
ENCODING 12612
SWIDTH 1000 0
DWIDTH 25 0
BBX 18 12 4 3
BITMAP
0F0C00
E30600
630600
630E00
7F0C00
630E00
631B00
633180
632180
7F40C0
638000
400000
ENDCHAR
STARTCHAR 3145
ENCODING 12613
SWIDTH 1000 0
DWIDTH 25 0
BBX 16 13 4 2
BITMAP
0180
00E0
0060
00E0
00C0
01C0
03A0
0730
0E1C
1C0E
3807
6003
C001
ENDCHAR
STARTCHAR 3146
ENCODING 12614
SWIDTH 1000 0
DWIDTH 25 0
BBX 17 11 4 4
BITMAP
183800
0E1C00
061C00
061800
0E1800
0F3400
19E300
10E300
20C180
418000
830000
ENDCHAR
STARTCHAR 3147
ENCODING 12615
SWIDTH 1000 0
DWIDTH 25 0
BBX 13 13 6 3
BITMAP
0400
0600
1FC0
3060
6030
C018
C018
C018
C018
C018
6030
3060
0FC0
ENDCHAR
STARTCHAR 3148
ENCODING 12616
SWIDTH 1000 0
DWIDTH 25 0
BBX 17 13 4 2
BITMAP
000600
7FFE00
180C00
001C00
003800
003000
006000
00E000
039800
070E00
0C0780
380180
E00080
ENDCHAR
STARTCHAR 3149
ENCODING 12617
SWIDTH 1000 0
DWIDTH 25 0
BBX 18 12 3 2
BITMAP
0000C0
FFFFC0
0C0600
0C0600
0C0600
0E0F00
1B0900
131980
31B0C0
606040
C04040
808000
ENDCHAR
STARTCHAR 314A
ENCODING 12618
SWIDTH 1000 0
DWIDTH 25 0
BBX 16 14 5 2
BITMAP
07E0
03E0
0000
000C
7FFC
0018
0030
0060
00C0
01C0
0738
0E1E
3807
E003
ENDCHAR
STARTCHAR 314B
ENCODING 12619
SWIDTH 1000 0
DWIDTH 25 0
BBX 15 14 4 1
BITMAP
0006
7FFE
1006
0006
001E
FFEC
3E0C
000C
0018
0018
0030
0030
0060
00C0
ENDCHAR
STARTCHAR 314C
ENCODING 12620
SWIDTH 960 0
DWIDTH 24 0
BBX 16 10 4 4
BITMAP
FFFC
3000
3000
3000
3FFC
3000
3000
3000
3004
3FFF
ENDCHAR
STARTCHAR 314D
ENCODING 12621
SWIDTH 1000 0
DWIDTH 25 0
BBX 17 11 4 3
BITMAP
000E00
3FFE00
000000
087000
0C3800
063000
063000
063000
062000
002780
FFFF80
ENDCHAR
STARTCHAR 314E
ENCODING 12622
SWIDTH 1000 0
DWIDTH 25 0
BBX 17 15 4 3
BITMAP
07F000
03F000
000000
000780
FFFF80
388000
00C000
03F000
061800
0C0C00
0C0C00
0C0C00
0C1C00
063800
01E000
ENDCHAR
STARTCHAR 314F
ENCODING 12623
SWIDTH 960 0
DWIDTH 24 0
BBX 9 21 8 -3
BITMAP
F000
3000
3000
3000
3000
3000
3000
3000
3000
3380
3F80
3000
3000
3000
3000
3000
3000
3000
3000
3000
3000
ENDCHAR
STARTCHAR 3150
ENCODING 12624
SWIDTH 960 0
DWIDTH 24 0
BBX 8 23 7 -4
BITMAP
0E
07
F3
33
33
33
33
33
33
33
33
3F
33
33
33
33
33
33
33
33
23
03
02
ENDCHAR
STARTCHAR 3151
ENCODING 12625
SWIDTH 960 0
DWIDTH 24 0
BBX 9 22 10 -4
BITMAP
8000
7000
3000
3000
3000
3000
3000
3780
3F80
3000
3000
3000
3380
3F80
3000
3000
3000
3000
3000
3000
3000
2000
ENDCHAR
STARTCHAR 3152
ENCODING 12626
SWIDTH 960 0
DWIDTH 24 0
BBX 8 23 7 -4
BITMAP
0C
07
F3
33
33
33
33
33
3F
33
33
33
33
3F
33
33
33
33
33
33
23
03
02
ENDCHAR
STARTCHAR 3153
ENCODING 12627
SWIDTH 960 0
DWIDTH 24 0
BBX 9 22 5 -4
BITMAP
0400
0780
0180
0180
0180
0180
0180
0180
0180
0180
FF80
2180
0180
0180
0180
0180
0180
0180
0180
0180
0180
0100
ENDCHAR
STARTCHAR 3154
ENCODING 12628
SWIDTH 1000 0
DWIDTH 25 0
BBX 12 23 6 -4
BITMAP
01C0
0070
0E30
0730
0330
0330
0330
0330
0330
0330
FF30
2330
0330
0330
0330
0330
0330
0330
0330
0330
0230
0030
0020
ENDCHAR
STARTCHAR 3155
ENCODING 12629
SWIDTH 960 0
DWIDTH 24 0
BBX 9 22 6 -4
BITMAP
0400
0380
0180
0180
0180
0180
0180
0180
FF80
0180
0180
0180
0180
FF80
0180
0180
0180
0180
0180
0180
0180
0100
ENDCHAR
STARTCHAR 3156
ENCODING 12630
SWIDTH 1000 0
DWIDTH 25 0
BBX 11 23 5 -3
BITMAP
0380
00E0
1C60
0660
0660
0660
0660
0660
FE60
0660
0660
0660
0660
FE60
0660
0660
0660
0660
0660
0660
0460
0060
0040
ENDCHAR
STARTCHAR 3157
ENCODING 12631
SWIDTH 960 0
DWIDTH 24 0
BBX 22 13 1 2
BITMAP
00E000
003000
003000
003000
003000
003000
003000
003000
003000
003000
003038
FFFFFC
3F0000
ENDCHAR
STARTCHAR 3158
ENCODING 12632
SWIDTH 1000 0
DWIDTH 25 0
BBX 22 23 2 -3
BITMAP
000F00
000380
000180
000180
000180
000180
000180
000180
000180
000180
0F0180
03019C
0301FC
030780
03F980
FF8180
700180
000180
000180
000180
000180
000180
000100
ENDCHAR
STARTCHAR 3159
ENCODING 12633
SWIDTH 1000 0
DWIDTH 25 0
BBX 19 23 3 -3
BITMAP
0001C0
0018E0
000E60
000660
000660
000660
000660
000660
000660
000660
0F0660
0307E0
030660
030E60
03F660
FF8660
380660
000660
000660
000660
000460
000060
000040
ENDCHAR
STARTCHAR 315A
ENCODING 12634
SWIDTH 960 0
DWIDTH 24 0
BBX 18 23 3 -4
BITMAP
000380
0001C0
0000C0
0000C0
0000C0
0000C0
0000C0
0000C0
0000C0
0000C0
0700C0
0380C0
0180C0
0187C0
01FCC0
FFC0C0
3800C0
0000C0
0000C0
0000C0
0000C0
0000C0
000080
ENDCHAR
STARTCHAR 315B
ENCODING 12635
SWIDTH 1000 0
DWIDTH 25 0
BBX 22 13 2 2
BITMAP
000400
000700
078380
038300
018300
018300
018300
018200
008600
008600
008438
FFFFFC
7E0000
ENDCHAR
STARTCHAR 315C
ENCODING 12636
SWIDTH 960 0
DWIDTH 24 0
BBX 21 15 2 1
BITMAP
0000F8
FFFFF8
306000
006000
006000
006000
006000
006000
006000
006000
006000
006000
006000
006000
004000
ENDCHAR
STARTCHAR 315D
ENCODING 12637
SWIDTH 960 0
DWIDTH 24 0
BBX 19 23 2 -2
BITMAP
000180
0000E0
000060
000060
000060
000060
000060
000060
000060
000060
000060
000060
001E60
FFF060
7FC060
00CFE0
00C460
00C060
00C060
00C060
00C060
008060
000040
ENDCHAR
STARTCHAR 315E
ENCODING 12638
SWIDTH 1000 0
DWIDTH 25 0
BBX 19 23 3 -3
BITMAP
0001E0
001C60
000E60
000660
000660
000660
000660
000660
000660
000660
000660
000660
00E660
FF0660
037E60
030660
030660
030660
030660
020660
000660
000060
000040
ENDCHAR
STARTCHAR 315F
ENCODING 12639
SWIDTH 1000 0
DWIDTH 25 0
BBX 19 23 3 -4
BITMAP
000380
0000E0
000060
000060
000060
000060
000060
000060
000060
000060
000060
000060
000060
001FE0
FFF060
3FC060
00C060
00C060
00C060
00C060
00C060
00C060
000060
ENDCHAR
STARTCHAR 3160
ENCODING 12640
SWIDTH 960 0
DWIDTH 24 0
BBX 21 15 2 0
BITMAP
000070
FFFFF8
630C00
030C00
030C00
030C00
030C00
030C00
030C00
030C00
030C00
030C00
030C00
020C00
000800
ENDCHAR
STARTCHAR 3161
ENCODING 12641
SWIDTH 1000 0
DWIDTH 25 0
BBX 21 3 2 7
BITMAP
000078
FFFFF8
7C0000
ENDCHAR
STARTCHAR 3162
ENCODING 12642
SWIDTH 960 0
DWIDTH 24 0
BBX 18 23 3 -3
BITMAP
000780
0001C0
0000C0
0000C0
0000C0
0000C0
0000C0
0000C0
0000C0
0000C0
0000C0
0000C0
0000C0
0001C0
007EC0
FFE0C0
7C00C0
0000C0
0000C0
0000C0
0000C0
0000C0
000080
ENDCHAR
STARTCHAR 3163
ENCODING 12643
SWIDTH 960 0
DWIDTH 24 0
BBX 4 22 9 -3
BITMAP
C0
70
30
30
30
30
30
30
30
30
30
30
30
30
30
30
30
30
30
30
30
20
ENDCHAR
STARTCHAR 3164
ENCODING 12644
SWIDTH 1000 0
DWIDTH 25 0
BBX 0 0 0 0
BITMAP
ENDCHAR
STARTCHAR 3165
ENCODING 12645
SWIDTH 1000 0
DWIDTH 25 0
BBX 17 11 3 2
BITMAP
F0F000
303000
303000
303000
303000
303000
303000
303000
303000
30B080
3FBF80
ENDCHAR
STARTCHAR 3166
ENCODING 12646
SWIDTH 1000 0
DWIDTH 25 0
BBX 17 13 4 2
BITMAP
00C300
E07F00
703000
303000
303000
303000
303000
303000
303000
303000
31B000
3E3F80
100000
ENDCHAR
STARTCHAR 3167
ENCODING 12647
SWIDTH 1000 0
DWIDTH 25 0
BBX 18 12 3 2
BITMAP
003000
E01C00
300C00
300C00
301800
301C00
303600
303300
306180
33C0C0
3E80C0
010000
ENDCHAR
STARTCHAR 3168
ENCODING 12648
SWIDTH 1000 0
DWIDTH 25 0
BBX 19 12 3 4
BITMAP
000400
E00400
300E00
300E00
301B00
301900
303180
303080
3060C0
31E040
3EFFE0
180000
ENDCHAR
STARTCHAR 3169
ENCODING 12649
SWIDTH 960 0
DWIDTH 24 0
BBX 23 9 1 6
BITMAP
FFF8E0
061860
061860
FE18F0
601898
60198C
679A06
7C1C04
001000
ENDCHAR
STARTCHAR 316A
ENCODING 12650
SWIDTH 960 0
DWIDTH 24 0
BBX 16 12 5 3
BITMAP
FEFE
FE7E
0660
0660
0660
FE60
6060
6060
6060
61E0
7E7F
3000
ENDCHAR
STARTCHAR 316B
ENCODING 12651
SWIDTH 1000 0
DWIDTH 25 0
BBX 23 11 1 2
BITMAP
002000
041CC0
FDCC60
0CCC30
0CFC60
FCCC70
60CCCC
60CC8C
67FD06
78CE00
008000
ENDCHAR
STARTCHAR 316C
ENCODING 12652
SWIDTH 960 0
DWIDTH 24 0
BBX 18 11 4 4
BITMAP
FE0400
460C00
060E00
061A00
C41300
FE3300
603100
606180
606080
63C0C0
7EFFC0
ENDCHAR
STARTCHAR 316D
ENCODING 12653
SWIDTH 960 0
DWIDTH 24 0
BBX 19 12 3 2
BITMAP
000040
FEFFE0
060000
060F00
061980
FE30C0
6030C0
6030C0
6030C0
6030C0
679980
7C0F00
ENDCHAR
STARTCHAR 316E
ENCODING 12654
SWIDTH 1000 0
DWIDTH 25 0
BBX 18 13 3 2
BITMAP
000380
FFB8C0
3198C0
3198C0
319FC0
3198C0
3198C0
3198C0
3118C0
311FC0
3F98C0
301080
200000
ENDCHAR
STARTCHAR 316F
ENCODING 12655
SWIDTH 1000 0
DWIDTH 25 0
BBX 18 12 4 2
BITMAP
001000
FF0C00
630E00
630E00
630C00
621C00
621A00
623380
623180
6261C0
7EC0C0
610000
ENDCHAR
STARTCHAR 3170
ENCODING 12656
SWIDTH 1000 0
DWIDTH 25 0
BBX 19 12 3 3
BITMAP
E00200
7FC600
30C600
30CF00
30CF00
30C900
30D980
30D980
3090C0
30B0C0
3FFFC0
307FE0
ENDCHAR
STARTCHAR 3171
ENCODING 12657
SWIDTH 960 0
DWIDTH 24 0
BBX 14 17 5 0
BITMAP
FFF8
3018
3018
3018
3018
3018
3FF8
3000
0FE0
3838
3018
600C
600C
600C
3018
3838
0FE0
ENDCHAR
STARTCHAR 3172
ENCODING 12658
SWIDTH 1000 0
DWIDTH 25 0
BBX 16 12 4 2
BITMAP
0C00
E3FF
6303
6303
7F03
6303
6303
6303
6303
7F03
6303
4200
ENDCHAR
STARTCHAR 3173
ENCODING 12659
SWIDTH 1000 0
DWIDTH 25 0
BBX 18 12 3 2
BITMAP
E3BF80
719F80
319800
319800
3F9800
319800
319800
319800
319800
3F99C0
311FC0
210000
ENDCHAR
STARTCHAR 3174
ENCODING 12660
SWIDTH 960 0
DWIDTH 24 0
BBX 21 11 1 3
BITMAP
080000
E61BF8
660C18
660C18
7E1818
661C18
663618
666318
7EC198
678098
400010
ENDCHAR
STARTCHAR 3175
ENCODING 12661
SWIDTH 1000 0
DWIDTH 25 0
BBX 23 10 1 4
BITMAP
CE339C
E618FC
6618C0
7E38C0
663CC0
6666C0
66C7C0
7F83FC
67007E
440000
ENDCHAR
STARTCHAR 3176
ENCODING 12662
SWIDTH 960 0
DWIDTH 24 0
BBX 17 12 4 2
BITMAP
CFFF00
E7FF00
661800
661800
7E3800
663C00
666600
666700
66C300
7F8180
670000
400000
ENDCHAR
STARTCHAR 3177
ENCODING 12663
SWIDTH 1000 0
DWIDTH 25 0
BBX 18 12 3 2
BITMAP
E3FF80
71BF80
31B000
31B000
3FB300
31BF00
31B000
31B000
31B000
3FB080
31BFC0
210000
ENDCHAR
STARTCHAR 3178
ENCODING 12664
SWIDTH 960 0
DWIDTH 24 0
BBX 14 20 5 -1
BITMAP
0070
F038
7018
3018
3FF8
3018
3018
3018
3FF8
3010
2000
0FE0
3838
3018
600C
600C
600C
3018
3838
0FE0
ENDCHAR
STARTCHAR 3179
ENCODING 12665
SWIDTH 960 0
DWIDTH 24 0
BBX 16 21 4 -2
BITMAP
0E06
E773
6333
6333
7F3F
6333
6333
6333
6333
7F3F
6232
07F0
1C1C
3006
6003
6003
6003
6003
3006
1C1C
07F0
ENDCHAR
STARTCHAR 317A
ENCODING 12666
SWIDTH 960 0
DWIDTH 24 0
BBX 16 12 3 3
BITMAP
0C03
077F
0303
0703
0603
0703
0D83
18E3
3063
6033
C013
8002
ENDCHAR
STARTCHAR 317B
ENCODING 12667
SWIDTH 1000 0
DWIDTH 25 0
BBX 19 11 4 4
BITMAP
187800
0C1800
061800
0C1800
0C1800
0A1800
1B1800
119800
30D800
60D800
C01FE0
ENDCHAR
STARTCHAR 317C
ENCODING 12668
SWIDTH 960 0
DWIDTH 24 0
BBX 18 12 3 2
BITMAP
186180
0E3F80
061800
061800
0C1800
0E1800
199800
19D800
30D800
607800
4019C0
800FC0
ENDCHAR
STARTCHAR 317D
ENCODING 12669
SWIDTH 1000 0
DWIDTH 25 0
BBX 17 13 4 2
BITMAP
000200
18C380
0E7180
063180
0C3180
0E3F80
1B3180
19B180
31F180
60F180
C03F80
803180
002000
ENDCHAR
STARTCHAR 317E
ENCODING 12670
SWIDTH 1000 0
DWIDTH 25 0
BBX 18 12 3 2
BITMAP
180180
0CFFC0
060C00
060C00
070C00
0D8C00
0CDA00
187300
106180
20C080
4180C0
860000
ENDCHAR
STARTCHAR 317F
ENCODING 12671
SWIDTH 1000 0
DWIDTH 25 0
BBX 13 12 6 4
BITMAP
0200
0600
0700
0D80
1980
18C0
30C0
3060
6020
6030
FFF8
FFF8
ENDCHAR
STARTCHAR 3180
ENCODING 12672
SWIDTH 1000 0
DWIDTH 25 0
BBX 15 12 5 3
BITMAP
3838
6C6C
4444
C6C6
C6C6
C6C6
C6C6
C6C6
C6C6
4444
6C6C
3838
ENDCHAR
STARTCHAR 3181
ENCODING 12673
SWIDTH 960 0
DWIDTH 24 0
BBX 10 12 7 3
BITMAP
3800
0C00
0C00
3F00
6180
E1C0
C0C0
C0C0
C0C0
E180
6180
1E00
ENDCHAR
STARTCHAR 3182
ENCODING 12674
SWIDTH 1000 0
DWIDTH 25 0
BBX 17 12 4 3
BITMAP
383000
181C00
180C00
3C0C00
661C00
C31C00
C31200
C33300
C36300
C34180
668180
3D0000
ENDCHAR
STARTCHAR 3183
ENCODING 12675
SWIDTH 960 0
DWIDTH 24 0
BBX 17 13 4 4
BITMAP
300000
180800
181800
3C1800
663C00
C33400
C32400
C36600
C36200
C34300
42C300
66C100
3DFF80
ENDCHAR
STARTCHAR 3184
ENCODING 12676
SWIDTH 960 0
DWIDTH 24 0
BBX 15 18 4 0
BITMAP
FFFE
0060
1830
0830
0C20
0464
FFFE
7000
0000
07E0
1818
300C
6006
6006
6006
300C
1818
07E0
ENDCHAR
STARTCHAR 3185
ENCODING 12677
SWIDTH 960 0
DWIDTH 24 0
BBX 22 11 1 3
BITMAP
200400
3F07E0
000000
E1DC3C
FFDFFC
3E07C0
7F0FE0
618C30
618C30
618C30
3F07E0
ENDCHAR
STARTCHAR 3186
ENCODING 12678
SWIDTH 1000 0
DWIDTH 25 0
BBX 16 10 5 5
BITMAP
FFFF
0100
0180
07C0
0C60
1830
1830
1830
0C60
07C0
ENDCHAR
STARTCHAR 3187
ENCODING 12679
SWIDTH 960 0
DWIDTH 24 0
BBX 23 22 0 -3
BITMAP
0001C0
0000E0
000060
000060
000060
000060
000060
000060
00006E
00007E
002060
073860
03186E
03187E
031BE0
C3FC60
7FC060
100060
000060
000060
000060
000060
ENDCHAR
STARTCHAR 3188
ENCODING 12680
SWIDTH 960 0
DWIDTH 24 0
BBX 19 22 2 -2
BITMAP
0001E0
001E60
000660
000660
000660
000660
000660
0007E0
000660
01C660
0E6660
066660
0667E0
067E60
FF8660
380660
000660
000660
000660
000660
000060
000040
ENDCHAR
STARTCHAR 3189
ENCODING 12681
SWIDTH 960 0
DWIDTH 24 0
BBX 19 23 2 -3
BITMAP
0001E0
000060
000060
000060
000060
000060
000060
000060
000060
000060
063860
031860
031860
0318E0
031F60
C3FC60
7F8060
100060
000060
000060
000060
000040
000040
ENDCHAR
STARTCHAR 318A
ENCODING 12682
SWIDTH 960 0
DWIDTH 24 0
BBX 18 23 2 -2
BITMAP
000780
0001C0
0000C0
0000C0
0000C0
0000C0
0000C0
0000C0
0000C0
0000C0
0000C0
0000C0
0000C0
0078C0
FFE0C0
7E6FC0
0660C0
0660C0
066FC0
0660C0
0660C0
0000C0
0000C0
ENDCHAR
STARTCHAR 318B
ENCODING 12683
SWIDTH 960 0
DWIDTH 24 0
BBX 18 23 2 -2
BITMAP
000380
0018C0
000EC0
0006C0
0006C0
0006C0
0006C0
0006C0
0006C0
0006C0
0006C0
0006C0
01E6C0
FF86C0
7DFEC0
0D86C0
0D86C0
0DBEC0
0D86C0
0906C0
0006C0
0004C0
000080
ENDCHAR
STARTCHAR 318C
ENCODING 12684
SWIDTH 960 0
DWIDTH 24 0
BBX 18 23 3 -2
BITMAP
000380
0001C0
0000C0
0000C0
0000C0
0000C0
0000C0
0000C0
0000C0
0000C0
0000C0
0000C0
0001C0
003EC0
FFF8C0
3B18C0
0318C0
0318C0
0318C0
0318C0
0318C0
0010C0
0000C0
ENDCHAR
STARTCHAR 318D
ENCODING 12685
SWIDTH 1000 0
DWIDTH 25 0
BBX 3 3 11 7
BITMAP
40
E0
E0
ENDCHAR
STARTCHAR 318E
ENCODING 12686
SWIDTH 1000 0
DWIDTH 25 0
BBX 11 22 7 -2
BITMAP
0180
00E0
0060
0060
0060
0060
0060
0060
0060
0060
0060
0060
0060
0060
6060
E060
E060
0060
0060
0060
0060
0040
ENDCHAR
STARTCHAR 3200
ENCODING 12800
SWIDTH 960 0
DWIDTH 24 0
BBX 24 23 0 -2
BITMAP
040020
080030
100010
200008
200004
400006
5FFFC2
8400C3
8000C3
8000C1
8000C1
8000C1
8000C1
8000C1
8000C3
C000C2
4000C2
400006
20000C
200008
100010
080020
000040
ENDCHAR
STARTCHAR 3201
ENCODING 12801
SWIDTH 1000 0
DWIDTH 25 0
BBX 24 23 1 -3
BITMAP
040020
080030
100018
300008
200004
400006
5E0002
C60002
860003
860001
860001
860001
860001
860001
8600E1
C3FFF2
C00002
400006
600004
20000C
100018
180010
080020
ENDCHAR
STARTCHAR 3202
ENCODING 12802
SWIDTH 960 0
DWIDTH 24 0
BBX 24 22 0 -2
BITMAP
000040
080020
100010
200008
20000C
400006
5FFFC2
860003
860003
860001
860001
860001
860001
860001
8600E3
C3FFF2
400006
600004
200008
300018
100030
080020
ENDCHAR
STARTCHAR 3203
ENCODING 12803
SWIDTH 1000 0
DWIDTH 25 0
BBX 24 22 1 -2
BITMAP
040020
080010
100008
30000C
200004
400006
4FFFC2
C200C3
800081
800081
8E0081
87FF81
830001
830001
C30003
C30062
43FFF2
600004
20000C
100008
180010
040020
ENDCHAR
STARTCHAR 3204
ENCODING 12804
SWIDTH 960 0
DWIDTH 24 0
BBX 24 22 0 -2
BITMAP
040020
080010
100018
300008
200004
400006
4FFFC2
C300C3
8300C3
8300C1
830081
830081
830081
830081
830183
C3FFC2
430002
620006
200004
300008
100010
080020
ENDCHAR
STARTCHAR 3205
ENCODING 12805
SWIDTH 960 0
DWIDTH 24 0
BBX 24 23 0 -3
BITMAP
080020
080010
100008
200004
600004
4003C2
4F00C2
8700C3
8300C1
8300C1
83FFC1
8300C1
8300C1
8300C1
8300C1
8300C3
43FFC2
4300C2
620084
200004
100008
100010
080020
ENDCHAR
STARTCHAR 3206
ENCODING 12806
SWIDTH 960 0
DWIDTH 24 0
BBX 24 23 0 -3
BITMAP
040020
080010
100008
200004
601804
400E02
400E02
800C03
801C01
801C01
803601
806301
80C1C1
8180E1
830073
C60032
580012
400006
200004
20000C
100008
080010
040020
ENDCHAR
STARTCHAR 3207
ENCODING 12807
SWIDTH 960 0
DWIDTH 24 0
BBX 24 23 0 -3
BITMAP
000020
0C0030
180018
100008
201004
601806
407E02
C0C302
818183
8300C1
8300C1
8300C1
8300C1
8300C1
818183
C0C302
407E02
600006
200004
300008
180018
080030
040020
ENDCHAR
STARTCHAR 3208
ENCODING 12808
SWIDTH 960 0
DWIDTH 24 0
BBX 24 24 0 -2
BITMAP
040020
080010
100008
300008
200004
4000E6
4FFFE2
C300C2
800183
800381
800701
800E01
801E01
803B81
8060E1
81C073
C3003A
4C000A
600006
200004
300008
100018
080010
040020
ENDCHAR
STARTCHAR 3209
ENCODING 12809
SWIDTH 960 0
DWIDTH 24 0
BBX 24 23 0 -3
BITMAP
080020
100010
100008
200004
607E04
403E02
400002
8000C3
87FFC1
810181
800301
800601
800C01
801C01
807383
C0C1E2
438072
4E0036
200004
20000C
100008
080010
040020
ENDCHAR
STARTCHAR 320A
ENCODING 12810
SWIDTH 960 0
DWIDTH 24 0
BBX 24 23 0 -2
BITMAP
040020
080010
100018
300008
200004
400066
47FFE2
C10062
800063
8001E1
8FFEC1
87E0C1
8000C1
800181
800181
800303
400202
400406
600804
20000C
100008
080010
040020
ENDCHAR
STARTCHAR 320B
ENCODING 12811
SWIDTH 960 0
DWIDTH 24 0
BBX 24 22 0 -2
BITMAP
040020
080010
100008
200004
600004
400002
4FFFC2
830003
830001
830001
83FFC1
830001
830001
830001
830043
C3FFF2
400002
600004
200004
100008
180010
040020
ENDCHAR
STARTCHAR 320C
ENCODING 12812
SWIDTH 1000 0
DWIDTH 25 0
BBX 24 22 1 -2
BITMAP
080030
180010
100008
200004
600006
4001E2
C7FFE2
800003
810E01
818301
80C301
80C601
80C601
80C601
C004FB
CFFFFA
400002
600004
20000C
100008
180010
0C0020
ENDCHAR
STARTCHAR 320D
ENCODING 12813
SWIDTH 960 0
DWIDTH 24 0
BBX 24 23 0 -2
BITMAP
000020
080010
100008
20000C
20FE04
407E06
400002
C000F2
9FFFFB
871001
801801
807E01
80C301
818181
818181
818183
C18382
40C702
603C04
200004
300008
100010
080020
ENDCHAR
STARTCHAR 320E
ENCODING 12814
SWIDTH 960 0
DWIDTH 24 0
BBX 24 24 0 -3
BITMAP
040000
080020
100010
300788
200184
400184
401982
4FF982
823183
803181
806181
8061B9
80C1F9
818181
830181
860183
CC0182
500182
400186
200184
200108
100018
080010
040020
ENDCHAR
STARTCHAR 320F
ENCODING 12815
SWIDTH 960 0
DWIDTH 24 0
BBX 24 22 0 -3
BITMAP
080020
100010
300008
20078C
400184
400186
DE0182
860183
860181
860181
8601B1
8601F1
860F81
87F181
830183
C00182
400186
600184
200188
300118
100010
080020
ENDCHAR
STARTCHAR 3210
ENCODING 12816
SWIDTH 960 0
DWIDTH 24 0
BBX 24 22 0 -3
BITMAP
080020
100010
300708
20038C
400184
400982
DFFD82
860183
860181
860181
8601B9
8603F9
861D81
87F181
878183
C00182
400182
400186
200184
200108
100018
080030
ENDCHAR
STARTCHAR 3211
ENCODING 12817
SWIDTH 1000 0
DWIDTH 25 0
BBX 24 22 1 -3
BITMAP
080020
100010
300708
20038C
400184
4FF182
C03182
803183
803181
8FF181
8601B9
8601F9
860381
863D81
87E183
C20182
400182
400184
200184
200108
100010
080020
ENDCHAR
STARTCHAR 3212
ENCODING 12818
SWIDTH 960 0
DWIDTH 24 0
BBX 24 22 0 -1
BITMAP
040020
080010
100708
200384
600186
400182
CFF982
863983
863181
8631B1
8631F9
87F981
860181
840181
C00182
400182
400186
200184
300108
100018
080010
040020
ENDCHAR
STARTCHAR 3213
ENCODING 12819
SWIDTH 960 0
DWIDTH 24 0
BBX 24 23 0 -3
BITMAP
040020
080010
100708
30038C
200184
403986
4F1982
C71983
831981
83F981
8319B9
8319F9
831981
83F981
831181
C20183
400182
400186
200184
30010C
100008
080010
040020
ENDCHAR
STARTCHAR 3214
ENCODING 12820
SWIDTH 960 0
DWIDTH 24 0
BBX 24 23 0 -3
BITMAP
080020
180010
100708
20038C
618184
40C182
40C182
818183
818181
83C181
8261B9
8631F9
8C3181
981981
800183
C00182
400182
400186
200184
20010C
100008
080010
040020
ENDCHAR
STARTCHAR 3215
ENCODING 12821
SWIDTH 960 0
DWIDTH 24 0
BBX 24 23 0 -3
BITMAP
000020
080010
180018
100788
200184
610186
408182
43C182
866183
8C3181
8C3181
8C31B9
8661F9
83C181
800181
800183
C00182
400182
600184
200104
100008
180010
0C0020
ENDCHAR
STARTCHAR 3216
ENCODING 12822
SWIDTH 960 0
DWIDTH 24 0
BBX 24 23 0 -3
BITMAP
080020
080010
100708
20038C
600184
481982
4FF982
803183
802181
806181
80C199
81A1F9
831981
860D81
880583
D00182
400182
400186
200184
20010C
100018
080010
040020
ENDCHAR
STARTCHAR 3217
ENCODING 12823
SWIDTH 960 0
DWIDTH 24 0
BBX 24 23 0 -2
BITMAP
040000
080030
100010
200788
200184
41F186
400182
C01D82
8FF983
803181
806199
80E1F9
81B981
831981
8C0D83
D00182
400182
400186
20018C
200008
100010
080020
000040
ENDCHAR
STARTCHAR 3218
ENCODING 12824
SWIDTH 960 0
DWIDTH 24 0
BBX 24 23 0 -3
BITMAP
080020
080010
100608
20038C
200184
401986
4FF982
801183
803181
9FE181
8C61B9
80C1F9
80C181
818181
830183
C60182
4C0182
400186
200184
20010C
100018
080010
040020
ENDCHAR
STARTCHAR 3219
ENCODING 12825
SWIDTH 960 0
DWIDTH 24 0
BBX 24 23 0 -3
BITMAP
040020
080010
180018
300388
200184
400186
4FF982
C30183
830183
830181
83F999
8301F9
830381
831D81
83F183
C18182
400182
600186
200184
100108
180018
0C0030
040000
ENDCHAR
STARTCHAR 321A
ENCODING 12826
SWIDTH 1000 0
DWIDTH 25 0
BBX 24 24 1 -3
BITMAP
040040
080020
100210
200188
20018C
400F86
47FD82
C02182
821983
811981
8199B1
8191F9
81B181
803F81
8FF981
C70182
C00182
400186
600184
200188
300018
100010
080020
000040
ENDCHAR
STARTCHAR 321B
ENCODING 12827
SWIDTH 960 0
DWIDTH 24 0
BBX 24 23 0 -2
BITMAP
000020
0C0030
180018
100388
200184
61F186
400182
C00D82
8FFD83
804181
81F199
83F9F9
831981
831981
839181
C1E182
400182
400186
200184
300108
100018
080010
040020
ENDCHAR
STARTCHAR 321C
ENCODING 12828
SWIDTH 960 0
DWIDTH 24 0
BBX 22 21 1 -1
BITMAP
100000
2FFF10
200610
400C08
403808
407F08
8183E4
8E0004
900004
800024
BFFFFC
803004
803004
803004
803008
403008
403008
403010
203010
203020
000020
ENDCHAR
STARTCHAR 3260
ENCODING 12896
SWIDTH 1000 0
DWIDTH 25 0
BBX 23 23 1 -2
BITMAP
00FE00
030180
0C0060
180030
300018
200008
4800C4
4FFFC4
8000C2
8000C2
8000C2
8000C2
8000C2
8000C2
8000C2
4000C4
4000C4
2000C8
300098
180030
0C0060
030180
00FE00
ENDCHAR
STARTCHAR 3261
ENCODING 12897
SWIDTH 1000 0
DWIDTH 25 0
BBX 23 23 1 -2
BITMAP
00FE00
030180
0C0060
180030
300018
200008
400004
4F0004
830002
830002
830002
830002
830002
830002
830002
4300C4
43FFE4
200008
300018
180030
0C0060
030180
00FE00
ENDCHAR
STARTCHAR 3262
ENCODING 12898
SWIDTH 1000 0
DWIDTH 25 0
BBX 24 23 0 -2
BITMAP
007F00
0381C0
040030
080018
10000C
200004
4C0182
4FFFC2
830001
830001
830001
830001
830001
830001
830001
4300C2
43FFE2
200004
10000C
080018
040030
0301C0
00FF00
ENDCHAR
STARTCHAR 3263
ENCODING 12899
SWIDTH 1000 0
DWIDTH 25 0
BBX 24 23 0 -3
BITMAP
007F00
0381C0
040030
080018
10000C
200004
47FFC2
430082
800081
800081
800081
8FFF81
830001
830001
830001
4300E2
43FFE2
200004
10000C
080018
040030
0301C0
00FF00
ENDCHAR
STARTCHAR 3264
ENCODING 12900
SWIDTH 1000 0
DWIDTH 25 0
BBX 23 23 1 -2
BITMAP
00FE00
030180
0C0060
180030
300018
200008
400004
47FFE4
8180C2
8180C2
8180C2
8180C2
818082
818082
818082
41FFC4
418004
200008
300018
180030
0C0060
030180
00FE00
ENDCHAR
STARTCHAR 3265
ENCODING 12901
SWIDTH 1000 0
DWIDTH 25 0
BBX 23 23 1 -3
BITMAP
00FE00
030180
0C0060
180030
300018
200708
4F0384
430184
830182
83FF82
830182
830182
830182
830182
830182
43FF84
430184
200008
300018
180030
0C0060
030180
00FE00
ENDCHAR
STARTCHAR 3266
ENCODING 12902
SWIDTH 1000 0
DWIDTH 25 0
BBX 23 23 1 -3
BITMAP
00FE00
030180
0C0060
180030
300018
203008
401C04
401C04
801802
803002
803802
806602
80C302
8181C2
8300C2
4C0064
580004
200008
300018
180030
0C0060
030180
00FE00
ENDCHAR
STARTCHAR 3267
ENCODING 12903
SWIDTH 1000 0
DWIDTH 25 0
BBX 23 24 1 -3
BITMAP
00FE00
030180
0C0060
180030
300010
201008
401004
40FE04
818306
830182
8600C2
8600C2
8600C2
8600C2
8600C2
830186
418304
40FC04
200008
300010
180030
0C0060
030180
00FE00
ENDCHAR
STARTCHAR 3268
ENCODING 12904
SWIDTH 1000 0
DWIDTH 25 0
BBX 23 23 1 -3
BITMAP
00FE00
030180
0C0060
180030
300018
2000C8
47FFC4
400184
800302
800602
800602
800C02
803C02
806382
80C1C2
4300E4
4C0064
200008
300018
180030
0C0040
030180
00FE00
ENDCHAR
STARTCHAR 3269
ENCODING 12905
SWIDTH 1000 0
DWIDTH 25 0
BBX 23 23 1 -3
BITMAP
00FE00
030180
0C0060
180030
304018
207E08
400004
400004
87FF82
830382
800702
800E02
801C02
803602
80E382
4181C4
4600E4
200008
300018
180030
0C0040
030180
00FE00
ENDCHAR
STARTCHAR 326A
ENCODING 12906
SWIDTH 1000 0
DWIDTH 25 0
BBX 23 23 1 -3
BITMAP
00FE00
030180
0C0060
180030
300018
200008
47FFC4
4100C4
800082
800182
800F82
8FF982
878102
800102
800302
400204
400604
200408
300818
180030
0C0040
030180
00FE00
ENDCHAR
STARTCHAR 326B
ENCODING 12907
SWIDTH 1000 0
DWIDTH 25 0
BBX 24 24 0 -3
BITMAP
007F00
0381C0
040060
080018
100008
200004
400002
47FFC2
830003
830001
830001
830001
83FF81
830001
830001
830003
430082
41FFC2
200004
100008
080018
040020
0301C0
00FF00
ENDCHAR
STARTCHAR 326C
ENCODING 12908
SWIDTH 1000 0
DWIDTH 25 0
BBX 24 23 0 -3
BITMAP
007F00
0381C0
040030
080018
10000C
2000E4
47FFE2
420002
800701
818301
808301
80C201
80C601
80C401
800421
5FFFFA
440002
200004
10000C
080018
040030
0301C0
00FF00
ENDCHAR
STARTCHAR 326D
ENCODING 12909
SWIDTH 1000 0
DWIDTH 25 0
BBX 23 23 1 -3
BITMAP
00FE00
030180
0C0060
180030
304018
207F08
403F04
400074
8FFFF2
820002
801802
807E02
80C302
818182
818182
418184
418184
20C308
307E18
180030
0C0060
030180
00FE00
ENDCHAR
STARTCHAR 326E
ENCODING 12910
SWIDTH 1000 0
DWIDTH 25 0
BBX 23 24 1 -3
BITMAP
00FE00
030180
0C0060
180030
300398
200188
400184
4FF984
803186
803182
802182
8061B2
80C1F2
808182
810182
820184
440184
480184
200188
100190
080120
040040
030180
00FE00
ENDCHAR
STARTCHAR 326F
ENCODING 12911
SWIDTH 1000 0
DWIDTH 25 0
BBX 23 24 1 -3
BITMAP
00FE00
030180
0C0060
180730
300398
200188
400184
5E0184
860186
860182
860182
8601B2
8603F2
861F82
87F182
830184
400184
400184
200188
100190
080120
040040
030180
00FE00
ENDCHAR
STARTCHAR 3270
ENCODING 12912
SWIDTH 1000 0
DWIDTH 25 0
BBX 24 23 0 -2
BITMAP
007F00
0381C0
040030
180718
10038C
200184
400182
5FF982
860181
860181
860181
8601B9
8603F9
861D81
87F181
438182
400182
200184
100188
080190
040020
0300C0
00FF00
ENDCHAR
STARTCHAR 3271
ENCODING 12913
SWIDTH 1000 0
DWIDTH 25 0
BBX 24 23 0 -3
BITMAP
007F00
0381C0
040030
080718
10018C
201184
4FF182
403182
803181
803181
8FF181
8601B9
8601F9
860781
863981
47C182
400182
200184
10018C
080118
040030
0301C0
00FF00
ENDCHAR
STARTCHAR 3272
ENCODING 12914
SWIDTH 1000 0
DWIDTH 25 0
BBX 23 24 1 -2
BITMAP
00FE00
030180
0C0060
180430
300790
200188
400184
400184
8FF986
863182
863182
8631B2
8631F2
87F182
860182
840186
400184
400184
200188
300190
180130
0C0060
030180
00FE00
ENDCHAR
STARTCHAR 3273
ENCODING 12915
SWIDTH 1000 0
DWIDTH 25 0
BBX 23 23 1 -3
BITMAP
00FE00
030180
0C0060
1807B0
300198
200188
4C3984
4E1984
861982
87F982
861982
8619B2
8619F2
87F982
861182
440184
400184
200188
300198
180130
0C0040
030180
00FE00
ENDCHAR
STARTCHAR 3274
ENCODING 12916
SWIDTH 1000 0
DWIDTH 25 0
BBX 23 23 1 -3
BITMAP
00FE00
030180
0C0060
180730
300398
218188
40C184
40C184
808182
818182
834182
8261B2
8631F2
8C1982
981982
400184
400184
200188
300198
180130
0C0060
030180
00FE00
ENDCHAR
STARTCHAR 3275
ENCODING 12917
SWIDTH 1000 0
DWIDTH 25 0
BBX 23 23 1 -2
BITMAP
00FE00
030180
0C0060
180730
300198
200188
408184
43C184
87E182
8C3182
8C3182
8C31B2
8661F2
83C182
800182
400184
400184
200188
300198
180130
0C0060
030180
00FE00
ENDCHAR
STARTCHAR 3276
ENCODING 12918
SWIDTH 1000 0
DWIDTH 25 0
BBX 23 23 1 -3
BITMAP
00FE00
030180
0C0060
1807B0
300198
200188
47F984
403184
802182
806182
80E1B2
81A1F2
831982
860D82
8C0582
500184
400184
200188
300198
180130
0C0040
030180
00FE00
ENDCHAR
STARTCHAR 3277
ENCODING 12919
SWIDTH 1000 0
DWIDTH 25 0
BBX 23 23 1 -3
BITMAP
00FE00
030180
0C0060
1807B0
300198
21F188
400184
400984
87F982
801182
8021B2
8061FA
80F182
819982
830D82
4C0584
400184
200188
300198
180130
0C0040
030180
00FE00
ENDCHAR
STARTCHAR 3278
ENCODING 12920
SWIDTH 1000 0
DWIDTH 25 0
BBX 23 23 1 -3
BITMAP
00FE00
030180
0C0060
1807B0
300198
200988
47F984
43F984
803182
81F182
8E61B2
8041F2
80C182
818182
830182
460184
4C0184
200188
300198
180130
0C0040
030180
00FE00
ENDCHAR
STARTCHAR 3279
ENCODING 12921
SWIDTH 1000 0
DWIDTH 25 0
BBX 23 24 1 -3
BITMAP
00FE00
030180
0C0060
180430
300390
200188
400184
4FF184
860186
860182
860182
87F1B2
8601F2
860382
863D82
87E186
430184
400184
200188
300190
180130
0C0060
030180
00FE00
ENDCHAR
STARTCHAR 327A
ENCODING 12922
SWIDTH 1000 0
DWIDTH 25 0
BBX 24 23 0 -3
BITMAP
007F00
0381C0
040030
180398
10018C
200D84
47FD82
402182
821981
811981
8199B1
8191F9
81B181
807F81
8FF181
420182
400182
200184
100188
080110
040020
0300C0
00FF00
ENDCHAR
STARTCHAR 327B
ENCODING 12923
SWIDTH 1000 0
DWIDTH 25 0
BBX 23 23 1 -2
BITMAP
00FE00
030180
0C0060
1807B0
300198
23F188
400184
400D84
9FFD82
80C182
83F1B2
87F9F2
861982
861982
873182
41E184
400184
200188
300198
180130
0C0060
030180
00FE00
ENDCHAR
STARTCHAR 327F
ENCODING 12927
SWIDTH 960 0
DWIDTH 24 0
BBX 22 22 1 -2
BITMAP
00FC00
070380
0C00C0
100020
2FCF90
430618
430408
830808
831004
832000
FB47FC
03E004
833004
831C04
430E08
430708
630790
2FCFD0
180020
0C00C0
070300
00FC00
ENDCHAR
STARTCHAR 3380
ENCODING 13184
SWIDTH 960 0
DWIDTH 24 0
BBX 19 21 3 -3
BITMAP
000400
000C00
000C00
001E00
001600
001600
3E1600
F32700
632300
61A300
61BF00
61A380
61C180
61C180
634180
6341C0
7FE3E0
600000
600000
600000
F80000
ENDCHAR
STARTCHAR 3381
ENCODING 13185
SWIDTH 1000 0
DWIDTH 25 0
BBX 23 17 1 1
BITMAP
000040
0000C0
0000C0
0001E0
000160
000160
6F0160
F38270
618230
618230
6183F0
618438
618418
618418
618C1C
618C1C
FBFE3E
ENDCHAR
STARTCHAR 3382
ENCODING 13186
SWIDTH 960 0
DWIDTH 24 0
BBX 22 21 1 -2
BITMAP
000180
000180
000180
0003C0
0002C0
0002C0
6182C0
6186E0
618460
618460
618460
618FF0
618870
618830
618830
618838
739838
7FFC7C
C00000
C00000
C00000
ENDCHAR
STARTCHAR 3383
ENCODING 13187
SWIDTH 1000 0
DWIDTH 25 0
BBX 23 17 1 1
BITMAP
000040
0000C0
0000C0
0001E0
000160
000160
7DC360
FF6270
666230
666230
6667F0
666438
666418
666418
666C1C
666C1C
F7FE3E
ENDCHAR
STARTCHAR 3384
ENCODING 13188
SWIDTH 1000 0
DWIDTH 25 0
BBX 23 18 1 0
BITMAP
200040
E000C0
6000C0
6001E0
600160
600160
600160
63E370
618270
630230
660230
6E07F8
760438
670418
638418
618C1C
61CC1C
FBFE3E
ENDCHAR
STARTCHAR 3388
ENCODING 13192
SWIDTH 1000 0
DWIDTH 25 0
BBX 21 18 2 0
BITMAP
000020
0000E0
000060
000060
000060
000060
000060
1C7860
26CC60
46CC60
C00C60
C01C60
C07C60
C0CC60
C0CC60
C0CC60
62CC60
3C7EF8
ENDCHAR
STARTCHAR 3389
ENCODING 13193
SWIDTH 960 0
DWIDTH 24 0
BBX 23 18 0 0
BITMAP
000002
E0000E
600006
600006
600006
600006
6E73C6
66F3C6
66DE66
6D9E66
698066
7180E6
798366
698666
6D8666
6D8E66
66D666
EE73FE
ENDCHAR
STARTCHAR 338A
ENCODING 13194
SWIDTH 960 0
DWIDTH 24 0
BBX 18 22 3 -4
BITMAP
00FFC0
0030C0
003040
003040
003000
003100
003100
3E3100
F33700
633F00
61B100
61B100
61B000
61B000
61B000
633000
633000
7EF800
600000
600000
600000
F80000
ENDCHAR
STARTCHAR 338B
ENCODING 13195
SWIDTH 1000 0
DWIDTH 25 0
BBX 22 18 1 0
BITMAP
001FF8
000618
000618
000608
000604
000600
000620
6F0620
F386E0
7187E0
618660
618620
618620
618600
618600
618600
618600
FBFF00
ENDCHAR
STARTCHAR 338C
ENCODING 13196
SWIDTH 1000 0
DWIDTH 25 0
BBX 20 21 3 -3
BITMAP
001FF0
000E30
000C10
000C10
000C00
000C40
618C40
618CC0
618DC0
618FC0
618C40
618C40
618C00
618C00
618C00
618C00
638C00
7FDF00
C00000
C00000
C00000
ENDCHAR
STARTCHAR 338D
ENCODING 13197
SWIDTH 960 0
DWIDTH 24 0
BBX 21 15 2 -3
BITMAP
000790
6198F8
61B060
61B060
61B060
61B060
6198C0
618F80
61B000
63BC00
73BFC0
7DDFF0
C06030
C07030
C03FC0
ENDCHAR
STARTCHAR 338E
ENCODING 13198
SWIDTH 1000 0
DWIDTH 25 0
BBX 22 15 1 -4
BITMAP
6DC3DC
FF666C
666C30
666C30
666C30
666C30
666660
6667C0
666C00
666FE0
F7FFF8
001818
001818
001C18
000FE0
ENDCHAR
STARTCHAR 338F
ENCODING 13199
SWIDTH 960 0
DWIDTH 24 0
BBX 21 22 1 -4
BITMAP
200000
E00000
600000
600000
600000
600000
600000
63E3F8
618670
630C30
660C30
6C0C30
7E0C30
770660
6387C0
638C00
61CFE0
FBEFF8
001838
001818
001C30
000FE0
ENDCHAR
STARTCHAR 3390
ENCODING 13200
SWIDTH 960 0
DWIDTH 24 0
BBX 19 18 2 0
BITMAP
F9F000
60C000
60C000
60C000
60C000
60C000
60C000
60C7E0
60C460
7FCCC0
60C9C0
60C180
60C380
60C300
60C620
60C620
60CC60
F9FFC0
ENDCHAR
STARTCHAR 3391
ENCODING 13201
SWIDTH 1000 0
DWIDTH 25 0
BBX 24 18 0 1
BITMAP
20F780
E03180
603180
603180
603180
603180
603180
6731BF
6231B3
643FE6
6C31C6
68318C
7C319C
6C3198
6431B8
6631B1
6231F3
F7F7FF
ENDCHAR
STARTCHAR 3392
ENCODING 13202
SWIDTH 1000 0
DWIDTH 25 0
BBX 23 18 1 0
BITMAP
F3FF80
773300
773300
773300
773300
773300
773300
77333E
573366
573F4C
5B334C
5B3308
5B3318
5B3310
5B3330
4B3332
4B3366
EFFFFE
ENDCHAR
STARTCHAR 3393
ENCODING 13203
SWIDTH 960 0
DWIDTH 24 0
BBX 23 18 0 1
BITMAP
1F7F80
376300
236300
61E300
61E300
C06300
C06300
C0631E
C07F26
C06324
C06304
C7E30C
C36308
C36318
636318
636312
336336
1F7F3E
ENDCHAR
STARTCHAR 3394
ENCODING 13204
SWIDTH 1000 0
DWIDTH 25 0
BBX 23 18 1 0
BITMAP
7FF780
4D6300
CD6300
8CE300
8CE300
0C6300
0C6300
0C633E
0C7F66
0C634C
0C630C
0C6308
0C6318
0C6310
0C6330
0C6332
0C6366
3EF7FE
ENDCHAR
STARTCHAR 3395
ENCODING 13205
SWIDTH 960 0
DWIDTH 24 0
BBX 16 22 4 -4
BITMAP
0002
001E
0006
0006
0006
0006
0006
6186
6186
6186
6186
6186
6186
6186
6186
6186
7386
5DDF
C000
C000
C000
C000
ENDCHAR
STARTCHAR 3396
ENCODING 13206
SWIDTH 1000 0
DWIDTH 25 0
BBX 18 18 3 0
BITMAP
000100
000700
000300
000300
000300
000300
000300
3EE300
FFB300
333300
333300
333300
333300
333300
333300
333300
333300
7777C0
ENDCHAR
STARTCHAR 3397
ENCODING 13207
SWIDTH 1000 0
DWIDTH 25 0
BBX 16 18 4 0
BITMAP
0104
071C
030C
030C
030C
030C
030C
3B0C
670C
430C
C30C
C30C
C30C
C30C
C30C
C30C
670C
3B9F
ENDCHAR
STARTCHAR 3398
ENCODING 13208
SWIDTH 960 0
DWIDTH 24 0
BBX 16 18 4 0
BITMAP
2002
E01E
6006
6006
6006
6006
6006
63E6
61C6
6106
6606
6C06
7E06
6706
6306
6386
61C6
FBFF
ENDCHAR
STARTCHAR 3399
ENCODING 13209
SWIDTH 960 0
DWIDTH 24 0
BBX 18 18 3 0
BITMAP
0E0000
1E0000
300000
300000
300000
300000
300000
FDB780
33FCC0
3198C0
3198C0
3198C0
3198C0
3198C0
3198C0
3198C0
3198C0
F9DDC0
ENDCHAR
STARTCHAR 339A
ENCODING 13210
SWIDTH 1000 0
DWIDTH 25 0
BBX 23 11 1 1
BITMAP
6F0FB8
F39FEC
718CCC
618CCC
618CCC
618CCC
618CCC
618CCC
618CCC
618CCC
FBFEFE
ENDCHAR
STARTCHAR 339B
ENCODING 13211
SWIDTH 960 0
DWIDTH 24 0
BBX 22 15 1 -3
BITMAP
619F70
619D98
619998
619998
619998
619998
619998
619998
619998
639998
7FDDDC
400000
C00000
C00000
C00000
ENDCHAR
STARTCHAR 339C
ENCODING 13212
SWIDTH 960 0
DWIDTH 24 0
BBX 23 11 0 1
BITMAP
7DC7DC
FF7FF6
666666
666666
666666
666666
666666
666666
666666
666666
EEEEEE
ENDCHAR
STARTCHAR 339D
ENCODING 13213
SWIDTH 1000 0
DWIDTH 25 0
BBX 22 11 2 1
BITMAP
1E1F70
271D98
631998
C01998
C01998
C01998
C01998
C01998
E09998
611998
3E3FBC
ENDCHAR
STARTCHAR 339E
ENCODING 13214
SWIDTH 960 0
DWIDTH 24 0
BBX 23 18 1 0
BITMAP
200000
E00000
600000
600000
600000
600000
600000
63EDB8
61DFEC
610CCC
660CCC
6C0CCC
7E0CCC
670CCC
630CCC
638CCC
61CCCC
FBEEEE
ENDCHAR
STARTCHAR 339F
ENCODING 13215
SWIDTH 960 0
DWIDTH 24 0
BBX 23 19 0 0
BITMAP
00001C
000022
000022
00000C
000010
00003E
000000
000000
7DC7DC
FF7FF6
666666
666666
666666
666666
666666
666666
666666
666666
EEEEEE
ENDCHAR
STARTCHAR 33A0
ENCODING 13216
SWIDTH 1000 0
DWIDTH 25 0
BBX 22 19 2 0
BITMAP
000030
000048
000048
000010
000060
000078
000000
000000
1E1F70
271D98
631998
C01998
C01998
C01998
C01998
C01998
E09998
611998
3E3FFC
ENDCHAR
STARTCHAR 33A1
ENCODING 13217
SWIDTH 960 0
DWIDTH 24 0
BBX 18 19 3 0
BITMAP
000180
000240
000240
0000C0
000300
0003C0
000000
000000
6F3E00
F3E700
61C300
618300
618300
618300
618300
618300
618300
618300
FBEF80
ENDCHAR
STARTCHAR 33A2
ENCODING 13218
SWIDTH 960 0
DWIDTH 24 0
BBX 23 19 1 0
BITMAP
000038
000064
600064
600018
600020
60007C
600000
600000
63EDB8
61DFEC
610CCC
660CCC
6C0CCC
7E0CCC
670CCC
630CCC
638CCC
61CCCC
FBEEEE
ENDCHAR
STARTCHAR 33A3
ENCODING 13219
SWIDTH 960 0
DWIDTH 24 0
BBX 24 19 0 0
BITMAP
00000C
000016
000006
00000C
000003
000013
00001E
000000
7DC7DC
FF7FF6
666666
666666
666666
666666
666666
666666
666666
666666
EEEEFE
ENDCHAR
STARTCHAR 33A4
ENCODING 13220
SWIDTH 960 0
DWIDTH 24 0
BBX 21 19 3 0
BITMAP
000060
0000B0
000030
000060
000018
000098
0000F0
000000
1E3EE0
233B30
633330
C03330
C03330
C03330
C03330
C03330
E0B330
613330
3E77F0
ENDCHAR
STARTCHAR 33A5
ENCODING 13221
SWIDTH 960 0
DWIDTH 24 0
BBX 18 19 3 0
BITMAP
000380
0004C0
0000C0
000380
0000C0
0004C0
000780
000000
6F3C00
F3C600
61C600
618600
618600
618600
618600
618600
618600
618600
FBEF80
ENDCHAR
STARTCHAR 33A6
ENCODING 13222
SWIDTH 1000 0
DWIDTH 25 0
BBX 23 19 1 0
BITMAP
00001C
000026
600006
60001C
600006
600026
60003C
600000
63EDB8
61DFAC
610CCC
660CCC
6C0CCC
7E0CCC
770CCC
630CCC
638CCC
61CCCC
FBEEFE
ENDCHAR
STARTCHAR 33A7
ENCODING 13223
SWIDTH 1000 0
DWIDTH 25 0
BBX 23 23 2 -3
BITMAP
FB8006
6EC00C
6CC018
6CC030
6CC060
6CC0C0
6CC180
6CC300
6CC600
000C00
001800
0031F0
006210
00C208
018300
0301F0
060018
0C0408
180208
300318
6002F0
C00000
800000
ENDCHAR
STARTCHAR 33A8
ENCODING 13224
SWIDTH 1000 0
DWIDTH 25 0
BBX 22 23 2 -3
BITMAP
FB8004
6EC00C
6CC018
6CC030
6CC060
6CC0C0
6CC198
6CC324
6CC624
000C18
001820
00303C
006000
00C7C0
018860
030820
060C00
0C07C0
180060
300020
600C60
C00BC0
800000
ENDCHAR
STARTCHAR 33A9
ENCODING 13225
SWIDTH 960 0
DWIDTH 24 0
BBX 17 18 3 0
BITMAP
3C0000
F30000
630000
618000
618000
618000
618000
61BE00
61E300
61E300
630300
671F00
7C3300
607300
606300
606300
606700
F83F80
ENDCHAR
STARTCHAR 33AA
ENCODING 13226
SWIDTH 960 0
DWIDTH 24 0
BBX 23 18 0 1
BITMAP
603C00
E0F600
606200
606300
606300
606300
67E378
6363FC
6263CC
6463CC
68660C
78663C
6C7C6C
6C60CC
6660CC
6660CC
6360CC
F7F87E
ENDCHAR
STARTCHAR 33AB
ENCODING 13227
SWIDTH 1000 0
DWIDTH 25 0
BBX 23 18 1 0
BITMAP
F3FC00
777600
776200
776300
776300
776300
776300
776378
5763CC
5763CC
5B620C
5B663C
5B7C6C
5B60CC
5B60CC
4B60CC
4B60CC
EFF07E
ENDCHAR
STARTCHAR 33AC
ENCODING 13228
SWIDTH 960 0
DWIDTH 24 0
BBX 24 18 0 1
BITMAP
1F3C00
337600
236200
61E300
61E300
C06300
C06300
C0637C
C063C6
C063C6
C06606
C7E60E
C37C76
C360C6
6360C6
6360C6
3360CE
1F787F
ENDCHAR
STARTCHAR 33AD
ENCODING 13229
SWIDTH 960 0
DWIDTH 24 0
BBX 23 18 0 0
BITMAP
000004
00001C
00000C
00000C
00000C
00000C
00000C
37787C
7BCCCC
30CD8C
300D8C
303D8C
306D8C
30CD8C
318D8C
318D8C
319CDC
F8FE7E
ENDCHAR
STARTCHAR 33AE
ENCODING 13230
SWIDTH 960 0
DWIDTH 24 0
BBX 23 25 0 -4
BITMAP
000200
000E00
000600
000600
7B3E02
FEA606
66E60C
61E618
66E630
6CE620
6CA640
E7BFC0
000180
000300
000678
000488
000884
0010C0
0030F8
00600C
00C104
008084
0100CC
0200B8
060000
ENDCHAR
STARTCHAR 33AF
ENCODING 13231
SWIDTH 960 0
DWIDTH 24 0
BBX 24 23 0 -2
BITMAP
000E00
000603
000606
773E04
7CB608
6CE610
63E630
66E66C
6CE6D2
6CA692
E7BF06
000218
00041E
000C00
0019F0
003210
002208
004300
0081F0
010018
030208
060318
0400F0
ENDCHAR
STARTCHAR 33B0
ENCODING 13232
SWIDTH 1000 0
DWIDTH 25 0
BBX 18 16 3 -3
BITMAP
3E1F00
F32180
636080
61E080
61F000
61BF00
619F80
6181C0
61C0C0
6360C0
673180
7C2F00
600000
600000
600000
F80000
ENDCHAR
STARTCHAR 33B1
ENCODING 13233
SWIDTH 1000 0
DWIDTH 25 0
BBX 19 11 3 0
BITMAP
6F0F80
7398C0
619840
619800
619F80
618FC0
6180E0
619060
619060
618C40
FBEFC0
ENDCHAR
STARTCHAR 33B2
ENCODING 13234
SWIDTH 1000 0
DWIDTH 25 0
BBX 18 15 3 -2
BITMAP
619F00
61B180
61B080
61B000
61B800
61BF80
619FC0
6181C0
61A0C0
61B0C0
7398C0
5DD780
C00000
C00000
C00000
ENDCHAR
STARTCHAR 33B3
ENCODING 13235
SWIDTH 1000 0
DWIDTH 25 0
BBX 21 11 1 1
BITMAP
7DC3E0
766C30
666C10
666E00
666FE0
6667F0
666038
666818
666C18
666610
F7F7E0
ENDCHAR
STARTCHAR 33B4
ENCODING 13236
SWIDTH 960 0
DWIDTH 24 0
BBX 18 22 3 -4
BITMAP
03E3C0
00C180
00C180
00C100
00C100
006100
006300
3E6200
F36200
636200
61B400
61B400
61B400
61B400
619800
631800
631800
7E1800
600000
600000
600000
F80000
ENDCHAR
STARTCHAR 33B5
ENCODING 13237
SWIDTH 1000 0
DWIDTH 25 0
BBX 19 18 3 0
BITMAP
00F9E0
0060C0
0060C0
003080
003080
003080
003080
6F1900
F99900
70D900
60D900
60C900
60CE00
60CE00
60CE00
60C600
60C400
FBE400
ENDCHAR
STARTCHAR 33B6
ENCODING 13238
SWIDTH 1000 0
DWIDTH 25 0
BBX 19 21 3 -3
BITMAP
01F1E0
0060C0
0060C0
006080
006080
003080
61B180
61B100
61B100
619100
619A00
619A00
619A00
619E00
618C00
618C00
738C00
7DCC00
C00000
C00000
C00000
ENDCHAR
STARTCHAR 33B7
ENCODING 13239
SWIDTH 1000 0
DWIDTH 25 0
BBX 21 18 2 0
BITMAP
007C78
003830
003830
001820
001820
001820
001C60
7DCC40
FF6C40
666C40
666E80
666680
666680
666680
666700
666300
666300
F7F300
ENDCHAR
STARTCHAR 33B8
ENCODING 13240
SWIDTH 960 0
DWIDTH 24 0
BBX 20 18 2 1
BITMAP
207CF0
E03860
601860
601840
601840
601840
600C40
63EC80
618C80
610C80
660480
6C0680
7E0700
670700
630700
638300
61C200
FBE200
ENDCHAR
STARTCHAR 33B9
ENCODING 13241
SWIDTH 1000 0
DWIDTH 25 0
BBX 23 18 1 0
BITMAP
F0FF1E
71EE0C
71C608
71C608
79C608
59C608
59C710
59C310
5AC310
5EC330
4EC3A0
4EC1A0
4EC1A0
4EC1C0
4CC1C0
44C0C0
44C0C0
F5F080
ENDCHAR
STARTCHAR 33BA
ENCODING 13242
SWIDTH 1000 0
DWIDTH 25 0
BBX 20 22 3 -4
BITMAP
01EF70
00C620
00C620
00C620
004720
006740
006740
3E6740
F36F40
636B40
61E9C0
61F9C0
61B9C0
61B180
61B180
633080
633080
7E3080
600000
600000
600000
F80000
ENDCHAR
STARTCHAR 33BB
ENCODING 13243
SWIDTH 920 0
DWIDTH 23 0
BBX 21 18 1 0
BITMAP
00F7B8
006310
006310
007310
007390
003390
0033A0
6F33A0
F3B7A0
71B5A0
61B4E0
61BCE0
619CE0
619CE0
6198C0
619840
619840
FBF840
ENDCHAR
STARTCHAR 33BC
ENCODING 13244
SWIDTH 960 0
DWIDTH 24 0
BBX 21 21 2 -3
BITMAP
01EF38
004610
006610
006710
006710
006720
61E720
61E7A0
61ABA0
61A9A0
61B9E0
61B9E0
61B9E0
61B1C0
61B0C0
61B0C0
73B0C0
7DD0C0
C00000
C00000
C00000
ENDCHAR
STARTCHAR 33BD
ENCODING 13245
SWIDTH 1000 0
DWIDTH 25 0
BBX 23 18 1 0
BITMAP
007BCE
003184
003184
001184
0019C4
0019C8
0019C8
7DD9E8
FF7BE8
667AE8
667A68
666E78
666E78
666E70
666C70
666C30
666C30
F7FC30
ENDCHAR
STARTCHAR 33BE
ENCODING 13246
SWIDTH 1000 0
DWIDTH 25 0
BBX 22 18 2 1
BITMAP
207BDC
E03188
603188
601188
6019C8
6019C8
6019D0
63F9D0
61DBD0
619AD0
661A70
6C0E70
7E0E70
670E70
630C60
638C20
61CC20
FBEC20
ENDCHAR
STARTCHAR 33BF
ENCODING 13247
SWIDTH 960 0
DWIDTH 24 0
BBX 23 18 0 0
BITMAP
F0FDEE
71D8C4
71D8C4
71D8C4
79DCE4
59DCE4
59CCE8
5ACCE8
5ACD68
5ECD38
4ECF38
4ECF38
4ECF38
4EC638
4CC630
44C610
44C610
F5F610
ENDCHAR
STARTCHAR 33C0
ENCODING 13248
SWIDTH 960 0
DWIDTH 24 0
BBX 22 18 1 0
BITMAP
2001E0
E00630
600C18
600C18
60080C
60180C
60180C
63F80C
61D80C
61180C
66180C
6C0C18
7E0410
770220
630240
639244
61DE7C
FBFE7C
ENDCHAR
STARTCHAR 33C1
ENCODING 13249
SWIDTH 1000 0
DWIDTH 25 0
BBX 23 18 1 0
BITMAP
F0F1F0
71C318
71C60C
71C60C
79CC06
59CC06
59CC06
59CC06
5ACC06
5ECC06
4EC60C
4EC60C
4EC318
4EC110
4CC120
44C9A2
44CFBE
F5FFBE
ENDCHAR
STARTCHAR 33C2
ENCODING 13250
SWIDTH 1000 0
DWIDTH 25 0
BBX 23 12 1 0
BITMAP
781660
C41BB0
C41110
041110
1C1110
241110
441110
C41110
C41110
CC9114
77FBBE
01C006
ENDCHAR
STARTCHAR 33C3
ENCODING 13251
SWIDTH 1000 0
DWIDTH 25 0
BBX 21 22 2 -4
BITMAP
FF0000
318000
30C000
30C000
30C000
30C000
30C3E0
318CE0
3F0C60
31D860
30D860
307860
307860
307860
307860
30EC60
31CC60
FF83E0
000060
000060
000060
0000F8
ENDCHAR
STARTCHAR 33C4
ENCODING 13252
SWIDTH 1000 0
DWIDTH 25 0
BBX 18 12 3 0
BITMAP
1E0780
2309C0
6318C0
C03000
C03000
C03000
C03000
C03000
C03000
61B840
731CC0
3E0F80
ENDCHAR
STARTCHAR 33C5
ENCODING 13253
SWIDTH 960 0
DWIDTH 24 0
BBX 18 18 2 0
BITMAP
000080
000380
000180
000180
000180
000180
000180
1E1D80
273380
632180
C06180
C06180
C06180
C06180
C06180
E0E180
713380
3E1DC0
ENDCHAR
STARTCHAR 33C6
ENCODING 13254
SWIDTH 960 0
DWIDTH 24 0
BBX 24 23 0 -1
BITMAP
000060
1E0040
330080
230100
600200
600600
600C00
601800
713000
332000
1E4000
00F000
01B000
033000
06373E
0C3666
183C66
103866
203C3C
60377E
C0337F
000063
00003E
ENDCHAR
STARTCHAR 33C7
ENCODING 13255
SWIDTH 1000 0
DWIDTH 25 0
BBX 21 18 2 1
BITMAP
1F0000
318000
608000
608000
400000
C00000
C00000
C00F00
C01980
C01080
C030C0
C030C0
C030C0
E070C0
60B0C0
709090
3F19B8
1E0F38
ENDCHAR
STARTCHAR 33C8
ENCODING 13256
SWIDTH 960 0
DWIDTH 24 0
BBX 20 18 2 1
BITMAP
033F80
0718C0
031860
031860
031860
031860
031860
3B1860
6718C0
431F80
C31860
C31870
C31830
C31830
C31830
C31830
671860
3BBFC0
ENDCHAR
STARTCHAR 33C9
ENCODING 13257
SWIDTH 960 0
DWIDTH 24 0
BBX 20 22 2 -3
BITMAP
0F0000
310000
218000
608000
600000
C00000
C07CF0
C03860
C01860
C01C40
C3EC40
C18C80
C18C80
E18680
618700
618700
338300
1F8200
000200
003200
003C00
001800
ENDCHAR
STARTCHAR 33CA
ENCODING 13258
SWIDTH 960 0
DWIDTH 24 0
BBX 20 17 2 1
BITMAP
E00000
600000
600000
600000
600000
600000
6F07C0
738C60
618860
618060
6183E0
618660
618C60
619860
619860
619CE0
FBEF70
ENDCHAR
STARTCHAR 33CF
ENCODING 13263
SWIDTH 960 0
DWIDTH 24 0
BBX 17 18 3 0
BITMAP
200000
E00000
600000
600200
600200
600600
63FF80
618600
610600
660600
6C0600
7E0600
760600
670600
638600
618600
61C680
FBE300
ENDCHAR
STARTCHAR 33D0
ENCODING 13264
SWIDTH 1000 0
DWIDTH 25 0
BBX 18 18 4 0
BITMAP
200000
E00000
600000
600000
600000
600000
600000
61F700
63FD80
619980
619980
619980
619980
619980
619980
619980
619980
FBFBC0
ENDCHAR
STARTCHAR 33D3
ENCODING 13267
SWIDTH 960 0
DWIDTH 24 0
BBX 16 18 4 0
BITMAP
2000
E000
6000
6000
6000
6000
6000
67CF
6386
6184
60C8
6078
6070
6078
605C
608C
6186
FFDF
ENDCHAR
STARTCHAR 33D6
ENCODING 13270
SWIDTH 960 0
DWIDTH 24 0
BBX 23 18 0 0
BITMAP
000004
00003C
00000C
00000C
00000C
00000C
3DC78C
FF6CCC
666CCC
66786C
66786C
66786C
66786C
66786C
66786C
666CCC
666CCC
EEE7BE
ENDCHAR
STARTCHAR 33D8
ENCODING 13272
SWIDTH 1000 0
DWIDTH 25 0
BBX 23 16 1 -3
BITMAP
5C1660
E23FF0
421110
411110
411110
411110
411110
411110
411110
421110
679114
5DBBBE
418006
400000
400000
E00000
ENDCHAR
STARTCHAR 33DB
ENCODING 13275
SWIDTH 1000 0
DWIDTH 25 0
BBX 17 12 5 1
BITMAP
7C1300
C6F780
C23F80
C23800
E03000
FE3000
7F3000
073000
833000
C33000
633000
5EF800
ENDCHAR
STARTCHAR 33DC
ENCODING 13276
SWIDTH 1000 0
DWIDTH 25 0
BBX 19 18 3 -1
BITMAP
1D0000
230000
410000
408000
400000
400000
40F9E0
6030C0
3E30C0
1F3080
019880
019900
009900
808D00
808E00
C18E00
610600
5E0400
ENDCHAR
STARTCHAR 33DD
ENCODING 13277
SWIDTH 1000 0
DWIDTH 25 0
BBX 23 18 1 1
BITMAP
F7BD00
631F00
631300
231300
339300
339300
339378
33939C
35A30C
34E306
3CE306
1CE306
1CE306
18E306
18E306
18430C
18438C
1842F0
ENDCHAR
STARTCHAR 4E00
ENCODING 19968
SWIDTH 960 0
DWIDTH 24 0
BBX 22 4 1 7
BITMAP
01F004
7FFFFC
E001F8
000030
ENDCHAR
STARTCHAR 4E01
ENCODING 19969
SWIDTH 960 0
DWIDTH 24 0
BBX 22 18 1 -2
BITMAP
FFFFFC
F018FC
001830
001800
001800
001800
001800
001800
001800
001800
001800
001800
001800
001800
003800
01F800
01F000
00E000
ENDCHAR
STARTCHAR 4E03
ENCODING 19971
SWIDTH 960 0
DWIDTH 24 0
BBX 22 18 1 0
BITMAP
018000
018000
018000
018000
018000
018000
018000
FFFFFC
E183F8
018000
018000
018000
018000
018000
018000
018080
01FF80
01FF80
ENDCHAR
STARTCHAR 4E07
ENCODING 19975
SWIDTH 1000 0
DWIDTH 25 0
BBX 22 17 1 0
BITMAP
00000C
7FFFFC
FFFFFC
C06010
006000
004000
00FFC0
00FFC0
008180
018180
030180
030180
060300
0C0300
FC3F00
F83F00
701E00
ENDCHAR
STARTCHAR 4E08
ENCODING 19976
SWIDTH 1000 0
DWIDTH 25 0
BBX 23 19 1 -1
BITMAP
001800
001800
001800
001800
3FFFF0
3FFFF0
301800
001800
001800
061800
03B000
00F000
007800
00FC00
03CF00
FF87E0
FF03FE
7801FE
000078
ENDCHAR
STARTCHAR 4E09
ENCODING 19977
SWIDTH 1000 0
DWIDTH 25 0
BBX 23 16 1 0
BITMAP
1FFFE0
1FFFC0
000000
000000
000000
000000
0FFFC0
0FFFC0
000000
000000
000000
000000
000002
7FFFFE
F803FC
000038
ENDCHAR
STARTCHAR 4E0A
ENCODING 19978
SWIDTH 1000 0
DWIDTH 25 0
BBX 23 18 1 0
BITMAP
003000
003000
003000
003000
003000
003000
003FE0
003FE0
003000
003000
003000
003000
003000
003000
003000
07FFFE
FFFFFE
C0003C
ENDCHAR
STARTCHAR 4E0B
ENCODING 19979
SWIDTH 960 0
DWIDTH 24 0
BBX 22 18 1 0
BITMAP
7FFFFC
F031FC
003078
003000
003000
003000
003800
003E00
003700
003300
003000
003000
003000
003000
003000
003000
003000
002000
ENDCHAR
STARTCHAR 4E0D
ENCODING 19981
SWIDTH 960 0
DWIDTH 24 0
BBX 23 18 0 -1
BITMAP
3FFFF8
3FFFF8
381000
002000
006000
00DA00
00DB00
019980
0718E0
1E18F0
FC187E
F8183E
70181C
001800
001800
001800
001800
001800
ENDCHAR
STARTCHAR 4E11
ENCODING 19985
SWIDTH 960 0
DWIDTH 24 0
BBX 23 18 0 -1
BITMAP
01FC00
0FFFE0
0FC1E0
00C0C0
00C0C0
00C0C0
00C1C0
008180
3FFFF8
318180
018180
010180
010300
030300
030300
7FFFFE
FFFFFC
C0007C
ENDCHAR
STARTCHAR 4E14
ENCODING 19988
SWIDTH 1000 0
DWIDTH 25 0
BBX 23 18 1 -1
BITMAP
03FF80
03FF80
030300
030300
030300
03FF00
03FF00
030300
030300
030300
03FF00
038300
030300
020300
7FFFFE
FFFFFE
E0007C
000008
ENDCHAR
STARTCHAR 4E15
ENCODING 19989
SWIDTH 960 0
DWIDTH 24 0
BBX 24 17 0 -1
BITMAP
3FFFF8
3FFFF8
003000
002000
006000
00D800
00DE00
019B00
031980
0E18E0
3C1878
F8183F
70181E
001800
000000
0FFFE0
0FFFE0
ENDCHAR
STARTCHAR 4E16
ENCODING 19990
SWIDTH 1000 0
DWIDTH 25 0
BBX 23 18 1 1
BITMAP
063080
063180
063180
063180
063180
063186
FFFFFE
FE11FC
061180
061180
061180
061F80
061000
060000
060000
060000
07FFF0
07FFE0
ENDCHAR
STARTCHAR 4E18
ENCODING 19992
SWIDTH 1000 0
DWIDTH 25 0
BBX 23 18 1 0
BITMAP
07FFC0
07FFC0
060000
060000
060000
060000
060000
07FFE0
060400
060400
060400
060400
060400
060400
07FE06
7FFFFE
F001FC
000038
ENDCHAR
STARTCHAR 4E19
ENCODING 19993
SWIDTH 1000 0
DWIDTH 25 0
BBX 22 18 1 -2
BITMAP
000004
FFFFFC
002000
002000
002000
1FE020
1FFFF0
182070
182060
187060
185860
18CC60
1B8FE0
1B87E0
190070
180070
180070
100070
ENDCHAR
STARTCHAR 4E1E
ENCODING 19998
SWIDTH 1000 0
DWIDTH 25 0
BBX 24 18 0 -1
BITMAP
07FF80
07FF80
060300
000600
006C00
003830
001070
3FCBC0
308B00
018980
0108C0
0608E0
0E1870
FC783F
F8201E
700018
07FFE0
07FFC0
ENDCHAR
STARTCHAR 4E2D
ENCODING 20013
SWIDTH 960 0
DWIDTH 24 0
BBX 18 20 3 -2
BITMAP
00C000
00C000
00C000
00C000
FFFFC0
FFFFC0
C0C0C0
C0C0C0
C0C0C0
C0C0C0
C0C0C0
FFFFC0
FCFFC0
00C000
00C000
00C000
00C000
00C000
00C000
00C000
ENDCHAR
STARTCHAR 4E32
ENCODING 20018
SWIDTH 960 0
DWIDTH 24 0
BBX 18 20 3 -3
BITMAP
00C000
00C000
00C000
7FFFC0
7FFFC0
60C080
60C180
7FFF80
70C780
00C000
FFFFC0
C0C0C0
40C0C0
40C0C0
7FFFC0
40C000
00C000
00C000
00C000
00C000
ENDCHAR
STARTCHAR 4E38
ENCODING 20024
SWIDTH 1000 0
DWIDTH 25 0
BBX 23 18 1 0
BITMAP
00C000
00C000
00C000
00C000
0FFF00
0FFF00
008300
008300
008300
0C8300
078300
038300
01C300
03E300
0F2306
FE03FE
7C01FC
20007C
ENDCHAR
STARTCHAR 4E39
ENCODING 20025
SWIDTH 1000 0
DWIDTH 25 0
BBX 23 19 1 -1
BITMAP
020180
03FF80
030180
030100
036100
037100
033100
031900
030100
FFFFFE
E201FC
020138
060100
060100
0C0100
1C0100
FC0100
780100
300100
ENDCHAR
STARTCHAR 4E3B
ENCODING 20027
SWIDTH 960 0
DWIDTH 24 0
BBX 23 19 1 1
BITMAP
003000
003000
002000
002000
000000
1FFFC0
1FFFC0
003000
003000
003000
0FFFC0
003000
003000
003000
003000
003006
3FFFFC
F803FC
C00038
ENDCHAR
STARTCHAR 4E42
ENCODING 20034
SWIDTH 1000 0
DWIDTH 25 0
BBX 23 17 1 0
BITMAP
000060
000060
0000C0
0C00C0
060180
030300
018300
00C600
007C00
003800
007C00
03EF00
3FC7C0
FF03F0
FE01FE
3800FC
000038
ENDCHAR
STARTCHAR 4E43
ENCODING 20035
SWIDTH 1000 0
DWIDTH 25 0
BBX 22 18 1 0
BITMAP
07FFF0
0FFFF0
0C6060
006060
0040C0
0040C0
00C1FC
0081FC
01800C
018008
030018
070018
0E0018
1E0030
FC0030
F800F0
7001E0
0000E0
ENDCHAR
STARTCHAR 4E45
ENCODING 20037
SWIDTH 960 0
DWIDTH 24 0
BBX 22 18 1 0
BITMAP
004000
00C000
008000
01FF00
03FF00
0F0200
3E0600
1C0C00
000C00
001800
003000
00F800
01CE00
078780
1F03E0
FE01FC
F800FC
7000F8
ENDCHAR
STARTCHAR 4E4B
ENCODING 20043
SWIDTH 1000 0
DWIDTH 25 0
BBX 23 19 1 -1
BITMAP
006000
006000
006000
006000
1FFFC0
3FFFC0
200780
000E00
003800
007000
01C000
038000
060000
3E0000
63F802
C07FFE
800FFC
0001F8
000070
ENDCHAR
STARTCHAR 4E4D
ENCODING 20045
SWIDTH 960 0
DWIDTH 24 0
BBX 22 20 1 -2
BITMAP
008000
018000
030004
07FFFC
0FFFFC
1C3000
F83000
F03000
203FF0
003FF0
003000
003000
003000
003FF0
003800
003000
003000
003000
003000
002000
ENDCHAR
STARTCHAR 4E4E
ENCODING 20046
SWIDTH 960 0
DWIDTH 24 0
BBX 22 19 1 -1
BITMAP
000780
0FFF80
0FF000
003180
043180
063300
023200
003004
FFFFFC
E03078
003000
003000
003000
003000
003000
006000
03E000
03E000
01C000
ENDCHAR
STARTCHAR 4E4F
ENCODING 20047
SWIDTH 960 0
DWIDTH 24 0
BBX 22 19 1 -1
BITMAP
000780
3FFC00
3FE000
1F0000
004000
006000
004000
3FFF80
380700
001C00
003000
00E000
018000
3B0000
7FF000
C0FFFC
801FFC
0003F8
000070
ENDCHAR
STARTCHAR 4E56
ENCODING 20054
SWIDTH 960 0
DWIDTH 24 0
BBX 23 19 0 -2
BITMAP
0001C0
07FF80
07F800
001000
001000
7FFFFE
FC13FC
C0103C
009300
009300
1F93F0
009300
009300
0393F8
1F93F8
301000
001000
001000
001000
ENDCHAR
STARTCHAR 4E58
ENCODING 20056
SWIDTH 960 0
DWIDTH 24 0
BBX 22 20 1 -2
BITMAP
0FFF80
0FFF80
0FF000
003000
1FFFE0
1FFFC0
013600
0137E0
3F3600
0137F0
1F37F0
387800
20FC00
03B700
0E3380
FC31F0
F830FC
703078
003000
003000
ENDCHAR
STARTCHAR 4E59
ENCODING 20057
SWIDTH 960 0
DWIDTH 24 0
BBX 22 17 1 0
BITMAP
7FE000
FFE000
00C000
018000
038000
030000
060000
0C0000
0C0000
180000
180000
300000
300000
38001C
1FFFFC
03FFF8
000FF0
ENDCHAR
STARTCHAR 4E5D
ENCODING 20061
SWIDTH 1000 0
DWIDTH 25 0
BBX 23 19 1 -1
BITMAP
006000
006000
006000
006000
0FFF80
0FFF80
084380
00C380
00C300
00C300
008300
018300
038300
070300
1F0382
FE03CE
FC01FE
7800FC
00003C
ENDCHAR
STARTCHAR 4E5E
ENCODING 20062
SWIDTH 920 0
DWIDTH 23 0
BBX 22 20 0 -2
BITMAP
010000
030000
060000
0FFF80
3FFF80
F00000
600000
000000
1FFC00
1FFC00
001800
003000
002000
006000
00C000
00C000
00C00C
00FFFC
003FF8
0001F8
ENDCHAR
STARTCHAR 4E5F
ENCODING 20063
SWIDTH 1000 0
DWIDTH 25 0
BBX 23 18 1 -1
BITMAP
006000
006000
006000
0C6000
0C6180
0C7F80
0FE180
FE4300
EC4300
0C4300
0C4200
0C4000
0C0000
0C0002
0C000E
0FFFFE
07FFFC
000FFC
ENDCHAR
STARTCHAR 4E6B
ENCODING 20075
SWIDTH 1000 0
DWIDTH 25 0
BBX 21 21 1 -3
BITMAP
020000
1F2000
3FEFE0
066FE0
0C4440
184440
F3CFC0
63CFC0
018C00
000000
1FFC00
3E3C00
003800
007000
00E000
00C000
018000
018038
00FFF8
007FF0
0003F0
ENDCHAR
STARTCHAR 4E6D
ENCODING 20077
SWIDTH 960 0
DWIDTH 24 0
BBX 19 18 2 0
BITMAP
FFFFE0
C300C0
030000
060000
1FFF80
FB0100
E30100
030100
03FF00
000000
7FF800
006000
00C000
018000
030000
0381E0
03FFE0
001FC0
ENDCHAR
STARTCHAR 4E73
ENCODING 20083
SWIDTH 960 0
DWIDTH 24 0
BBX 22 20 1 -2
BITMAP
006000
01E400
7F0400
030400
332400
E23400
600400
1FE400
38E400
01C400
030400
01E400
0FC400
7D8400
618400
01860C
0187FC
1303F8
0F0070
0E0000
ENDCHAR
STARTCHAR 4E76
ENCODING 20086
SWIDTH 960 0
DWIDTH 24 0
BBX 23 20 0 -1
BITMAP
000020
001060
7FFFFE
001000
07FFE0
041020
07FFE0
041020
0FFFE0
1C1020
F81020
701020
0FFE00
081C00
001800
002000
006000
00C00C
00FFFC
007FF8
ENDCHAR
STARTCHAR 4E77
ENCODING 20087
SWIDTH 960 0
DWIDTH 24 0
BBX 21 19 2 -1
BITMAP
000800
600800
784900
0C4880
0088E0
F18B78
080E00
183800
33E000
C00000
001000
3FF800
303000
006000
00C000
018000
030030
03FFF0
01FFE0
ENDCHAR
STARTCHAR 4E7E
ENCODING 20094
SWIDTH 960 0
DWIDTH 24 0
BBX 22 22 1 -4
BITMAP
040000
060400
060C00
FFC800
F41FF8
043FF0
443000
7F9000
608000
7F9FC0
609180
608180
7F8100
640300
040200
7C0200
FFE600
840604
0407FC
0401FC
040038
040000
ENDCHAR
STARTCHAR 4E82
ENCODING 20098
SWIDTH 1000 0
DWIDTH 25 0
BBX 24 19 0 -1
BITMAP
00F980
3FE180
119180
119D80
618980
6FF180
062180
03C180
3FF180
337180
322980
37E980
37E980
342980
326980
33C9C1
73D0FF
E7303E
60000E
ENDCHAR
STARTCHAR 4E86
ENCODING 20102
SWIDTH 1000 0
DWIDTH 25 0
BBX 16 19 4 -1
BITMAP
FFFF
FFFF
000E
001C
0030
0360
01C0
00C0
0040
0060
0060
0060
0060
0060
00E0
01C0
3FC0
1F80
1E00
ENDCHAR
STARTCHAR 4E88
ENCODING 20104
SWIDTH 960 0
DWIDTH 24 0
BBX 19 19 2 -1
BITMAP
1FFE00
1FFE00
001C00
033800
03F000
00E000
002000
000000
FFFFE0
E060C0
006180
006100
006000
006000
006000
006000
07E000
03E000
038000
ENDCHAR
STARTCHAR 4E8B
ENCODING 20107
SWIDTH 960 0
DWIDTH 24 0
BBX 23 21 0 -2
BITMAP
001000
001000
3FFFF8
381000
001000
07FFC0
0610C0
0610C0
07FFC0
001000
0FFFE0
0010E0
7FFFFE
E010FC
01F0C8
0FFFC0
001000
003000
01E000
01E000
008000
ENDCHAR
STARTCHAR 4E8C
ENCODING 20108
SWIDTH 1000 0
DWIDTH 25 0
BBX 23 12 1 2
BITMAP
1FFFE0
1FFFE0
000000
000000
000000
000000
000000
000000
7FFFFE
FFFFFE
E000FC
000018
ENDCHAR
STARTCHAR 4E8E
ENCODING 20110
SWIDTH 960 0
DWIDTH 24 0
BBX 22 19 1 -1
BITMAP
1FFF80
1FFF80
183000
003000
003000
003000
003000
FFFFFC
F837F8
003000
003000
003000
003000
003000
003000
003000
03F000
01E000
01C000
ENDCHAR
STARTCHAR 4E90
ENCODING 20112
SWIDTH 960 0
DWIDTH 24 0
BBX 18 20 3 -1
BITMAP
3FFF00
3FFF00
030000
030000
FFFFC0
FFFFC0
060000
060000
060200
0FFF80
0FFF80
040180
000100
000100
000300
000300
000300
007F00
003F00
003C00
ENDCHAR
STARTCHAR 4E91
ENCODING 20113
SWIDTH 1000 0
DWIDTH 25 0
BBX 23 15 1 2
BITMAP
03FFC0
03FFC0
000000
000000
000000
7FFFFE
FC71FE
C0701C
00E100
00C180
01C080
0180C0
030060
07FFE0
07FFE0
ENDCHAR
STARTCHAR 4E92
ENCODING 20114
SWIDTH 1000 0
DWIDTH 25 0
BBX 23 18 1 -1
BITMAP
3FFFF0
3FFFF0
004000
00C000
00C000
00FFC0
01FFC0
018180
030380
03FF00
07FE00
000600
000600
000C00
07FFFE
FFFFFE
E000FC
000008
ENDCHAR
STARTCHAR 4E94
ENCODING 20116
SWIDTH 1000 0
DWIDTH 25 0
BBX 23 18 1 -1
BITMAP
1FFFF0
1FFFF0
003000
006000
006000
004000
0FF800
1FFFC0
0081C0
018180
018180
010300
030300
030300
07FF02
FFFFFE
F000FC
000018
ENDCHAR
STARTCHAR 4E95
ENCODING 20117
SWIDTH 1000 0
DWIDTH 25 0
BBX 23 20 1 -1
BITMAP
018300
018300
018300
018300
1FFFF0
1FFFE0
008300
008300
008300
00FF00
7FFFFE
F983FE
C1833C
038300
038300
070300
1F0300
7E0300
380300
000300
ENDCHAR
STARTCHAR 4E98
ENCODING 20120
SWIDTH 960 0
DWIDTH 24 0
BBX 22 19 1 0
BITMAP
3FFFF8
FFFFF8
E000F0
000020
07FF80
07FF80
060180
060180
07FF80
070180
060180
060180
07FF80
040000
000000
0FFFFC
FFFFFC
E000F8
000030
ENDCHAR
STARTCHAR 4E9B
ENCODING 20123
SWIDTH 960 0
DWIDTH 24 0
BBX 22 19 1 -2
BITMAP
020800
020800
020800
220800
23CFE0
220800
220800
220800
220800
23DFF8
7E0070
700000
03FF00
07FF00
000000
000000
7FFFFC
FFFFFC
C000F8
ENDCHAR
ENDFONT
